{
.appVersion = "895";
copyright = "Copyright 2016 Google Inc. All Rights Reserved.";
customParameters = (
{
name = description;
value = "Designed by Monotype design team.";
},
{
name = license;
value = "This Font Software is licensed under the SIL Open Font License, Version 1.1. This Font Software is distributed on an \"AS IS\" BASIS, WITHOUT WARRANTIES OR CONDITIONS OF ANY KIND, either express or implied. See the SIL Open Font License for the specific language, permissions and limitations governing your use of this Font Software.";
},
{
name = licenseURL;
value = "http://scripts.sil.org/OFL";
},
{
name = vendorID;
value = GOOG;
},
{
name = trademark;
value = "Noto is a trademark of Google Inc.";
},
{
name = fsType;
value = (
);
},
{
name = panose;
value = (
2,
11,
5,
2,
4,
5,
4,
2,
2,
4
);
},
{
name = unicodeRanges;
value = (
95
);
},
{
name = codePageRanges;
value = (
1252
);
},
{
name = glyphOrder;
value = (
.notdef,
null,
uni000D,
space,
uni1980,
uni1981,
uni1982,
uni1983,
uni1984,
uni1985,
uni1986,
uni1987,
uni1988,
uni1989,
uni198A,
uni198B,
uni198C,
uni198D,
uni198E,
uni198F,
uni1990,
uni1991,
uni1992,
uni1993,
uni1994,
uni1995,
uni1996,
uni1997,
uni1998,
uni1999,
uni199A,
uni199B,
uni199C,
uni199D,
uni199E,
uni199F,
uni19A0,
uni19A1,
uni19A2,
uni19A3,
uni19A4,
uni19A5,
uni19A6,
uni19A7,
uni19A8,
uni19A9,
uni19AA,
uni19AB,
uni19B0,
uni19B1,
uni19B2,
uni19B3,
uni19B4,
uni19B5,
uni19B6,
uni19B7,
uni19B8,
uni19B9,
uni19BA,
uni19BB,
uni19BC,
uni19BD,
uni19BE,
uni19BF,
uni19C0,
uni19C1,
uni19C2,
uni19C3,
uni19C4,
uni19C5,
uni19C6,
uni19C7,
uni19C8,
uni19C9,
uni19D0,
uni19D1,
uni19D2,
uni19D3,
uni19D4,
uni19D5,
uni19D6,
uni19D7,
uni19D8,
uni19D9,
uni19DA,
uni19DE,
uni19DF,
finalconsmk,
belowmk1,
belowmk2,
abovemk1
);
}
);
date = "2016-11-10 14:23:53 +0000";
designer = "Monotype Design Team";
designerURL = "http://www.monotype.com/studio";
familyName = "Noto Sans New Tai Lue";
fontMaster = (
{
ascender = 2189;
capHeight = 1434;
customParameters = (
{

glyphs = (
{
glyphname = .notdef;
lastChange = "2016-11-10 14:23:38 +0000";
layers = (
{
layerId = "24EFEC18-4C8B-448A-94CC-E79C5CDE5BAA";
paths = (
{
closed = 1;
nodes = (
"1034 0 LINE",
"1034 1462 LINE",
"193 1462 LINE",
"193 0 LINE"
);
},
{
closed = 1;
nodes = (
"297 1358 LINE",
"930 1358 LINE",
"930 104 LINE",
"297 104 LINE"
);
}
);
width = 1229;
}
);
note = .notdef;
},
{
glyphname = uni1980;
lastChange = "2016-11-10 14:23:34 +0000";
layers = (
{
layerId = "24EFEC18-4C8B-448A-94CC-E79C5CDE5BAA";
paths = (
{
closed = 1;
nodes = (
"1376 -570 OFFCURVE",
"1464 -554 OFFCURVE",
"1540 -523 CURVE SMOOTH",
"1691 -460 OFFCURVE",
"1784 -326 OFFCURVE",
"1784 -174 CURVE SMOOTH",
"1784 -59 OFFCURVE",
"1718 38 OFFCURVE",
"1599 95 CURVE",
"1724 187 OFFCURVE",
"1802 349 OFFCURVE",
"1802 553 CURVE SMOOTH",
"1802 670 OFFCURVE",
"1782 772 OFFCURVE",
"1742 857 CURVE SMOOTH",
"1662 1027 OFFCURVE",
"1511 1118 OFFCURVE",
"1320 1118 CURVE SMOOTH",
"1156 1118 OFFCURVE",
"1017 1046 OFFCURVE",
"918 926 CURVE",
"832 1054 OFFCURVE",
"699 1118 OFFCURVE",
"518 1118 CURVE SMOOTH",
"363 1118 OFFCURVE",
"214 1046 OFFCURVE",
"118 915 CURVE",
"249 839 LINE",
"304 926 OFFCURVE",
"405 980 OFFCURVE",
"509 980 CURVE SMOOTH",
"709 980 OFFCURVE",
"828 828 OFFCURVE",
"828 555 CURVE SMOOTH",
"828 292 OFFCURVE",
"707 118 OFFCURVE",
"520 118 CURVE SMOOTH",
"391 118 OFFCURVE",
"257 212 OFFCURVE",
"212 313 CURVE",
"80 238 LINE",
"180 71 OFFCURVE",
"337 -20 OFFCURVE",
"521 -20 CURVE SMOOTH",
"618 -20 OFFCURVE",
"704 3 OFFCURVE",
"779 48 CURVE SMOOTH",
"928 139 OFFCURVE",
"1012 316 OFFCURVE",
"1012 553 CURVE SMOOTH",
"1012 615 OFFCURVE",
"1007 672 OFFCURVE",
"997 723 CURVE",
"1049 895 OFFCURVE",
"1158 980 OFFCURVE",
"1299 980 CURVE SMOOTH",
"1496 980 OFFCURVE",
"1618 824 OFFCURVE",
"1618 559 CURVE SMOOTH",
"1618 303 OFFCURVE",
"1510 138 OFFCURVE",
"1337 138 CURVE SMOOTH",
"1318 138 LINE",
"1298 137 LINE",
"1298 -1 LINE",
"1314 0 LINE",
"1329 0 LINE SMOOTH",
"1501 0 OFFCURVE",
"1601 -62 OFFCURVE",
"1601 -177 CURVE SMOOTH",
"1601 -346 OFFCURVE",
"1488 -432 OFFCURVE",
"1276 -432 CURVE SMOOTH",
"1132 -432 OFFCURVE",
"987 -357 OFFCURVE",
"899 -250 CURVE",
"778 -339 LINE",
"890 -480 OFFCURVE",
"1095 -570 OFFCURVE",
"1276 -570 CURVE SMOOTH"
);
}
);
width = 1902;
}
);
note = uni1980;
unicode = 1980;
},
{
glyphname = uni1982;
lastChange = "2016-11-10 14:23:34 +0000";
layers = (
{
layerId = "24EFEC18-4C8B-448A-94CC-E79C5CDE5BAA";
paths = (
{
closed = 1;
nodes = (
"663 -20 OFFCURVE",
"742 0 OFFCURVE",
"813 41 CURVE",
"732 158 LINE",
"684 131 OFFCURVE",
"634 118 OFFCURVE",
"582 118 CURVE SMOOTH",
"391 118 OFFCURVE",
"284 272 OFFCURVE",
"284 563 CURVE SMOOTH",
"284 826 OFFCURVE",
"394 980 OFFCURVE",
"579 980 CURVE SMOOTH",
"732 980 OFFCURVE",
"830 863 OFFCURVE",
"845 663 CURVE",
"1015 663 LINE",
"1028 862 OFFCURVE",
"1128 980 OFFCURVE",
"1281 980 CURVE SMOOTH",
"1468 980 OFFCURVE",
"1576 826 OFFCURVE",
"1576 563 CURVE SMOOTH",
"1576 274 OFFCURVE",
"1469 118 OFFCURVE",
"1278 118 CURVE SMOOTH",
"1226 118 OFFCURVE",
"1176 131 OFFCURVE",
"1128 158 CURVE",
"1047 41 LINE",
"1118 0 OFFCURVE",
"1197 -20 OFFCURVE",
"1286 -20 CURVE SMOOTH",
"1375 -20 OFFCURVE",
"1455 4 OFFCURVE",
"1528 51 CURVE SMOOTH",
"1673 145 OFFCURVE",
"1760 326 OFFCURVE",
"1760 565 CURVE SMOOTH",
"1760 677 OFFCURVE",
"1740 775 OFFCURVE",
"1700 858 CURVE SMOOTH",
"1619 1025 OFFCURVE",
"1467 1118 OFFCURVE",
"1286 1118 CURVE SMOOTH",
"1138 1118 OFFCURVE",
"998 1033 OFFCURVE",
"929 893 CURVE",
"865 1029 OFFCURVE",
"725 1118 OFFCURVE",
"574 1118 CURVE SMOOTH",
"482 1118 OFFCURVE",
"400 1095 OFFCURVE",
"328 1050 CURVE SMOOTH",
"183 959 OFFCURVE",
"100 786 OFFCURVE",
"100 565 CURVE SMOOTH",
"100 446 OFFCURVE",
"120 343 OFFCURVE",
"161 255 CURVE SMOOTH",
"242 78 OFFCURVE",
"394 -20 OFFCURVE",
"574 -20 CURVE SMOOTH"
);
}
);
width = 1860;
}
);
note = uni1982;
unicode = 1982;
},
{
glyphname = uni1983;
lastChange = "2016-11-10 14:23:34 +0000";
layers = (
{
layerId = "24EFEC18-4C8B-448A-94CC-E79C5CDE5BAA";
paths = (
{
closed = 1;
nodes = (
"580 -570 OFFCURVE",
"671 -546 OFFCURVE",
"748 -499 CURVE SMOOTH",
"902 -405 OFFCURVE",
"985 -225 OFFCURVE",
"985 4 CURVE SMOOTH",
"985 111 OFFCURVE",
"956 209 OFFCURVE",
"899 298 CURVE",
"954 395 OFFCURVE",
"982 499 OFFCURVE",
"982 608 CURVE SMOOTH",
"982 916 OFFCURVE",
"795 1118 OFFCURVE",
"507 1118 CURVE SMOOTH",
"321 1118 OFFCURVE",
"181 1050 OFFCURVE",
"88 915 CURVE",
"214 841 LINE",
"270 929 OFFCURVE",
"368 980 OFFCURVE",
"489 980 CURVE SMOOTH",
"685 980 OFFCURVE",
"798 848 OFFCURVE",
"798 623 CURVE SMOOTH",
"798 550 OFFCURVE",
"791 486 OFFCURVE",
"777 429 CURVE",
"686 496 OFFCURVE",
"583 529 OFFCURVE",
"470 529 CURVE SMOOTH",
"411 529 OFFCURVE",
"355 518 OFFCURVE",
"303 497 CURVE SMOOTH",
"198 454 OFFCURVE",
"137 374 OFFCURVE",
"137 286 CURVE SMOOTH",
"137 139 OFFCURVE",
"263 50 OFFCURVE",
"472 50 CURVE SMOOTH",
"591 50 OFFCURVE",
"693 84 OFFCURVE",
"778 153 CURVE",
"793 102 OFFCURVE",
"801 46 OFFCURVE",
"801 -14 CURVE SMOOTH",
"801 -278 OFFCURVE",
"684 -432 OFFCURVE",
"475 -432 CURVE SMOOTH",
"358 -432 OFFCURVE",
"234 -377 OFFCURVE",
"157 -290 CURVE",
"40 -385 LINE",
"135 -500 OFFCURVE",
"296 -570 OFFCURVE",
"475 -570 CURVE SMOOTH"
);
},
{
closed = 1;
nodes = (
"371 188 OFFCURVE",
"305 232 OFFCURVE",
"305 300 CURVE SMOOTH",
"305 356 OFFCURVE",
"376 393 OFFCURVE",
"467 393 CURVE SMOOTH",
"570 393 OFFCURVE",
"651 358 OFFCURVE",
"710 287 CURVE",
"658 221 OFFCURVE",
"581 188 OFFCURVE",
"478 188 CURVE SMOOTH"
);
}
);
width = 1085;
}
);
note = uni1983;
unicode = 1983;
},
{
glyphname = uni1984;
lastChange = "2016-11-10 14:23:34 +0000";
layers = (
{
layerId = "24EFEC18-4C8B-448A-94CC-E79C5CDE5BAA";
paths = (
{
closed = 1;
nodes = (
"562 -20 OFFCURVE",
"612 -6 OFFCURVE",
"658 22 CURVE SMOOTH",
"749 78 OFFCURVE",
"819 160 OFFCURVE",
"931 368 CURVE SMOOTH",
"1131 739 LINE SMOOTH",
"1184 836 OFFCURVE",
"1226 901 OFFCURVE",
"1259 933 CURVE SMOOTH",
"1292 964 OFFCURVE",
"1326 980 OFFCURVE",
"1362 980 CURVE SMOOTH",
"1407 980 OFFCURVE",
"1446 964 OFFCURVE",
"1480 933 CURVE SMOOTH",
"1547 869 OFFCURVE",
"1587 741 OFFCURVE",
"1587 569 CURVE SMOOTH",
"1587 290 OFFCURVE",
"1493 118 OFFCURVE",
"1337 118 CURVE SMOOTH",
"1256 118 OFFCURVE",
"1192 150 OFFCURVE",
"1147 215 CURVE",
"1045 124 LINE",
"1109 37 OFFCURVE",
"1209 -20 OFFCURVE",
"1340 -20 CURVE SMOOTH",
"1415 -20 OFFCURVE",
"1485 6 OFFCURVE",
"1552 58 CURVE SMOOTH",
"1685 161 OFFCURVE",
"1771 356 OFFCURVE",
"1771 571 CURVE SMOOTH",
"1771 678 OFFCURVE",
"1754 773 OFFCURVE",
"1719 856 CURVE SMOOTH",
"1650 1021 OFFCURVE",
"1518 1118 OFFCURVE",
"1363 1118 CURVE SMOOTH",
"1309 1118 OFFCURVE",
"1259 1104 OFFCURVE",
"1214 1076 CURVE SMOOTH",
"1122 1020 OFFCURVE",
"1052 938 OFFCURVE",
"940 730 CURVE SMOOTH",
"740 359 LINE SMOOTH",
"688 262 OFFCURVE",
"646 198 OFFCURVE",
"613 166 CURVE SMOOTH",
"580 134 OFFCURVE",
"545 118 OFFCURVE",
"509 118 CURVE SMOOTH",
"370 118 OFFCURVE",
"284 276 OFFCURVE",
"284 529 CURVE SMOOTH",
"284 808 OFFCURVE",
"378 980 OFFCURVE",
"534 980 CURVE SMOOTH",
"615 980 OFFCURVE",
"679 948 OFFCURVE",
"724 883 CURVE",
"826 974 LINE",
"762 1061 OFFCURVE",
"662 1118 OFFCURVE",
"531 1118 CURVE SMOOTH",
"456 1118 OFFCURVE",
"386 1092 OFFCURVE",
"319 1041 CURVE SMOOTH",
"186 937 OFFCURVE",
"100 742 OFFCURVE",
"100 527 CURVE SMOOTH",
"100 420 OFFCURVE",
"117 326 OFFCURVE",
"152 243 CURVE SMOOTH",
"220 78 OFFCURVE",
"352 -20 OFFCURVE",
"508 -20 CURVE SMOOTH"
);
},
{
closed = 1;
nodes = (
"1062 -600 OFFCURVE",
"1165 -588 OFFCURVE",
"1252 -565 CURVE SMOOTH",
"1427 -519 OFFCURVE",
"1524 -433 OFFCURVE",
"1524 -330 CURVE SMOOTH",
"1524 -171 OFFCURVE",
"1354 -80 OFFCURVE",
"1030 -80 CURVE SMOOTH",
"803 -80 OFFCURVE",
"635 -152 OFFCURVE",
"635 -251 CURVE SMOOTH",
"635 -331 OFFCURVE",
"736 -385 OFFCURVE",
"892 -385 CURVE SMOOTH",
"947 -385 OFFCURVE",
"994 -380 OFFCURVE",
"1033 -369 CURVE",
"994 -269 LINE",
"962 -273 OFFCURVE",
"930 -275 OFFCURVE",
"899 -275 CURVE SMOOTH",
"864 -275 OFFCURVE",
"836 -272 OFFCURVE",
"816 -265 CURVE",
"795 -259 OFFCURVE",
"785 -251 OFFCURVE",
"785 -242 CURVE SMOOTH",
"785 -231 OFFCURVE",
"804 -222 OFFCURVE",
"843 -213 CURVE SMOOTH",
"881 -204 OFFCURVE",
"945 -200 OFFCURVE",
"1034 -200 CURVE SMOOTH",
"1147 -200 OFFCURVE",
"1232 -209 OFFCURVE",
"1289 -228 CURVE SMOOTH",
"1346 -247 OFFCURVE",
"1374 -279 OFFCURVE",
"1374 -325 CURVE SMOOTH",
"1374 -355 OFFCURVE",
"1357 -382 OFFCURVE",
"1323 -405 CURVE SMOOTH",
"1255 -453 OFFCURVE",
"1127 -480 OFFCURVE",
"946 -480 CURVE SMOOTH",
"715 -480 OFFCURVE",
"476 -413 OFFCURVE",
"307 -294 CURVE",
"237 -393 LINE",
"285 -433 OFFCURVE",
"346 -468 OFFCURVE",
"419 -499 CURVE SMOOTH",
"565 -561 OFFCURVE",
"745 -600 OFFCURVE",
"944 -600 CURVE SMOOTH"
);
}
);
width = 1871;
}
);
note = uni1984;
unicode = 1984;
},
{
glyphname = uni1985;
lastChange = "2016-11-10 14:23:34 +0000";
layers = (
{
layerId = "24EFEC18-4C8B-448A-94CC-E79C5CDE5BAA";
paths = (
{
closed = 1;
nodes = (
"487 124 LINE",
"362 177 OFFCURVE",
"284 319 OFFCURVE",
"284 560 CURVE SMOOTH",
"284 831 OFFCURVE",
"405 980 OFFCURVE",
"626 980 CURVE SMOOTH",
"845 980 OFFCURVE",
"968 828 OFFCURVE",
"968 560 CURVE SMOOTH",
"968 319 OFFCURVE",
"890 177 OFFCURVE",
"765 124 CURVE",
"821 -10 LINE",
"1033 102 OFFCURVE",
"1152 298 OFFCURVE",
"1152 538 CURVE SMOOTH",
"1152 643 OFFCURVE",
"1129 741 OFFCURVE",
"1083 830 CURVE SMOOTH",
"991 1008 OFFCURVE",
"819 1118 OFFCURVE",
"626 1118 CURVE SMOOTH",
"527 1118 OFFCURVE",
"438 1093 OFFCURVE",
"358 1043 CURVE SMOOTH",
"197 942 OFFCURVE",
"100 755 OFFCURVE",
"100 538 CURVE SMOOTH",
"100 299 OFFCURVE",
"220 103 OFFCURVE",
"431 -10 CURVE"
);
}
);
width = 1252;
}
);
note = uni1985;
unicode = 1985;
},
{
glyphname = uni1986;
lastChange = "2016-11-10 14:23:34 +0000";
layers = (
{
layerId = "24EFEC18-4C8B-448A-94CC-E79C5CDE5BAA";
paths = (
{
closed = 1;
nodes = (
"489 129 LINE",
"438 157 OFFCURVE",
"397 193 OFFCURVE",
"366 236 CURVE SMOOTH",
"305 323 OFFCURVE",
"278 429 OFFCURVE",
"278 640 CURVE SMOOTH",
"278 721 LINE SMOOTH",
"278 767 OFFCURVE",
"292 810 OFFCURVE",
"319 850 CURVE SMOOTH",
"374 930 OFFCURVE",
"481 980 OFFCURVE",
"598 980 CURVE SMOOTH",
"817 980 OFFCURVE",
"940 828 OFFCURVE",
"940 560 CURVE SMOOTH",
"940 320 OFFCURVE",
"862 182 OFFCURVE",
"737 129 CURVE",
"793 -10 LINE",
"1002 101 OFFCURVE",
"1124 305 OFFCURVE",
"1124 548 CURVE SMOOTH",
"1124 663 OFFCURVE",
"1102 763 OFFCURVE",
"1058 849 CURVE SMOOTH",
"970 1021 OFFCURVE",
"801 1118 OFFCURVE",
"598 1118 CURVE SMOOTH",
"481 1118 OFFCURVE",
"377 1079 OFFCURVE",
"286 1002 CURVE",
"311 1439 OFFCURVE",
"421 1602 OFFCURVE",
"649 1602 CURVE SMOOTH",
"753 1602 OFFCURVE",
"862 1546 OFFCURVE",
"909 1461 CURVE",
"1042 1564 LINE",
"949 1681 OFFCURVE",
"827 1740 OFFCURVE",
"675 1740 CURVE SMOOTH",
"559 1740 OFFCURVE",
"458 1704 OFFCURVE",
"371 1631 CURVE SMOOTH",
"197 1486 OFFCURVE",
"100 1207 OFFCURVE",
"100 848 CURVE SMOOTH",
"100 672 LINE SMOOTH",
"100 312 OFFCURVE",
"208 98 OFFCURVE",
"433 -10 CURVE"
);
}
);
width = 1224;
}
);
note = uni1986;
unicode = 1986;
},
{
glyphname = uni1987;
lastChange = "2016-11-10 14:23:34 +0000";
layers = (
{
layerId = "24EFEC18-4C8B-448A-94CC-E79C5CDE5BAA";
paths = (
{
closed = 1;
nodes = (
"745 -570 OFFCURVE",
"850 -533 OFFCURVE",
"941 -459 CURVE SMOOTH",
"1121 -311 OFFCURVE",
"1224 -17 OFFCURVE",
"1224 339 CURVE SMOOTH",
"1224 824 OFFCURVE",
"1006 1118 OFFCURVE",
"643 1118 CURVE SMOOTH",
"544 1118 OFFCURVE",
"453 1092 OFFCURVE",
"369 1040 CURVE SMOOTH",
"201 935 OFFCURVE",
"100 737 OFFCURVE",
"100 493 CURVE SMOOTH",
"100 158 OFFCURVE",
"187 -20 OFFCURVE",
"354 -20 CURVE SMOOTH",
"423 -20 OFFCURVE",
"468 10 OFFCURVE",
"501 50 CURVE SMOOTH",
"533 89 OFFCURVE",
"552 139 OFFCURVE",
"569 179 CURVE SMOOTH",
"585 218 OFFCURVE",
"601 248 OFFCURVE",
"625 248 CURVE SMOOTH",
"639 248 OFFCURVE",
"652 235 OFFCURVE",
"664 209 CURVE SMOOTH",
"676 182 OFFCURVE",
"682 141 OFFCURVE",
"682 85 CURVE",
"679 0 LINE",
"829 68 LINE",
"832 137 LINE",
"832 292 OFFCURVE",
"766 386 OFFCURVE",
"646 386 CURVE SMOOTH",
"583 386 OFFCURVE",
"528 341 OFFCURVE",
"481 252 CURVE SMOOTH",
"454 201 OFFCURVE",
"432 166 OFFCURVE",
"417 147 CURVE SMOOTH",
"401 128 OFFCURVE",
"385 118 OFFCURVE",
"369 118 CURVE SMOOTH",
"340 118 OFFCURVE",
"318 149 OFFCURVE",
"305 212 CURVE SMOOTH",
"291 274 OFFCURVE",
"284 376 OFFCURVE",
"284 517 CURVE SMOOTH",
"284 804 OFFCURVE",
"415 980 OFFCURVE",
"639 980 CURVE SMOOTH",
"906 980 OFFCURVE",
"1040 766 OFFCURVE",
"1040 339 CURVE SMOOTH",
"1040 145 OFFCURVE",
"1025 -6 OFFCURVE",
"995 -114 CURVE SMOOTH",
"935 -331 OFFCURVE",
"813 -432 OFFCURVE",
"628 -432 CURVE SMOOTH",
"591 -432 OFFCURVE",
"522 -417 OFFCURVE",
"487 -397 CURVE",
"421 -530 LINE",
"480 -557 OFFCURVE",
"548 -570 OFFCURVE",
"624 -570 CURVE SMOOTH"
);
}
);
width = 1324;
}
);
note = uni1987;
unicode = 1987;
},
{
glyphname = uni1988;
lastChange = "2016-11-10 14:23:34 +0000";
layers = (
{
layerId = "24EFEC18-4C8B-448A-94CC-E79C5CDE5BAA";
paths = (
{
closed = 1;
nodes = (
"628 -20 OFFCURVE",
"722 4 OFFCURVE",
"807 53 CURVE SMOOTH",
"977 150 OFFCURVE",
"1083 342 OFFCURVE",
"1083 551 CURVE SMOOTH",
"1083 656 OFFCURVE",
"1059 752 OFFCURVE",
"1012 839 CURVE SMOOTH",
"917 1013 OFFCURVE",
"739 1118 OFFCURVE",
"540 1118 CURVE SMOOTH",
"471 1118 OFFCURVE",
"404 1104 OFFCURVE",
"339 1075 CURVE SMOOTH",
"210 1018 OFFCURVE",
"125 910 OFFCURVE",
"125 794 CURVE SMOOTH",
"125 686 OFFCURVE",
"211 596 OFFCURVE",
"334 571 CURVE",
"334 566 LINE",
"181 527 OFFCURVE",
"100 438 OFFCURVE",
"100 313 CURVE SMOOTH",
"100 248 OFFCURVE",
"119 190 OFFCURVE",
"157 139 CURVE SMOOTH",
"232 36 OFFCURVE",
"369 -20 OFFCURVE",
"525 -20 CURVE SMOOTH"
);
},
{
closed = 1;
nodes = (
"374 118 OFFCURVE",
"284 193 OFFCURVE",
"284 322 CURVE SMOOTH",
"284 433 OFFCURVE",
"374 496 OFFCURVE",
"525 496 CURVE SMOOTH",
"565 496 LINE",
"565 634 LINE",
"540 634 LINE SMOOTH",
"386 634 OFFCURVE",
"309 687 OFFCURVE",
"309 792 CURVE SMOOTH",
"309 912 OFFCURVE",
"400 980 OFFCURVE",
"563 980 CURVE SMOOTH",
"782 980 OFFCURVE",
"899 830 OFFCURVE",
"899 551 CURVE SMOOTH",
"899 270 OFFCURVE",
"783 118 OFFCURVE",
"566 118 CURVE SMOOTH"
);
}
);
width = 1183;
}
);
note = uni1988;
unicode = 1988;
},
{
glyphname = uni1989;
lastChange = "2016-11-10 14:23:34 +0000";
layers = (
{
layerId = "24EFEC18-4C8B-448A-94CC-E79C5CDE5BAA";
paths = (
{
closed = 1;
nodes = (
"646 -20 OFFCURVE",
"781 33 OFFCURVE",
"877 144 CURVE",
"976 35 OFFCURVE",
"1117 -20 OFFCURVE",
"1301 -20 CURVE SMOOTH",
"1398 -20 OFFCURVE",
"1485 4 OFFCURVE",
"1562 51 CURVE SMOOTH",
"1714 146 OFFCURVE",
"1802 328 OFFCURVE",
"1802 563 CURVE SMOOTH",
"1802 677 OFFCURVE",
"1782 775 OFFCURVE",
"1742 858 CURVE SMOOTH",
"1661 1023 OFFCURVE",
"1511 1118 OFFCURVE",
"1342 1118 CURVE SMOOTH",
"1205 1118 OFFCURVE",
"1088 1078 OFFCURVE",
"1008 961 CURVE",
"1138 881 LINE",
"1177 941 OFFCURVE",
"1243 980 OFFCURVE",
"1319 980 CURVE SMOOTH",
"1504 980 OFFCURVE",
"1618 824 OFFCURVE",
"1618 565 CURVE SMOOTH",
"1618 289 OFFCURVE",
"1500 118 OFFCURVE",
"1300 118 CURVE SMOOTH",
"1171 118 OFFCURVE",
"1021 204 OFFCURVE",
"970 303 CURVE",
"998 378 OFFCURVE",
"1012 462 OFFCURVE",
"1012 553 CURVE SMOOTH",
"1012 674 OFFCURVE",
"992 776 OFFCURVE",
"952 861 CURVE SMOOTH",
"871 1030 OFFCURVE",
"719 1118 OFFCURVE",
"518 1118 CURVE SMOOTH",
"363 1118 OFFCURVE",
"214 1046 OFFCURVE",
"118 915 CURVE",
"249 839 LINE",
"304 926 OFFCURVE",
"405 980 OFFCURVE",
"509 980 CURVE SMOOTH",
"709 980 OFFCURVE",
"828 828 OFFCURVE",
"828 555 CURVE SMOOTH",
"828 292 OFFCURVE",
"707 118 OFFCURVE",
"520 118 CURVE SMOOTH",
"391 118 OFFCURVE",
"257 212 OFFCURVE",
"212 313 CURVE",
"80 238 LINE",
"181 69 OFFCURVE",
"331 -20 OFFCURVE",
"511 -20 CURVE SMOOTH"
);
}
);
width = 1902;
}
);
note = uni1989;
unicode = 1989;
},
{
glyphname = uni198A;
lastChange = "2016-11-10 14:23:34 +0000";
layers = (
{
layerId = "24EFEC18-4C8B-448A-94CC-E79C5CDE5BAA";
paths = (
{
closed = 1;
nodes = (
"932 -20 OFFCURVE",
"1128 260 OFFCURVE",
"1128 821 CURVE SMOOTH",
"1128 1039 OFFCURVE",
"1134 1200 OFFCURVE",
"1145 1305 CURVE SMOOTH",
"1156 1410 OFFCURVE",
"1174 1485 OFFCURVE",
"1200 1532 CURVE SMOOTH",
"1226 1579 OFFCURVE",
"1264 1602 OFFCURVE",
"1313 1602 CURVE SMOOTH",
"1346 1602 OFFCURVE",
"1376 1597 OFFCURVE",
"1405 1587 CURVE",
"1472 1714 LINE",
"1423 1731 OFFCURVE",
"1381 1740 OFFCURVE",
"1344 1740 CURVE SMOOTH",
"1267 1740 OFFCURVE",
"1199 1707 OFFCURVE",
"1140 1642 CURVE SMOOTH",
"1021 1511 OFFCURVE",
"950 1251 OFFCURVE",
"950 951 CURVE SMOOTH",
"950 745 LINE SMOOTH",
"950 326 OFFCURVE",
"823 118 OFFCURVE",
"540 118 CURVE SMOOTH",
"372 118 OFFCURVE",
"284 199 OFFCURVE",
"284 336 CURVE SMOOTH",
"284 457 OFFCURVE",
"381 527 OFFCURVE",
"545 527 CURVE SMOOTH",
"605 525 LINE",
"605 646 LINE",
"524 646 OFFCURVE",
"462 653 OFFCURVE",
"417 666 CURVE SMOOTH",
"327 693 OFFCURVE",
"284 750 OFFCURVE",
"284 835 CURVE SMOOTH",
"284 922 OFFCURVE",
"359 980 OFFCURVE",
"507 980 CURVE SMOOTH",
"579 980 OFFCURVE",
"675 958 OFFCURVE",
"728 919 CURVE",
"796 1033 LINE",
"721 1084 OFFCURVE",
"600 1118 OFFCURVE",
"488 1118 CURVE SMOOTH",
"413 1118 OFFCURVE",
"345 1106 OFFCURVE",
"286 1081 CURVE SMOOTH",
"167 1031 OFFCURVE",
"100 938 OFFCURVE",
"100 835 CURVE SMOOTH",
"100 724 OFFCURVE",
"149 653 OFFCURVE",
"284 598 CURVE",
"168 546 OFFCURVE",
"100 446 OFFCURVE",
"100 327 CURVE SMOOTH",
"100 260 OFFCURVE",
"119 199 OFFCURVE",
"156 144 CURVE SMOOTH",
"231 33 OFFCURVE",
"367 -20 OFFCURVE",
"539 -20 CURVE SMOOTH"
);
}
);
width = 1272;
}
);
note = uni198A;
unicode = 198A;
},
{
glyphname = uni198B;
lastChange = "2016-11-10 14:23:34 +0000";
layers = (
{
layerId = "24EFEC18-4C8B-448A-94CC-E79C5CDE5BAA";
paths = (
{
closed = 1;
nodes = (
"774 -570 OFFCURVE",
"862 -554 OFFCURVE",
"938 -523 CURVE SMOOTH",
"1089 -460 OFFCURVE",
"1182 -326 OFFCURVE",
"1182 -174 CURVE SMOOTH",
"1182 -53 OFFCURVE",
"1108 48 OFFCURVE",
"977 104 CURVE",
"1094 221 OFFCURVE",
"1152 365 OFFCURVE",
"1152 538 CURVE SMOOTH",
"1152 643 OFFCURVE",
"1129 741 OFFCURVE",
"1083 830 CURVE SMOOTH",
"991 1008 OFFCURVE",
"819 1118 OFFCURVE",
"626 1118 CURVE SMOOTH",
"527 1118 OFFCURVE",
"438 1093 OFFCURVE",
"358 1043 CURVE SMOOTH",
"197 942 OFFCURVE",
"100 755 OFFCURVE",
"100 538 CURVE SMOOTH",
"100 299 OFFCURVE",
"220 103 OFFCURVE",
"431 -10 CURVE",
"487 124 LINE",
"362 177 OFFCURVE",
"284 319 OFFCURVE",
"284 560 CURVE SMOOTH",
"284 831 OFFCURVE",
"405 980 OFFCURVE",
"626 980 CURVE SMOOTH",
"845 980 OFFCURVE",
"968 828 OFFCURVE",
"968 560 CURVE SMOOTH",
"968 309 OFFCURVE",
"880 138 OFFCURVE",
"739 138 CURVE SMOOTH",
"718 138 LINE",
"696 137 LINE",
"696 -1 LINE",
"712 0 LINE",
"727 0 LINE SMOOTH",
"908 0 OFFCURVE",
"999 -59 OFFCURVE",
"999 -177 CURVE SMOOTH",
"999 -346 OFFCURVE",
"886 -432 OFFCURVE",
"674 -432 CURVE SMOOTH",
"530 -432 OFFCURVE",
"385 -357 OFFCURVE",
"297 -250 CURVE",
"176 -339 LINE",
"288 -480 OFFCURVE",
"493 -570 OFFCURVE",
"674 -570 CURVE SMOOTH"
);
}
);
width = 1252;
}
);
note = uni198B;
unicode = 198B;
},
{
glyphname = uni198C;
lastChange = "2016-11-10 14:23:34 +0000";
layers = (
{
layerId = "24EFEC18-4C8B-448A-94CC-E79C5CDE5BAA";
paths = (
{
closed = 1;
nodes = (
"746 -570 OFFCURVE",
"834 -554 OFFCURVE",
"910 -523 CURVE SMOOTH",
"1061 -460 OFFCURVE",
"1154 -326 OFFCURVE",
"1154 -174 CURVE SMOOTH",
"1154 -54 OFFCURVE",
"1085 35 OFFCURVE",
"947 94 CURVE",
"1059 206 OFFCURVE",
"1124 371 OFFCURVE",
"1124 548 CURVE SMOOTH",
"1124 663 OFFCURVE",
"1102 763 OFFCURVE",
"1058 849 CURVE SMOOTH",
"970 1021 OFFCURVE",
"801 1118 OFFCURVE",
"598 1118 CURVE SMOOTH",
"481 1118 OFFCURVE",
"377 1079 OFFCURVE",
"286 1002 CURVE",
"311 1439 OFFCURVE",
"421 1602 OFFCURVE",
"649 1602 CURVE SMOOTH",
"753 1602 OFFCURVE",
"862 1546 OFFCURVE",
"909 1461 CURVE",
"1042 1564 LINE",
"949 1681 OFFCURVE",
"827 1740 OFFCURVE",
"675 1740 CURVE SMOOTH",
"559 1740 OFFCURVE",
"458 1704 OFFCURVE",
"371 1631 CURVE SMOOTH",
"197 1486 OFFCURVE",
"100 1207 OFFCURVE",
"100 848 CURVE SMOOTH",
"100 672 LINE SMOOTH",
"100 312 OFFCURVE",
"208 98 OFFCURVE",
"433 -10 CURVE",
"489 129 LINE",
"438 157 OFFCURVE",
"397 193 OFFCURVE",
"366 236 CURVE SMOOTH",
"305 323 OFFCURVE",
"278 429 OFFCURVE",
"278 640 CURVE SMOOTH",
"278 734 LINE",
"286 873 OFFCURVE",
"422 980 OFFCURVE",
"598 980 CURVE SMOOTH",
"817 980 OFFCURVE",
"940 828 OFFCURVE",
"940 560 CURVE SMOOTH",
"940 482 OFFCURVE",
"930 411 OFFCURVE",
"909 346 CURVE SMOOTH",
"867 217 OFFCURVE",
"787 137 OFFCURVE",
"700 137 CURVE SMOOTH",
"668 137 LINE",
"668 -1 LINE",
"684 0 LINE",
"699 0 LINE SMOOTH",
"880 0 OFFCURVE",
"971 -59 OFFCURVE",
"971 -177 CURVE SMOOTH",
"971 -346 OFFCURVE",
"858 -432 OFFCURVE",
"646 -432 CURVE SMOOTH",
"502 -432 OFFCURVE",
"357 -357 OFFCURVE",
"269 -250 CURVE",
"148 -339 LINE",
"260 -480 OFFCURVE",
"465 -570 OFFCURVE",
"646 -570 CURVE SMOOTH"
);
}
);
width = 1224;
}
);
note = uni198C;
unicode = 198C;
},
{
glyphname = uni198D;
lastChange = "2016-11-10 14:23:34 +0000";
layers = (
{
layerId = "24EFEC18-4C8B-448A-94CC-E79C5CDE5BAA";
paths = (
{
closed = 1;
nodes = (
"727 -20 OFFCURVE",
"864 66 OFFCURVE",
"929 205 CURVE",
"997 65 OFFCURVE",
"1133 -20 OFFCURVE",
"1286 -20 CURVE SMOOTH",
"1377 -20 OFFCURVE",
"1458 3 OFFCURVE",
"1531 48 CURVE SMOOTH",
"1676 138 OFFCURVE",
"1760 312 OFFCURVE",
"1760 533 CURVE SMOOTH",
"1760 652 OFFCURVE",
"1740 755 OFFCURVE",
"1699 844 CURVE SMOOTH",
"1618 1021 OFFCURVE",
"1465 1118 OFFCURVE",
"1286 1118 CURVE SMOOTH",
"1197 1118 OFFCURVE",
"1118 1098 OFFCURVE",
"1047 1057 CURVE",
"1128 940 LINE",
"1176 967 OFFCURVE",
"1226 980 OFFCURVE",
"1278 980 CURVE SMOOTH",
"1469 980 OFFCURVE",
"1576 826 OFFCURVE",
"1576 535 CURVE SMOOTH",
"1576 272 OFFCURVE",
"1466 118 OFFCURVE",
"1281 118 CURVE SMOOTH",
"1128 118 OFFCURVE",
"1030 235 OFFCURVE",
"1015 435 CURVE",
"845 435 LINE",
"832 236 OFFCURVE",
"732 118 OFFCURVE",
"579 118 CURVE SMOOTH",
"392 118 OFFCURVE",
"284 272 OFFCURVE",
"284 535 CURVE SMOOTH",
"284 824 OFFCURVE",
"391 980 OFFCURVE",
"582 980 CURVE SMOOTH",
"634 980 OFFCURVE",
"684 967 OFFCURVE",
"732 940 CURVE",
"813 1057 LINE",
"742 1098 OFFCURVE",
"663 1118 OFFCURVE",
"574 1118 CURVE SMOOTH",
"484 1118 OFFCURVE",
"403 1094 OFFCURVE",
"331 1047 CURVE SMOOTH",
"186 952 OFFCURVE",
"100 770 OFFCURVE",
"100 533 CURVE SMOOTH",
"100 423 OFFCURVE",
"120 326 OFFCURVE",
"160 242 CURVE SMOOTH",
"239 74 OFFCURVE",
"391 -20 OFFCURVE",
"574 -20 CURVE SMOOTH"
);
}
);
width = 1860;
}
);
note = uni198D;
unicode = 198D;
},
{
glyphname = uni198E;
lastChange = "2016-11-10 14:23:34 +0000";
layers = (
{
layerId = "24EFEC18-4C8B-448A-94CC-E79C5CDE5BAA";
paths = (
{
closed = 1;
nodes = (
"851 -20 OFFCURVE",
"1035 206 OFFCURVE",
"1035 551 CURVE SMOOTH",
"1035 598 OFFCURVE",
"1031 645 OFFCURVE",
"1023 690 CURVE",
"1046 874 OFFCURVE",
"1141 980 OFFCURVE",
"1281 980 CURVE SMOOTH",
"1468 980 OFFCURVE",
"1576 826 OFFCURVE",
"1576 563 CURVE SMOOTH",
"1576 290 OFFCURVE",
"1459 118 OFFCURVE",
"1278 118 CURVE SMOOTH",
"1226 118 OFFCURVE",
"1176 131 OFFCURVE",
"1128 158 CURVE",
"1047 41 LINE",
"1118 0 OFFCURVE",
"1197 -20 OFFCURVE",
"1286 -20 CURVE SMOOTH",
"1379 -20 OFFCURVE",
"1462 4 OFFCURVE",
"1534 52 CURVE SMOOTH",
"1678 147 OFFCURVE",
"1760 330 OFFCURVE",
"1760 575 CURVE SMOOTH",
"1760 685 OFFCURVE",
"1740 781 OFFCURVE",
"1701 863 CURVE SMOOTH",
"1621 1027 OFFCURVE",
"1470 1118 OFFCURVE",
"1286 1118 CURVE SMOOTH",
"1145 1118 OFFCURVE",
"1009 1042 OFFCURVE",
"934 925 CURVE",
"854 1045 OFFCURVE",
"731 1118 OFFCURVE",
"570 1118 CURVE SMOOTH",
"477 1118 OFFCURVE",
"395 1094 OFFCURVE",
"324 1047 CURVE SMOOTH",
"181 952 OFFCURVE",
"100 770 OFFCURVE",
"100 551 CURVE SMOOTH",
"100 445 OFFCURVE",
"120 348 OFFCURVE",
"160 260 CURVE SMOOTH",
"239 84 OFFCURVE",
"390 -20 OFFCURVE",
"563 -20 CURVE SMOOTH"
);
},
{
closed = 1;
nodes = (
"389 118 OFFCURVE",
"284 283 OFFCURVE",
"284 551 CURVE SMOOTH",
"284 822 OFFCURVE",
"388 980 OFFCURVE",
"565 980 CURVE SMOOTH",
"749 980 OFFCURVE",
"851 826 OFFCURVE",
"851 551 CURVE SMOOTH",
"851 279 OFFCURVE",
"751 118 OFFCURVE",
"568 118 CURVE SMOOTH"
);
}
);
width = 1860;
}
);
note = uni198E;
unicode = 198E;
},
{
glyphname = uni198F;
lastChange = "2016-11-10 14:23:34 +0000";
layers = (
{
layerId = "24EFEC18-4C8B-448A-94CC-E79C5CDE5BAA";
paths = (
{
closed = 1;
nodes = (
"704 -570 OFFCURVE",
"813 -533 OFFCURVE",
"904 -460 CURVE SMOOTH",
"1086 -313 OFFCURVE",
"1189 -25 OFFCURVE",
"1189 347 CURVE SMOOTH",
"1189 495 OFFCURVE",
"1164 628 OFFCURVE",
"1113 747 CURVE SMOOTH",
"1012 983 OFFCURVE",
"818 1118 OFFCURVE",
"570 1118 CURVE SMOOTH",
"479 1118 OFFCURVE",
"398 1105 OFFCURVE",
"327 1078 CURVE SMOOTH",
"185 1025 OFFCURVE",
"100 929 OFFCURVE",
"100 838 CURVE SMOOTH",
"100 723 OFFCURVE",
"153 651 OFFCURVE",
"284 598 CURVE",
"165 546 OFFCURVE",
"100 447 OFFCURVE",
"100 331 CURVE SMOOTH",
"100 262 OFFCURVE",
"117 202 OFFCURVE",
"150 150 CURVE SMOOTH",
"217 45 OFFCURVE",
"346 -20 OFFCURVE",
"525 -20 CURVE SMOOTH",
"632 -20 OFFCURVE",
"715 3 OFFCURVE",
"816 58 CURVE",
"748 179 LINE",
"675 131 OFFCURVE",
"623 118 OFFCURVE",
"538 118 CURVE SMOOTH",
"382 118 OFFCURVE",
"284 201 OFFCURVE",
"284 336 CURVE SMOOTH",
"284 457 OFFCURVE",
"381 527 OFFCURVE",
"545 527 CURVE SMOOTH",
"605 525 LINE",
"605 646 LINE",
"593 646 LINE SMOOTH",
"374 646 OFFCURVE",
"284 707 OFFCURVE",
"284 822 CURVE SMOOTH",
"284 917 OFFCURVE",
"396 980 OFFCURVE",
"567 980 CURVE SMOOTH",
"863 980 OFFCURVE",
"1005 774 OFFCURVE",
"1005 347 CURVE SMOOTH",
"1005 148 OFFCURVE",
"990 -6 OFFCURVE",
"961 -115 CURVE SMOOTH",
"901 -333 OFFCURVE",
"778 -432 OFFCURVE",
"594 -432 CURVE SMOOTH",
"550 -432 OFFCURVE",
"503 -420 OFFCURVE",
"454 -397 CURVE",
"387 -530 LINE",
"450 -557 OFFCURVE",
"514 -570 OFFCURVE",
"579 -570 CURVE SMOOTH"
);
}
);
width = 1289;
}
);
note = uni198F;
unicode = 198F;
},
{
glyphname = uni1990;
lastChange = "2016-11-10 14:23:34 +0000";
layers = (
{
layerId = "24EFEC18-4C8B-448A-94CC-E79C5CDE5BAA";
paths = (
{
closed = 1;
nodes = (
"1372 -600 OFFCURVE",
"1456 -589 OFFCURVE",
"1525 -567 CURVE SMOOTH",
"1662 -523 OFFCURVE",
"1736 -443 OFFCURVE",
"1736 -342 CURVE SMOOTH",
"1736 -193 OFFCURVE",
"1587 -101 OFFCURVE",
"1323 -89 CURVE",
"1331 -72 OFFCURVE",
"1339 -49 OFFCURVE",
"1347 -20 CURVE",
"1422 -18 OFFCURVE",
"1492 10 OFFCURVE",
"1559 63 CURVE SMOOTH",
"1691 170 OFFCURVE",
"1771 360 OFFCURVE",
"1771 571 CURVE SMOOTH",
"1771 678 OFFCURVE",
"1754 773 OFFCURVE",
"1719 856 CURVE SMOOTH",
"1650 1021 OFFCURVE",
"1518 1118 OFFCURVE",
"1363 1118 CURVE SMOOTH",
"1309 1118 OFFCURVE",
"1259 1104 OFFCURVE",
"1214 1076 CURVE SMOOTH",
"1122 1020 OFFCURVE",
"1052 938 OFFCURVE",
"940 730 CURVE SMOOTH",
"740 359 LINE SMOOTH",
"688 262 OFFCURVE",
"646 198 OFFCURVE",
"613 166 CURVE SMOOTH",
"580 134 OFFCURVE",
"545 118 OFFCURVE",
"509 118 CURVE SMOOTH",
"370 118 OFFCURVE",
"284 276 OFFCURVE",
"284 529 CURVE SMOOTH",
"284 808 OFFCURVE",
"378 980 OFFCURVE",
"534 980 CURVE SMOOTH",
"615 980 OFFCURVE",
"679 948 OFFCURVE",
"724 883 CURVE",
"826 974 LINE",
"762 1061 OFFCURVE",
"662 1118 OFFCURVE",
"531 1118 CURVE SMOOTH",
"456 1118 OFFCURVE",
"386 1092 OFFCURVE",
"319 1041 CURVE SMOOTH",
"186 937 OFFCURVE",
"100 742 OFFCURVE",
"100 527 CURVE SMOOTH",
"100 420 OFFCURVE",
"117 326 OFFCURVE",
"152 243 CURVE SMOOTH",
"220 78 OFFCURVE",
"352 -20 OFFCURVE",
"508 -20 CURVE SMOOTH",
"562 -20 OFFCURVE",
"612 -6 OFFCURVE",
"658 22 CURVE SMOOTH",
"749 78 OFFCURVE",
"819 160 OFFCURVE",
"931 368 CURVE SMOOTH",
"1131 739 LINE SMOOTH",
"1184 836 OFFCURVE",
"1226 901 OFFCURVE",
"1259 933 CURVE SMOOTH",
"1292 964 OFFCURVE",
"1326 980 OFFCURVE",
"1362 980 CURVE SMOOTH",
"1407 980 OFFCURVE",
"1446 964 OFFCURVE",
"1480 933 CURVE SMOOTH",
"1547 869 OFFCURVE",
"1587 741 OFFCURVE",
"1587 569 CURVE SMOOTH",
"1587 290 OFFCURVE",
"1493 118 OFFCURVE",
"1337 118 CURVE SMOOTH",
"1256 118 OFFCURVE",
"1192 150 OFFCURVE",
"1147 215 CURVE",
"1045 124 LINE",
"1095 57 OFFCURVE",
"1160 14 OFFCURVE",
"1239 -7 CURVE",
"1226 -57 OFFCURVE",
"1205 -112 OFFCURVE",
"1176 -173 CURVE",
"1199 -207 LINE",
"1339 -211 OFFCURVE",
"1435 -223 OFFCURVE",
"1486 -242 CURVE SMOOTH",
"1537 -262 OFFCURVE",
"1562 -292 OFFCURVE",
"1562 -331 CURVE SMOOTH",
"1562 -420 OFFCURVE",
"1451 -465 OFFCURVE",
"1268 -465 CURVE SMOOTH",
"1073 -465 OFFCURVE",
"829 -418 OFFCURVE",
"740 -370 CURVE",
"681 -487 LINE",
"833 -558 OFFCURVE",
"1052 -600 OFFCURVE",
"1272 -600 CURVE SMOOTH"
);
}
);
width = 1871;
}
);
note = uni1990;
unicode = 1990;
},
{
glyphname = uni1991;
lastChange = "2016-11-10 14:23:34 +0000";
layers = (
{
layerId = "24EFEC18-4C8B-448A-94CC-E79C5CDE5BAA";
paths = (
{
closed = 1;
nodes = (
"914 -20 OFFCURVE",
"1035 33 OFFCURVE",
"1110 104 CURVE SMOOTH",
"1185 175 OFFCURVE",
"1214 263 OFFCURVE",
"1214 334 CURVE SMOOTH",
"1214 451 OFFCURVE",
"1147 542 OFFCURVE",
"1026 597 CURVE",
"1151 644 OFFCURVE",
"1214 724 OFFCURVE",
"1214 835 CURVE SMOOTH",
"1214 886 OFFCURVE",
"1198 934 OFFCURVE",
"1166 978 CURVE SMOOTH",
"1101 1065 OFFCURVE",
"978 1118 OFFCURVE",
"826 1118 CURVE SMOOTH",
"713 1118 OFFCURVE",
"591 1084 OFFCURVE",
"518 1033 CURVE",
"586 919 LINE",
"639 956 OFFCURVE",
"734 980 OFFCURVE",
"807 980 CURVE SMOOTH",
"955 980 OFFCURVE",
"1030 922 OFFCURVE",
"1030 835 CURVE SMOOTH",
"1030 718 OFFCURVE",
"951 656 OFFCURVE",
"775 649 CURVE SMOOTH",
"708 646 LINE",
"708 525 LINE",
"769 527 LINE SMOOTH",
"933 527 OFFCURVE",
"1030 457 OFFCURVE",
"1030 336 CURVE SMOOTH",
"1030 197 OFFCURVE",
"926 118 OFFCURVE",
"731 118 CURVE SMOOTH",
"642 118 OFFCURVE",
"563 146 OFFCURVE",
"496 201 CURVE SMOOTH",
"360 312 OFFCURVE",
"284 532 OFFCURVE",
"284 821 CURVE SMOOTH",
"284 1342 OFFCURVE",
"422 1602 OFFCURVE",
"697 1602 CURVE SMOOTH",
"797 1602 OFFCURVE",
"898 1546 OFFCURVE",
"945 1461 CURVE",
"1078 1564 LINE",
"990 1676 OFFCURVE",
"853 1740 OFFCURVE",
"700 1740 CURVE SMOOTH",
"592 1740 OFFCURVE",
"492 1700 OFFCURVE",
"400 1620 CURVE SMOOTH",
"216 1459 OFFCURVE",
"100 1153 OFFCURVE",
"100 821 CURVE SMOOTH",
"100 662 OFFCURVE",
"126 518 OFFCURVE",
"178 389 CURVE SMOOTH",
"281 131 OFFCURVE",
"480 -20 OFFCURVE",
"729 -20 CURVE SMOOTH"
);
}
);
width = 1314;
}
);
note = uni1991;
unicode = 1991;
},
{
glyphname = uni1992;
lastChange = "2016-11-10 14:23:34 +0000";
layers = (
{
layerId = "24EFEC18-4C8B-448A-94CC-E79C5CDE5BAA";
paths = (
{
closed = 1;
nodes = (
"619 -20 OFFCURVE",
"715 45 OFFCURVE",
"766 176 CURVE",
"817 45 OFFCURVE",
"914 -20 OFFCURVE",
"1055 -20 CURVE SMOOTH",
"1287 -20 OFFCURVE",
"1433 172 OFFCURVE",
"1433 473 CURVE SMOOTH",
"1433 599 OFFCURVE",
"1404 711 OFFCURVE",
"1345 809 CURVE SMOOTH",
"1227 1004 OFFCURVE",
"1011 1118 OFFCURVE",
"768 1118 CURVE SMOOTH",
"644 1118 OFFCURVE",
"531 1091 OFFCURVE",
"428 1037 CURVE SMOOTH",
"222 929 OFFCURVE",
"100 724 OFFCURVE",
"100 473 CURVE SMOOTH",
"100 172 OFFCURVE",
"245 -20 OFFCURVE",
"478 -20 CURVE SMOOTH"
);
},
{
closed = 1;
nodes = (
"343 118 OFFCURVE",
"284 240 OFFCURVE",
"284 485 CURVE SMOOTH",
"284 793 OFFCURVE",
"465 980 OFFCURVE",
"768 980 CURVE SMOOTH",
"1064 980 OFFCURVE",
"1249 789 OFFCURVE",
"1249 485 CURVE SMOOTH",
"1249 240 OFFCURVE",
"1190 118 OFFCURVE",
"1071 118 CURVE SMOOTH",
"945 118 OFFCURVE",
"872 222 OFFCURVE",
"852 430 CURVE",
"681 430 LINE",
"661 222 OFFCURVE",
"588 118 OFFCURVE",
"462 118 CURVE SMOOTH"
);
}
);
width = 1533;
}
);
note = uni1992;
unicode = 1992;
},
{
glyphname = uni1993;
lastChange = "2016-11-10 14:23:34 +0000";
layers = (
{
layerId = "24EFEC18-4C8B-448A-94CC-E79C5CDE5BAA";
paths = (
{
closed = 1;
nodes = (
"666 -570 OFFCURVE",
"754 -554 OFFCURVE",
"830 -523 CURVE SMOOTH",
"981 -460 OFFCURVE",
"1074 -326 OFFCURVE",
"1074 -174 CURVE SMOOTH",
"1074 -113 OFFCURVE",
"1057 -56 OFFCURVE",
"1024 -5 CURVE SMOOTH",
"957 98 OFFCURVE",
"833 158 OFFCURVE",
"686 158 CURVE SMOOTH",
"641 158 OFFCURVE",
"595 153 OFFCURVE",
"546 143 CURVE SMOOTH",
"497 133 OFFCURVE",
"458 128 OFFCURVE",
"428 128 CURVE SMOOTH",
"385 128 OFFCURVE",
"350 166 OFFCURVE",
"324 243 CURVE SMOOTH",
"297 320 OFFCURVE",
"284 420 OFFCURVE",
"284 545 CURVE SMOOTH",
"284 842 OFFCURVE",
"385 980 OFFCURVE",
"609 980 CURVE SMOOTH",
"718 980 OFFCURVE",
"802 933 OFFCURVE",
"861 839 CURVE",
"994 942 LINE",
"893 1058 OFFCURVE",
"773 1118 OFFCURVE",
"609 1118 CURVE SMOOTH",
"516 1118 OFFCURVE",
"430 1092 OFFCURVE",
"352 1039 CURVE SMOOTH",
"195 934 OFFCURVE",
"100 741 OFFCURVE",
"100 533 CURVE SMOOTH",
"100 430 OFFCURVE",
"113 337 OFFCURVE",
"140 254 CURVE SMOOTH",
"193 88 OFFCURVE",
"292 -10 OFFCURVE",
"400 -10 CURVE SMOOTH",
"446 -10 OFFCURVE",
"496 -5 OFFCURVE",
"549 5 CURVE SMOOTH",
"602 15 OFFCURVE",
"642 20 OFFCURVE",
"669 20 CURVE SMOOTH",
"802 20 OFFCURVE",
"891 -60 OFFCURVE",
"891 -177 CURVE SMOOTH",
"891 -346 OFFCURVE",
"778 -432 OFFCURVE",
"566 -432 CURVE SMOOTH",
"422 -432 OFFCURVE",
"277 -357 OFFCURVE",
"189 -250 CURVE",
"68 -339 LINE",
"180 -480 OFFCURVE",
"385 -570 OFFCURVE",
"566 -570 CURVE SMOOTH"
);
}
);
width = 1179;
}
);
note = uni1993;
unicode = 1993;
},
{
glyphname = uni1994;
lastChange = "2016-11-10 14:23:34 +0000";
layers = (
{
layerId = "24EFEC18-4C8B-448A-94CC-E79C5CDE5BAA";
paths = (
{
closed = 1;
nodes = (
"984 -20 OFFCURVE",
"1156 244 OFFCURVE",
"1156 821 CURVE SMOOTH",
"1156 1040 OFFCURVE",
"1162 1202 OFFCURVE",
"1173 1307 CURVE SMOOTH",
"1184 1412 OFFCURVE",
"1202 1487 OFFCURVE",
"1228 1533 CURVE SMOOTH",
"1254 1579 OFFCURVE",
"1292 1602 OFFCURVE",
"1341 1602 CURVE SMOOTH",
"1374 1602 OFFCURVE",
"1404 1597 OFFCURVE",
"1433 1587 CURVE",
"1500 1714 LINE",
"1451 1731 OFFCURVE",
"1409 1740 OFFCURVE",
"1372 1740 CURVE SMOOTH",
"1295 1740 OFFCURVE",
"1227 1707 OFFCURVE",
"1168 1642 CURVE SMOOTH",
"1049 1511 OFFCURVE",
"978 1251 OFFCURVE",
"978 951 CURVE SMOOTH",
"978 745 LINE SMOOTH",
"978 582 OFFCURVE",
"966 457 OFFCURVE",
"943 370 CURVE SMOOTH",
"896 195 OFFCURVE",
"798 118 OFFCURVE",
"618 118 CURVE SMOOTH",
"405 118 OFFCURVE",
"284 271 OFFCURVE",
"284 543 CURVE SMOOTH",
"284 766 OFFCURVE",
"347 907 OFFCURVE",
"487 976 CURVE",
"431 1108 LINE",
"227 1005 OFFCURVE",
"100 784 OFFCURVE",
"100 545 CURVE SMOOTH",
"100 440 OFFCURVE",
"122 345 OFFCURVE",
"167 259 CURVE SMOOTH",
"256 86 OFFCURVE",
"427 -20 OFFCURVE",
"612 -20 CURVE SMOOTH"
);
}
);
width = 1300;
}
);
note = uni1994;
unicode = 1994;
},
{
glyphname = uni1995;
lastChange = "2016-11-10 14:23:34 +0000";
layers = (
{
layerId = "24EFEC18-4C8B-448A-94CC-E79C5CDE5BAA";
paths = (
{
closed = 1;
nodes = (
"801 -20 OFFCURVE",
"990 31 OFFCURVE",
"1159 133 CURVE",
"1284 31 OFFCURVE",
"1416 -20 OFFCURVE",
"1555 -20 CURVE SMOOTH",
"1628 -20 OFFCURVE",
"1680 -13 OFFCURVE",
"1747 18 CURVE",
"1687 139 LINE",
"1650 125 OFFCURVE",
"1608 118 OFFCURVE",
"1560 118 CURVE SMOOTH",
"1467 118 OFFCURVE",
"1378 156 OFFCURVE",
"1293 231 CURVE",
"1452 376 OFFCURVE",
"1532 548 OFFCURVE",
"1532 749 CURVE SMOOTH",
"1532 822 OFFCURVE",
"1519 886 OFFCURVE",
"1492 941 CURVE SMOOTH",
"1439 1051 OFFCURVE",
"1325 1118 OFFCURVE",
"1198 1118 CURVE SMOOTH",
"1134 1118 OFFCURVE",
"1077 1102 OFFCURVE",
"1027 1070 CURVE SMOOTH",
"927 1005 OFFCURVE",
"871 885 OFFCURVE",
"871 748 CURVE SMOOTH",
"871 553 OFFCURVE",
"940 377 OFFCURVE",
"1053 240 CURVE",
"916 159 OFFCURVE",
"761 118 OFFCURVE",
"590 118 CURVE SMOOTH",
"390 118 OFFCURVE",
"284 197 OFFCURVE",
"284 336 CURVE SMOOTH",
"284 457 OFFCURVE",
"381 527 OFFCURVE",
"545 527 CURVE SMOOTH",
"605 525 LINE",
"605 646 LINE",
"593 646 LINE SMOOTH",
"458 646 OFFCURVE",
"395 664 OFFCURVE",
"352 695 CURVE SMOOTH",
"308 726 OFFCURVE",
"284 770 OFFCURVE",
"284 835 CURVE SMOOTH",
"284 922 OFFCURVE",
"359 980 OFFCURVE",
"507 980 CURVE SMOOTH",
"579 980 OFFCURVE",
"675 958 OFFCURVE",
"728 919 CURVE",
"796 1033 LINE",
"721 1084 OFFCURVE",
"600 1118 OFFCURVE",
"488 1118 CURVE SMOOTH",
"411 1118 OFFCURVE",
"343 1106 OFFCURVE",
"284 1081 CURVE SMOOTH",
"167 1032 OFFCURVE",
"100 942 OFFCURVE",
"100 843 CURVE SMOOTH",
"100 727 OFFCURVE",
"156 651 OFFCURVE",
"284 598 CURVE",
"165 546 OFFCURVE",
"100 449 OFFCURVE",
"100 333 CURVE SMOOTH",
"100 260 OFFCURVE",
"121 197 OFFCURVE",
"162 142 CURVE SMOOTH",
"244 33 OFFCURVE",
"392 -20 OFFCURVE",
"591 -20 CURVE SMOOTH"
);
},
{
closed = 1;
nodes = (
"1100 474 OFFCURVE",
"1055 613 OFFCURVE",
"1055 763 CURVE SMOOTH",
"1055 915 OFFCURVE",
"1102 980 OFFCURVE",
"1198 980 CURVE SMOOTH",
"1306 980 OFFCURVE",
"1348 909 OFFCURVE",
"1348 745 CURVE SMOOTH",
"1348 588 OFFCURVE",
"1295 455 OFFCURVE",
"1189 346 CURVE"
);
}
);
width = 1707;
}
);
note = uni1995;
unicode = 1995;
},
{
glyphname = uni1996;
lastChange = "2016-11-10 14:23:34 +0000";
layers = (
{
layerId = "24EFEC18-4C8B-448A-94CC-E79C5CDE5BAA";
paths = (
{
closed = 1;
nodes = (
"1544 -600 OFFCURVE",
"1763 -558 OFFCURVE",
"1916 -487 CURVE",
"1857 -370 LINE",
"1761 -419 OFFCURVE",
"1520 -465 OFFCURVE",
"1329 -465 CURVE SMOOTH",
"1149 -465 OFFCURVE",
"1035 -420 OFFCURVE",
"1035 -331 CURVE SMOOTH",
"1035 -292 OFFCURVE",
"1060 -262 OFFCURVE",
"1111 -242 CURVE SMOOTH",
"1162 -223 OFFCURVE",
"1257 -211 OFFCURVE",
"1398 -207 CURVE",
"1421 -173 LINE",
"1396 -124 OFFCURVE",
"1376 -73 OFFCURVE",
"1361 -19 CURVE",
"1434 -14 OFFCURVE",
"1503 16 OFFCURVE",
"1567 70 CURVE SMOOTH",
"1694 178 OFFCURVE",
"1771 363 OFFCURVE",
"1771 571 CURVE SMOOTH",
"1771 678 OFFCURVE",
"1754 773 OFFCURVE",
"1719 856 CURVE SMOOTH",
"1650 1021 OFFCURVE",
"1518 1118 OFFCURVE",
"1363 1118 CURVE SMOOTH",
"1309 1118 OFFCURVE",
"1259 1104 OFFCURVE",
"1214 1076 CURVE SMOOTH",
"1122 1020 OFFCURVE",
"1052 938 OFFCURVE",
"940 730 CURVE SMOOTH",
"740 359 LINE SMOOTH",
"688 262 OFFCURVE",
"646 198 OFFCURVE",
"613 166 CURVE SMOOTH",
"580 134 OFFCURVE",
"545 118 OFFCURVE",
"509 118 CURVE SMOOTH",
"370 118 OFFCURVE",
"284 276 OFFCURVE",
"284 529 CURVE SMOOTH",
"284 808 OFFCURVE",
"378 980 OFFCURVE",
"534 980 CURVE SMOOTH",
"615 980 OFFCURVE",
"679 948 OFFCURVE",
"724 883 CURVE",
"826 974 LINE",
"762 1061 OFFCURVE",
"662 1118 OFFCURVE",
"531 1118 CURVE SMOOTH",
"456 1118 OFFCURVE",
"386 1092 OFFCURVE",
"319 1041 CURVE SMOOTH",
"186 937 OFFCURVE",
"100 742 OFFCURVE",
"100 527 CURVE SMOOTH",
"100 420 OFFCURVE",
"117 326 OFFCURVE",
"152 243 CURVE SMOOTH",
"220 78 OFFCURVE",
"352 -20 OFFCURVE",
"508 -20 CURVE SMOOTH",
"562 -20 OFFCURVE",
"612 -6 OFFCURVE",
"658 22 CURVE SMOOTH",
"749 78 OFFCURVE",
"819 160 OFFCURVE",
"931 368 CURVE SMOOTH",
"1131 739 LINE SMOOTH",
"1184 836 OFFCURVE",
"1226 901 OFFCURVE",
"1259 933 CURVE SMOOTH",
"1292 964 OFFCURVE",
"1326 980 OFFCURVE",
"1362 980 CURVE SMOOTH",
"1407 980 OFFCURVE",
"1446 964 OFFCURVE",
"1480 933 CURVE SMOOTH",
"1547 869 OFFCURVE",
"1587 741 OFFCURVE",
"1587 569 CURVE SMOOTH",
"1587 290 OFFCURVE",
"1493 118 OFFCURVE",
"1337 118 CURVE SMOOTH",
"1256 118 OFFCURVE",
"1192 150 OFFCURVE",
"1147 215 CURVE",
"1045 124 LINE",
"1096 55 OFFCURVE",
"1163 10 OFFCURVE",
"1247 -9 CURVE",
"1254 -38 OFFCURVE",
"1263 -65 OFFCURVE",
"1274 -89 CURVE",
"1010 -100 OFFCURVE",
"861 -193 OFFCURVE",
"861 -342 CURVE SMOOTH",
"861 -393 OFFCURVE",
"879 -437 OFFCURVE",
"915 -476 CURVE SMOOTH",
"987 -554 OFFCURVE",
"1128 -600 OFFCURVE",
"1325 -600 CURVE SMOOTH"
);
}
);
width = 1871;
}
);
note = uni1996;
unicode = 1996;
},
{
glyphname = uni1997;
lastChange = "2016-11-10 14:23:34 +0000";
layers = (
{
layerId = "24EFEC18-4C8B-448A-94CC-E79C5CDE5BAA";
paths = (
{
closed = 1;
nodes = (
"1468 -600 OFFCURVE",
"1760 -191 OFFCURVE",
"1760 556 CURVE SMOOTH",
"1760 565 LINE SMOOTH",
"1760 677 OFFCURVE",
"1740 775 OFFCURVE",
"1700 858 CURVE SMOOTH",
"1619 1025 OFFCURVE",
"1467 1118 OFFCURVE",
"1286 1118 CURVE SMOOTH",
"1138 1118 OFFCURVE",
"998 1033 OFFCURVE",
"929 893 CURVE",
"865 1029 OFFCURVE",
"725 1118 OFFCURVE",
"574 1118 CURVE SMOOTH",
"482 1118 OFFCURVE",
"400 1095 OFFCURVE",
"328 1050 CURVE SMOOTH",
"183 959 OFFCURVE",
"100 786 OFFCURVE",
"100 565 CURVE SMOOTH",
"100 446 OFFCURVE",
"120 343 OFFCURVE",
"161 255 CURVE SMOOTH",
"242 78 OFFCURVE",
"394 -20 OFFCURVE",
"574 -20 CURVE SMOOTH",
"663 -20 OFFCURVE",
"742 0 OFFCURVE",
"813 41 CURVE",
"732 158 LINE",
"684 131 OFFCURVE",
"634 118 OFFCURVE",
"582 118 CURVE SMOOTH",
"391 118 OFFCURVE",
"284 272 OFFCURVE",
"284 563 CURVE SMOOTH",
"284 826 OFFCURVE",
"394 980 OFFCURVE",
"579 980 CURVE SMOOTH",
"732 980 OFFCURVE",
"830 863 OFFCURVE",
"845 663 CURVE",
"1015 663 LINE",
"1028 862 OFFCURVE",
"1128 980 OFFCURVE",
"1281 980 CURVE SMOOTH",
"1468 980 OFFCURVE",
"1576 826 OFFCURVE",
"1576 563 CURVE SMOOTH",
"1576 274 OFFCURVE",
"1469 118 OFFCURVE",
"1278 118 CURVE SMOOTH",
"1226 118 OFFCURVE",
"1176 131 OFFCURVE",
"1128 158 CURVE",
"1047 41 LINE",
"1118 0 OFFCURVE",
"1197 -20 OFFCURVE",
"1286 -20 CURVE SMOOTH",
"1375 -20 OFFCURVE",
"1457 4 OFFCURVE",
"1532 53 CURVE",
"1447 -318 OFFCURVE",
"1265 -480 OFFCURVE",
"948 -480 CURVE SMOOTH",
"840 -480 OFFCURVE",
"757 -469 OFFCURVE",
"698 -446 CURVE SMOOTH",
"639 -423 OFFCURVE",
"610 -390 OFFCURVE",
"610 -345 CURVE SMOOTH",
"610 -248 OFFCURVE",
"703 -205 OFFCURVE",
"890 -205 CURVE SMOOTH",
"947 -205 OFFCURVE",
"991 -209 OFFCURVE",
"1024 -218 CURVE SMOOTH",
"1057 -227 OFFCURVE",
"1073 -240 OFFCURVE",
"1073 -255 CURVE SMOOTH",
"1073 -290 OFFCURVE",
"1026 -307 OFFCURVE",
"957 -307 CURVE",
"854 -301 LINE",
"883 -413 LINE",
"953 -417 LINE",
"1120 -417 OFFCURVE",
"1223 -348 OFFCURVE",
"1223 -253 CURVE SMOOTH",
"1223 -149 OFFCURVE",
"1090 -85 OFFCURVE",
"881 -85 CURVE SMOOTH",
"798 -85 OFFCURVE",
"725 -96 OFFCURVE",
"662 -119 CURVE SMOOTH",
"535 -165 OFFCURVE",
"460 -254 OFFCURVE",
"460 -346 CURVE SMOOTH",
"460 -509 OFFCURVE",
"631 -600 OFFCURVE",
"935 -600 CURVE SMOOTH"
);
}
);
width = 1860;
}
);
note = uni1997;
unicode = 1997;
},
{
glyphname = uni1998;
lastChange = "2016-11-10 14:23:34 +0000";
layers = (
{
layerId = "24EFEC18-4C8B-448A-94CC-E79C5CDE5BAA";
paths = (
{
closed = 1;
nodes = (
"618 -20 OFFCURVE",
"704 3 OFFCURVE",
"779 48 CURVE SMOOTH",
"928 139 OFFCURVE",
"1012 316 OFFCURVE",
"1012 553 CURVE SMOOTH",
"1012 615 OFFCURVE",
"1007 672 OFFCURVE",
"997 723 CURVE",
"1049 895 OFFCURVE",
"1158 980 OFFCURVE",
"1299 980 CURVE SMOOTH",
"1496 980 OFFCURVE",
"1618 824 OFFCURVE",
"1618 559 CURVE SMOOTH",
"1618 278 OFFCURVE",
"1523 118 OFFCURVE",
"1367 118 CURVE SMOOTH",
"1286 118 OFFCURVE",
"1222 150 OFFCURVE",
"1177 215 CURVE",
"1075 124 LINE",
"1139 37 OFFCURVE",
"1239 -20 OFFCURVE",
"1370 -20 CURVE SMOOTH",
"1453 -20 OFFCURVE",
"1528 4 OFFCURVE",
"1594 53 CURVE SMOOTH",
"1725 150 OFFCURVE",
"1802 336 OFFCURVE",
"1802 553 CURVE SMOOTH",
"1802 670 OFFCURVE",
"1782 772 OFFCURVE",
"1742 857 CURVE SMOOTH",
"1662 1027 OFFCURVE",
"1511 1118 OFFCURVE",
"1320 1118 CURVE SMOOTH",
"1156 1118 OFFCURVE",
"1017 1046 OFFCURVE",
"918 926 CURVE",
"832 1054 OFFCURVE",
"699 1118 OFFCURVE",
"518 1118 CURVE SMOOTH",
"363 1118 OFFCURVE",
"214 1046 OFFCURVE",
"118 915 CURVE",
"249 839 LINE",
"304 926 OFFCURVE",
"405 980 OFFCURVE",
"509 980 CURVE SMOOTH",
"709 980 OFFCURVE",
"828 828 OFFCURVE",
"828 555 CURVE SMOOTH",
"828 292 OFFCURVE",
"707 118 OFFCURVE",
"520 118 CURVE SMOOTH",
"391 118 OFFCURVE",
"257 212 OFFCURVE",
"212 313 CURVE",
"80 238 LINE",
"180 71 OFFCURVE",
"337 -20 OFFCURVE",
"521 -20 CURVE SMOOTH"
);
}
);
width = 1902;
}
);
note = uni1998;
unicode = 1998;
},
{
glyphname = uni1999;
lastChange = "2016-11-10 14:23:34 +0000";
layers = (
{
layerId = "24EFEC18-4C8B-448A-94CC-E79C5CDE5BAA";
paths = (
{
closed = 1;
nodes = (
"733 -570 OFFCURVE",
"818 -548 OFFCURVE",
"893 -503 CURVE SMOOTH",
"1044 -414 OFFCURVE",
"1130 -243 OFFCURVE",
"1130 -27 CURVE SMOOTH",
"1130 78 OFFCURVE",
"1112 169 OFFCURVE",
"1077 245 CURVE",
"1127 336 OFFCURVE",
"1152 438 OFFCURVE",
"1152 550 CURVE SMOOTH",
"1152 793 OFFCURVE",
"1029 997 OFFCURVE",
"821 1108 CURVE",
"765 976 LINE",
"890 923 OFFCURVE",
"968 785 OFFCURVE",
"968 545 CURVE SMOOTH",
"968 498 OFFCURVE",
"964 451 OFFCURVE",
"955 405 CURVE",
"869 474 OFFCURVE",
"763 508 OFFCURVE",
"636 508 CURVE SMOOTH",
"521 508 OFFCURVE",
"399 468 OFFCURVE",
"302 379 CURVE",
"290 428 OFFCURVE",
"284 483 OFFCURVE",
"284 545 CURVE SMOOTH",
"284 785 OFFCURVE",
"362 923 OFFCURVE",
"487 976 CURVE",
"431 1108 LINE",
"230 1000 OFFCURVE",
"100 787 OFFCURVE",
"100 550 CURVE SMOOTH",
"100 441 OFFCURVE",
"123 344 OFFCURVE",
"168 257 CURVE SMOOTH",
"259 84 OFFCURVE",
"431 -20 OFFCURVE",
"626 -20 CURVE SMOOTH",
"743 -20 OFFCURVE",
"846 14 OFFCURVE",
"937 83 CURVE",
"943 50 OFFCURVE",
"946 14 OFFCURVE",
"946 -25 CURVE SMOOTH",
"946 -264 OFFCURVE",
"821 -432 OFFCURVE",
"638 -432 CURVE SMOOTH",
"509 -432 OFFCURVE",
"375 -338 OFFCURVE",
"330 -237 CURVE",
"198 -312 LINE",
"298 -479 OFFCURVE",
"455 -570 OFFCURVE",
"639 -570 CURVE SMOOTH"
);
},
{
closed = 1;
nodes = (
"513 118 OFFCURVE",
"427 156 OFFCURVE",
"368 231 CURVE",
"425 316 OFFCURVE",
"526 370 OFFCURVE",
"627 370 CURVE SMOOTH",
"741 370 OFFCURVE",
"826 324 OFFCURVE",
"883 233 CURVE",
"824 156 OFFCURVE",
"739 118 OFFCURVE",
"626 118 CURVE SMOOTH"
);
}
);
width = 1252;
}
);
note = uni1999;
unicode = 1999;
},
{
glyphname = uni199A;
lastChange = "2016-11-10 14:23:34 +0000";
layers = (
{
layerId = "24EFEC18-4C8B-448A-94CC-E79C5CDE5BAA";
paths = (
{
closed = 1;
nodes = (
"708 -20 OFFCURVE",
"818 12 OFFCURVE",
"914 76 CURVE SMOOTH",
"1105 204 OFFCURVE",
"1214 446 OFFCURVE",
"1214 733 CURVE SMOOTH",
"1214 961 OFFCURVE",
"1129 1337 OFFCURVE",
"1032 1464 CURVE",
"958 1448 LINE",
"917 1407 OFFCURVE",
"767 1373 OFFCURVE",
"626 1373 CURVE SMOOTH",
"535 1373 OFFCURVE",
"463 1383 OFFCURVE",
"411 1404 CURVE SMOOTH",
"358 1425 OFFCURVE",
"332 1453 OFFCURVE",
"332 1490 CURVE SMOOTH",
"332 1529 OFFCURVE",
"359 1558 OFFCURVE",
"412 1579 CURVE SMOOTH",
"465 1600 OFFCURVE",
"537 1610 OFFCURVE",
"626 1610 CURVE SMOOTH",
"745 1610 OFFCURVE",
"831 1595 OFFCURVE",
"886 1565 CURVE",
"961 1680 LINE",
"880 1720 OFFCURVE",
"769 1740 OFFCURVE",
"630 1740 CURVE SMOOTH",
"535 1740 OFFCURVE",
"451 1729 OFFCURVE",
"378 1708 CURVE SMOOTH",
"232 1665 OFFCURVE",
"152 1586 OFFCURVE",
"152 1489 CURVE SMOOTH",
"152 1338 OFFCURVE",
"339 1240 OFFCURVE",
"630 1240 CURVE SMOOTH",
"778 1240 OFFCURVE",
"893 1262 OFFCURVE",
"974 1306 CURVE",
"1006 1199 OFFCURVE",
"1030 986 OFFCURVE",
"1030 787 CURVE SMOOTH",
"1030 331 OFFCURVE",
"886 118 OFFCURVE",
"583 118 CURVE SMOOTH",
"388 118 OFFCURVE",
"284 197 OFFCURVE",
"284 336 CURVE SMOOTH",
"284 457 OFFCURVE",
"381 527 OFFCURVE",
"545 527 CURVE SMOOTH",
"606 525 LINE",
"606 646 LINE",
"539 649 LINE SMOOTH",
"362 657 OFFCURVE",
"284 718 OFFCURVE",
"284 835 CURVE SMOOTH",
"284 922 OFFCURVE",
"359 980 OFFCURVE",
"507 980 CURVE SMOOTH",
"579 980 OFFCURVE",
"675 958 OFFCURVE",
"728 919 CURVE",
"796 1033 LINE",
"721 1084 OFFCURVE",
"600 1118 OFFCURVE",
"488 1118 CURVE SMOOTH",
"413 1118 OFFCURVE",
"345 1106 OFFCURVE",
"286 1081 CURVE SMOOTH",
"167 1031 OFFCURVE",
"100 938 OFFCURVE",
"100 835 CURVE SMOOTH",
"100 724 OFFCURVE",
"163 644 OFFCURVE",
"288 597 CURVE",
"167 542 OFFCURVE",
"100 451 OFFCURVE",
"100 334 CURVE SMOOTH",
"100 267 OFFCURVE",
"121 206 OFFCURVE",
"164 149 CURVE SMOOTH",
"249 36 OFFCURVE",
"397 -20 OFFCURVE",
"585 -20 CURVE SMOOTH"
);
}
);
width = 1314;
}
);
note = uni199A;
unicode = 199A;
},
{
glyphname = uni199C;
lastChange = "2016-11-10 14:23:34 +0000";
layers = (
{
layerId = "24EFEC18-4C8B-448A-94CC-E79C5CDE5BAA";
paths = (
{
closed = 1;
nodes = (
"649 -600 OFFCURVE",
"723 -575 OFFCURVE",
"787 -516 CURVE",
"701 -422 LINE",
"661 -461 OFFCURVE",
"609 -480 OFFCURVE",
"544 -480 CURVE SMOOTH",
"461 -480 OFFCURVE",
"400 -428 OFFCURVE",
"400 -357 CURVE SMOOTH",
"400 -270 OFFCURVE",
"461 -220 OFFCURVE",
"569 -220 CURVE SMOOTH",
"660 -220 OFFCURVE",
"750 -267 OFFCURVE",
"930 -410 CURVE SMOOTH",
"1091 -538 OFFCURVE",
"1216 -600 OFFCURVE",
"1333 -600 CURVE SMOOTH",
"1406 -600 OFFCURVE",
"1471 -577 OFFCURVE",
"1527 -530 CURVE SMOOTH",
"1638 -437 OFFCURVE",
"1701 -256 OFFCURVE",
"1701 -31 CURVE SMOOTH",
"1701 37 OFFCURVE",
"1691 112 OFFCURVE",
"1672 194 CURVE",
"1738 301 OFFCURVE",
"1771 427 OFFCURVE",
"1771 571 CURVE SMOOTH",
"1771 678 OFFCURVE",
"1754 773 OFFCURVE",
"1719 856 CURVE SMOOTH",
"1650 1021 OFFCURVE",
"1518 1118 OFFCURVE",
"1363 1118 CURVE SMOOTH",
"1309 1118 OFFCURVE",
"1259 1104 OFFCURVE",
"1214 1076 CURVE SMOOTH",
"1122 1020 OFFCURVE",
"1052 938 OFFCURVE",
"940 730 CURVE SMOOTH",
"740 359 LINE SMOOTH",
"688 262 OFFCURVE",
"646 198 OFFCURVE",
"613 166 CURVE SMOOTH",
"580 134 OFFCURVE",
"545 118 OFFCURVE",
"509 118 CURVE SMOOTH",
"370 118 OFFCURVE",
"284 276 OFFCURVE",
"284 529 CURVE SMOOTH",
"284 808 OFFCURVE",
"378 980 OFFCURVE",
"534 980 CURVE SMOOTH",
"615 980 OFFCURVE",
"679 948 OFFCURVE",
"724 883 CURVE",
"826 974 LINE",
"762 1061 OFFCURVE",
"662 1118 OFFCURVE",
"531 1118 CURVE SMOOTH",
"456 1118 OFFCURVE",
"386 1092 OFFCURVE",
"319 1041 CURVE SMOOTH",
"186 937 OFFCURVE",
"100 742 OFFCURVE",
"100 527 CURVE SMOOTH",
"100 420 OFFCURVE",
"117 326 OFFCURVE",
"152 243 CURVE SMOOTH",
"220 78 OFFCURVE",
"352 -20 OFFCURVE",
"508 -20 CURVE SMOOTH",
"562 -20 OFFCURVE",
"612 -6 OFFCURVE",
"658 22 CURVE SMOOTH",
"749 78 OFFCURVE",
"819 160 OFFCURVE",
"931 368 CURVE SMOOTH",
"1131 739 LINE SMOOTH",
"1184 836 OFFCURVE",
"1226 901 OFFCURVE",
"1259 933 CURVE SMOOTH",
"1292 964 OFFCURVE",
"1326 980 OFFCURVE",
"1362 980 CURVE SMOOTH",
"1407 980 OFFCURVE",
"1446 964 OFFCURVE",
"1480 933 CURVE SMOOTH",
"1547 869 OFFCURVE",
"1587 741 OFFCURVE",
"1587 569 CURVE SMOOTH",
"1587 290 OFFCURVE",
"1493 118 OFFCURVE",
"1337 118 CURVE SMOOTH",
"1256 118 OFFCURVE",
"1192 150 OFFCURVE",
"1147 215 CURVE",
"1045 124 LINE",
"1109 37 OFFCURVE",
"1209 -20 OFFCURVE",
"1340 -20 CURVE SMOOTH",
"1407 -20 OFFCURVE",
"1471 1 OFFCURVE",
"1532 43 CURVE",
"1538 8 OFFCURVE",
"1541 -23 OFFCURVE",
"1541 -51 CURVE SMOOTH",
"1541 -330 OFFCURVE",
"1472 -480 OFFCURVE",
"1332 -480 CURVE SMOOTH",
"1299 -480 OFFCURVE",
"1261 -468 OFFCURVE",
"1219 -444 CURVE SMOOTH",
"1177 -421 OFFCURVE",
"1105 -369 OFFCURVE",
"1003 -290 CURVE SMOOTH",
"839 -163 OFFCURVE",
"699 -100 OFFCURVE",
"566 -100 CURVE SMOOTH",
"503 -100 OFFCURVE",
"448 -111 OFFCURVE",
"401 -133 CURVE SMOOTH",
"305 -178 OFFCURVE",
"250 -265 OFFCURVE",
"250 -362 CURVE SMOOTH",
"250 -506 OFFCURVE",
"362 -600 OFFCURVE",
"541 -600 CURVE SMOOTH"
);
}
);
width = 1871;
}
);
note = uni199C;
unicode = 199C;
},
{
glyphname = uni199D;
lastChange = "2016-11-10 14:23:34 +0000";
layers = (
{
layerId = "24EFEC18-4C8B-448A-94CC-E79C5CDE5BAA";
paths = (
{
closed = 1;
nodes = (
"663 -20 OFFCURVE",
"742 0 OFFCURVE",
"813 41 CURVE",
"732 158 LINE",
"684 131 OFFCURVE",
"634 118 OFFCURVE",
"582 118 CURVE SMOOTH",
"391 118 OFFCURVE",
"284 272 OFFCURVE",
"284 563 CURVE SMOOTH",
"284 826 OFFCURVE",
"394 980 OFFCURVE",
"579 980 CURVE SMOOTH",
"732 980 OFFCURVE",
"830 863 OFFCURVE",
"845 663 CURVE",
"1015 663 LINE",
"1028 862 OFFCURVE",
"1128 980 OFFCURVE",
"1281 980 CURVE SMOOTH",
"1468 980 OFFCURVE",
"1576 826 OFFCURVE",
"1576 563 CURVE SMOOTH",
"1576 274 OFFCURVE",
"1469 118 OFFCURVE",
"1278 118 CURVE SMOOTH",
"1226 118 OFFCURVE",
"1176 131 OFFCURVE",
"1128 158 CURVE",
"1047 41 LINE",
"1118 0 OFFCURVE",
"1197 -20 OFFCURVE",
"1286 -20 CURVE SMOOTH",
"1375 -20 OFFCURVE",
"1455 4 OFFCURVE",
"1528 51 CURVE SMOOTH",
"1673 145 OFFCURVE",
"1760 326 OFFCURVE",
"1760 565 CURVE SMOOTH",
"1760 677 OFFCURVE",
"1740 775 OFFCURVE",
"1700 858 CURVE SMOOTH",
"1619 1025 OFFCURVE",
"1467 1118 OFFCURVE",
"1286 1118 CURVE SMOOTH",
"1138 1118 OFFCURVE",
"998 1033 OFFCURVE",
"929 893 CURVE",
"865 1029 OFFCURVE",
"725 1118 OFFCURVE",
"574 1118 CURVE SMOOTH",
"466 1118 OFFCURVE",
"372 1087 OFFCURVE",
"292 1024 CURVE",
"320 1447 OFFCURVE",
"426 1602 OFFCURVE",
"649 1602 CURVE SMOOTH",
"753 1602 OFFCURVE",
"862 1546 OFFCURVE",
"909 1461 CURVE",
"1042 1564 LINE",
"949 1681 OFFCURVE",
"827 1740 OFFCURVE",
"675 1740 CURVE SMOOTH",
"559 1740 OFFCURVE",
"458 1704 OFFCURVE",
"371 1631 CURVE SMOOTH",
"197 1486 OFFCURVE",
"100 1207 OFFCURVE",
"100 848 CURVE SMOOTH",
"100 565 LINE SMOOTH",
"100 446 OFFCURVE",
"120 343 OFFCURVE",
"161 255 CURVE SMOOTH",
"242 78 OFFCURVE",
"394 -20 OFFCURVE",
"574 -20 CURVE SMOOTH"
);
}
);
width = 1860;
}
);
note = uni199D;
unicode = 199D;
},
{
glyphname = uni199E;
lastChange = "2016-11-10 14:23:34 +0000";
layers = (
{
layerId = "24EFEC18-4C8B-448A-94CC-E79C5CDE5BAA";
paths = (
{
closed = 1;
nodes = (
"851 -20 OFFCURVE",
"1035 206 OFFCURVE",
"1035 551 CURVE SMOOTH",
"1035 660 OFFCURVE",
"1016 758 OFFCURVE",
"978 845 CURVE SMOOTH",
"901 1018 OFFCURVE",
"754 1118 OFFCURVE",
"570 1118 CURVE SMOOTH",
"477 1118 OFFCURVE",
"395 1094 OFFCURVE",
"324 1047 CURVE SMOOTH",
"181 952 OFFCURVE",
"100 770 OFFCURVE",
"100 551 CURVE SMOOTH",
"100 445 OFFCURVE",
"120 348 OFFCURVE",
"160 260 CURVE SMOOTH",
"239 84 OFFCURVE",
"390 -20 OFFCURVE",
"563 -20 CURVE SMOOTH"
);
},
{
closed = 1;
nodes = (
"389 118 OFFCURVE",
"284 283 OFFCURVE",
"284 551 CURVE SMOOTH",
"284 822 OFFCURVE",
"388 980 OFFCURVE",
"565 980 CURVE SMOOTH",
"749 980 OFFCURVE",
"851 826 OFFCURVE",
"851 551 CURVE SMOOTH",
"851 279 OFFCURVE",
"751 118 OFFCURVE",
"568 118 CURVE SMOOTH"
);
}
);
width = 1135;
}
);
note = uni199E;
unicode = 199E;
},
{
glyphname = uni199F;
lastChange = "2016-11-10 14:23:34 +0000";
layers = (
{
layerId = "24EFEC18-4C8B-448A-94CC-E79C5CDE5BAA";
paths = (
{
closed = 1;
nodes = (
"662 -20 OFFCURVE",
"762 37 OFFCURVE",
"826 124 CURVE",
"724 215 LINE",
"679 150 OFFCURVE",
"615 118 OFFCURVE",
"534 118 CURVE SMOOTH",
"378 118 OFFCURVE",
"284 288 OFFCURVE",
"284 569 CURVE SMOOTH",
"284 822 OFFCURVE",
"369 980 OFFCURVE",
"509 980 CURVE SMOOTH",
"545 980 OFFCURVE",
"580 964 OFFCURVE",
"613 933 CURVE SMOOTH",
"646 901 OFFCURVE",
"688 836 OFFCURVE",
"740 739 CURVE SMOOTH",
"940 368 LINE SMOOTH",
"997 262 OFFCURVE",
"1046 185 OFFCURVE",
"1086 136 CURVE SMOOTH",
"1166 39 OFFCURVE",
"1256 -20 OFFCURVE",
"1363 -20 CURVE SMOOTH",
"1440 -20 OFFCURVE",
"1510 3 OFFCURVE",
"1573 49 CURVE SMOOTH",
"1699 141 OFFCURVE",
"1771 314 OFFCURVE",
"1771 527 CURVE SMOOTH",
"1771 634 OFFCURVE",
"1751 733 OFFCURVE",
"1712 825 CURVE SMOOTH",
"1633 1008 OFFCURVE",
"1491 1118 OFFCURVE",
"1340 1118 CURVE SMOOTH",
"1209 1118 OFFCURVE",
"1109 1061 OFFCURVE",
"1045 974 CURVE",
"1147 883 LINE",
"1192 948 OFFCURVE",
"1256 980 OFFCURVE",
"1337 980 CURVE SMOOTH",
"1493 980 OFFCURVE",
"1587 810 OFFCURVE",
"1587 529 CURVE SMOOTH",
"1587 442 OFFCURVE",
"1578 368 OFFCURVE",
"1559 306 CURVE SMOOTH",
"1521 182 OFFCURVE",
"1450 118 OFFCURVE",
"1362 118 CURVE SMOOTH",
"1326 118 OFFCURVE",
"1292 134 OFFCURVE",
"1259 166 CURVE SMOOTH",
"1226 198 OFFCURVE",
"1183 262 OFFCURVE",
"1131 359 CURVE SMOOTH",
"931 730 LINE SMOOTH",
"874 836 OFFCURVE",
"825 913 OFFCURVE",
"785 962 CURVE SMOOTH",
"705 1059 OFFCURVE",
"615 1118 OFFCURVE",
"508 1118 CURVE SMOOTH",
"431 1118 OFFCURVE",
"361 1095 OFFCURVE",
"298 1049 CURVE SMOOTH",
"173 956 OFFCURVE",
"100 784 OFFCURVE",
"100 571 CURVE SMOOTH",
"100 464 OFFCURVE",
"120 365 OFFCURVE",
"159 274 CURVE SMOOTH",
"238 90 OFFCURVE",
"380 -20 OFFCURVE",
"531 -20 CURVE SMOOTH"
);
}
);
width = 1871;
}
);
note = uni199F;
unicode = 199F;
},
{
glyphname = uni19A0;
lastChange = "2016-11-10 14:23:34 +0000";
layers = (
{
layerId = "24EFEC18-4C8B-448A-94CC-E79C5CDE5BAA";
paths = (
{
closed = 1;
nodes = (
"562 -20 OFFCURVE",
"612 -6 OFFCURVE",
"658 22 CURVE SMOOTH",
"749 78 OFFCURVE",
"819 160 OFFCURVE",
"931 368 CURVE SMOOTH",
"1131 739 LINE SMOOTH",
"1184 836 OFFCURVE",
"1226 901 OFFCURVE",
"1259 933 CURVE SMOOTH",
"1292 964 OFFCURVE",
"1326 980 OFFCURVE",
"1362 980 CURVE SMOOTH",
"1407 980 OFFCURVE",
"1446 964 OFFCURVE",
"1480 933 CURVE SMOOTH",
"1547 869 OFFCURVE",
"1587 741 OFFCURVE",
"1587 569 CURVE SMOOTH",
"1587 290 OFFCURVE",
"1493 118 OFFCURVE",
"1337 118 CURVE SMOOTH",
"1256 118 OFFCURVE",
"1192 150 OFFCURVE",
"1147 215 CURVE",
"1045 124 LINE",
"1109 37 OFFCURVE",
"1209 -20 OFFCURVE",
"1340 -20 CURVE SMOOTH",
"1415 -20 OFFCURVE",
"1485 6 OFFCURVE",
"1552 58 CURVE SMOOTH",
"1685 161 OFFCURVE",
"1771 356 OFFCURVE",
"1771 571 CURVE SMOOTH",
"1771 678 OFFCURVE",
"1754 773 OFFCURVE",
"1719 856 CURVE SMOOTH",
"1650 1021 OFFCURVE",
"1518 1118 OFFCURVE",
"1363 1118 CURVE SMOOTH",
"1309 1118 OFFCURVE",
"1259 1104 OFFCURVE",
"1214 1076 CURVE SMOOTH",
"1122 1020 OFFCURVE",
"1052 938 OFFCURVE",
"940 730 CURVE SMOOTH",
"740 359 LINE SMOOTH",
"688 262 OFFCURVE",
"646 198 OFFCURVE",
"613 166 CURVE SMOOTH",
"580 134 OFFCURVE",
"545 118 OFFCURVE",
"509 118 CURVE SMOOTH",
"370 118 OFFCURVE",
"284 276 OFFCURVE",
"284 529 CURVE SMOOTH",
"284 808 OFFCURVE",
"378 980 OFFCURVE",
"534 980 CURVE SMOOTH",
"615 980 OFFCURVE",
"679 948 OFFCURVE",
"724 883 CURVE",
"826 974 LINE",
"762 1061 OFFCURVE",
"662 1118 OFFCURVE",
"531 1118 CURVE SMOOTH",
"456 1118 OFFCURVE",
"386 1092 OFFCURVE",
"319 1041 CURVE SMOOTH",
"186 937 OFFCURVE",
"100 742 OFFCURVE",
"100 527 CURVE SMOOTH",
"100 420 OFFCURVE",
"117 326 OFFCURVE",
"152 243 CURVE SMOOTH",
"220 78 OFFCURVE",
"352 -20 OFFCURVE",
"508 -20 CURVE SMOOTH"
);
}
);
width = 1871;
}
);
note = uni19A0;
unicode = 19A0;
},
{
glyphname = uni19A1;
lastChange = "2016-11-10 14:23:34 +0000";
layers = (
{
layerId = "24EFEC18-4C8B-448A-94CC-E79C5CDE5BAA";
paths = (
{
closed = 1;
nodes = (
"586 -570 OFFCURVE",
"674 -554 OFFCURVE",
"750 -523 CURVE SMOOTH",
"901 -460 OFFCURVE",
"994 -326 OFFCURVE",
"994 -174 CURVE SMOOTH",
"994 -61 OFFCURVE",
"932 26 OFFCURVE",
"809 85 CURVE",
"940 182 OFFCURVE",
"1012 360 OFFCURVE",
"1012 553 CURVE SMOOTH",
"1012 670 OFFCURVE",
"992 772 OFFCURVE",
"952 857 CURVE SMOOTH",
"872 1027 OFFCURVE",
"721 1118 OFFCURVE",
"530 1118 CURVE SMOOTH",
"366 1118 OFFCURVE",
"221 1048 OFFCURVE",
"118 916 CURVE",
"249 839 LINE",
"312 933 OFFCURVE",
"399 980 OFFCURVE",
"509 980 CURVE SMOOTH",
"706 980 OFFCURVE",
"828 824 OFFCURVE",
"828 559 CURVE SMOOTH",
"828 303 OFFCURVE",
"720 138 OFFCURVE",
"547 138 CURVE SMOOTH",
"528 138 LINE",
"508 137 LINE",
"508 -1 LINE",
"524 0 LINE",
"539 0 LINE SMOOTH",
"720 0 OFFCURVE",
"811 -59 OFFCURVE",
"811 -177 CURVE SMOOTH",
"811 -346 OFFCURVE",
"698 -432 OFFCURVE",
"486 -432 CURVE SMOOTH",
"342 -432 OFFCURVE",
"197 -357 OFFCURVE",
"109 -250 CURVE",
"-12 -339 LINE",
"100 -480 OFFCURVE",
"305 -570 OFFCURVE",
"486 -570 CURVE SMOOTH"
);
}
);
width = 1112;
}
);
note = uni19A1;
unicode = 19A1;
},
{
glyphname = uni19A2;
lastChange = "2016-11-10 14:23:34 +0000";
layers = (
{
layerId = "24EFEC18-4C8B-448A-94CC-E79C5CDE5BAA";
paths = (
{
closed = 1;
nodes = (
"723 -20 OFFCURVE",
"812 5 OFFCURVE",
"893 54 CURVE SMOOTH",
"1056 152 OFFCURVE",
"1152 335 OFFCURVE",
"1152 550 CURVE SMOOTH",
"1152 793 OFFCURVE",
"1029 997 OFFCURVE",
"821 1108 CURVE",
"765 976 LINE",
"890 923 OFFCURVE",
"968 785 OFFCURVE",
"968 545 CURVE SMOOTH",
"968 268 OFFCURVE",
"845 118 OFFCURVE",
"626 118 CURVE SMOOTH",
"403 118 OFFCURVE",
"284 268 OFFCURVE",
"284 545 CURVE SMOOTH",
"284 785 OFFCURVE",
"362 923 OFFCURVE",
"487 976 CURVE",
"431 1108 LINE",
"230 1000 OFFCURVE",
"100 787 OFFCURVE",
"100 550 CURVE SMOOTH",
"100 441 OFFCURVE",
"123 344 OFFCURVE",
"168 257 CURVE SMOOTH",
"259 84 OFFCURVE",
"431 -20 OFFCURVE",
"626 -20 CURVE SMOOTH"
);
}
);
width = 1252;
}
);
note = uni19A2;
unicode = 19A2;
},
{
glyphname = uni19A3;
lastChange = "2016-11-10 14:23:34 +0000";
layers = (
{
layerId = "24EFEC18-4C8B-448A-94CC-E79C5CDE5BAA";
paths = (
{
closed = 1;
nodes = (
"811 -570 OFFCURVE",
"915 -533 OFFCURVE",
"1004 -459 CURVE SMOOTH",
"1182 -311 OFFCURVE",
"1289 -21 OFFCURVE",
"1289 332 CURVE SMOOTH",
"1289 481 OFFCURVE",
"1259 615 OFFCURVE",
"1200 736 CURVE SMOOTH",
"1080 976 OFFCURVE",
"859 1118 OFFCURVE",
"604 1118 CURVE SMOOTH",
"515 1118 OFFCURVE",
"433 1105 OFFCURVE",
"360 1079 CURVE SMOOTH",
"212 1026 OFFCURVE",
"126 928 OFFCURVE",
"126 828 CURVE SMOOTH",
"126 731 OFFCURVE",
"177 651 OFFCURVE",
"364 534 CURVE SMOOTH",
"442 484 OFFCURVE",
"494 448 OFFCURVE",
"520 425 CURVE SMOOTH",
"571 380 OFFCURVE",
"602 332 OFFCURVE",
"602 275 CURVE SMOOTH",
"602 170 OFFCURVE",
"533 118 OFFCURVE",
"395 118 CURVE SMOOTH",
"311 118 OFFCURVE",
"225 162 OFFCURVE",
"182 215 CURVE",
"80 124 LINE",
"152 28 OFFCURVE",
"260 -20 OFFCURVE",
"403 -20 CURVE SMOOTH",
"475 -20 OFFCURVE",
"540 -7 OFFCURVE",
"599 19 CURVE SMOOTH",
"716 70 OFFCURVE",
"786 167 OFFCURVE",
"786 272 CURVE SMOOTH",
"786 380 OFFCURVE",
"727 470 OFFCURVE",
"548 587 CURVE SMOOTH",
"461 644 LINE SMOOTH",
"357 712 OFFCURVE",
"310 767 OFFCURVE",
"310 827 CURVE SMOOTH",
"310 929 OFFCURVE",
"408 980 OFFCURVE",
"604 980 CURVE SMOOTH",
"913 980 OFFCURVE",
"1105 751 OFFCURVE",
"1105 339 CURVE SMOOTH",
"1105 143 OFFCURVE",
"1090 -9 OFFCURVE",
"1060 -117 CURVE SMOOTH",
"1000 -333 OFFCURVE",
"883 -432 OFFCURVE",
"707 -432 CURVE SMOOTH",
"656 -432 OFFCURVE",
"595 -418 OFFCURVE",
"555 -397 CURVE",
"487 -530 LINE",
"546 -557 OFFCURVE",
"615 -570 OFFCURVE",
"692 -570 CURVE SMOOTH"
);
}
);
width = 1389;
}
);
note = uni19A3;
unicode = 19A3;
},
{
glyphname = uni19A7;
lastChange = "2016-11-10 14:23:34 +0000";
layers = (
{
layerId = "24EFEC18-4C8B-448A-94CC-E79C5CDE5BAA";
paths = (
{
closed = 1;
nodes = (
"989 -20 LINE",
"976 79 OFFCURVE",
"952 165 OFFCURVE",
"917 239 CURVE",
"978 344 OFFCURVE",
"1008 464 OFFCURVE",
"1008 597 CURVE SMOOTH",
"1008 913 OFFCURVE",
"812 1118 OFFCURVE",
"503 1118 CURVE SMOOTH",
"334 1118 OFFCURVE",
"180 1038 OFFCURVE",
"100 911 CURVE",
"225 839 LINE",
"280 926 OFFCURVE",
"381 980 OFFCURVE",
"485 980 CURVE SMOOTH",
"710 980 OFFCURVE",
"824 837 OFFCURVE",
"824 581 CURVE SMOOTH",
"824 515 OFFCURVE",
"818 452 OFFCURVE",
"805 393 CURVE",
"718 470 OFFCURVE",
"611 509 OFFCURVE",
"482 509 CURVE SMOOTH",
"416 509 OFFCURVE",
"355 497 OFFCURVE",
"300 472 CURVE SMOOTH",
"189 423 OFFCURVE",
"121 330 OFFCURVE",
"121 235 CURVE SMOOTH",
"121 189 OFFCURVE",
"137 146 OFFCURVE",
"170 107 CURVE SMOOTH",
"235 27 OFFCURVE",
"351 -20 OFFCURVE",
"496 -20 CURVE SMOOTH",
"618 -20 OFFCURVE",
"723 22 OFFCURVE",
"812 105 CURVE",
"825 56 OFFCURVE",
"832 5 OFFCURVE",
"835 -50 CURVE"
);
},
{
closed = 1;
nodes = (
"768 -600 OFFCURVE",
"936 -505 OFFCURVE",
"936 -365 CURVE SMOOTH",
"936 -226 OFFCURVE",
"769 -130 OFFCURVE",
"548 -130 CURVE SMOOTH",
"328 -130 OFFCURVE",
"160 -225 OFFCURVE",
"160 -365 CURVE SMOOTH",
"160 -504 OFFCURVE",
"327 -600 OFFCURVE",
"548 -600 CURVE SMOOTH"
);
},
{
closed = 1;
nodes = (
"465 -477 OFFCURVE",
"407 -466 OFFCURVE",
"368 -445 CURVE SMOOTH",
"329 -424 OFFCURVE",
"310 -397 OFFCURVE",
"310 -364 CURVE SMOOTH",
"310 -330 OFFCURVE",
"329 -302 OFFCURVE",
"368 -281 CURVE SMOOTH",
"407 -260 OFFCURVE",
"465 -250 OFFCURVE",
"544 -250 CURVE SMOOTH",
"623 -250 OFFCURVE",
"684 -260 OFFCURVE",
"725 -281 CURVE SMOOTH",
"766 -302 OFFCURVE",
"786 -330 OFFCURVE",
"786 -364 CURVE SMOOTH",
"786 -397 OFFCURVE",
"766 -424 OFFCURVE",
"725 -445 CURVE SMOOTH",
"684 -466 OFFCURVE",
"623 -477 OFFCURVE",
"544 -477 CURVE SMOOTH"
);
},
{
closed = 1;
nodes = (
"382 118 OFFCURVE",
"305 169 OFFCURVE",
"305 249 CURVE SMOOTH",
"305 320 OFFCURVE",
"392 371 OFFCURVE",
"505 371 CURVE SMOOTH",
"596 371 OFFCURVE",
"686 322 OFFCURVE",
"745 245 CURVE",
"690 160 OFFCURVE",
"610 118 OFFCURVE",
"505 118 CURVE SMOOTH"
);
}
);
width = 1108;
}
);
note = uni19A7;
unicode = 19A7;
},
{
glyphname = uni19AB;
lastChange = "2016-11-10 14:23:34 +0000";
layers = (
{
layerId = "24EFEC18-4C8B-448A-94CC-E79C5CDE5BAA";
paths = (
{
closed = 1;
nodes = (
"1214 -467 OFFCURVE",
"1249 -357 OFFCURVE",
"1249 -230 CURVE SMOOTH",
"1249 -70 OFFCURVE",
"1124 67 OFFCURVE",
"949 107 CURVE",
"1066 227 OFFCURVE",
"1124 374 OFFCURVE",
"1124 548 CURVE SMOOTH",
"1124 663 OFFCURVE",
"1102 763 OFFCURVE",
"1058 849 CURVE SMOOTH",
"970 1021 OFFCURVE",
"801 1118 OFFCURVE",
"598 1118 CURVE SMOOTH",
"481 1118 OFFCURVE",
"377 1079 OFFCURVE",
"286 1002 CURVE",
"311 1439 OFFCURVE",
"421 1602 OFFCURVE",
"649 1602 CURVE SMOOTH",
"753 1602 OFFCURVE",
"862 1546 OFFCURVE",
"909 1461 CURVE",
"1042 1564 LINE",
"949 1681 OFFCURVE",
"827 1740 OFFCURVE",
"675 1740 CURVE SMOOTH",
"559 1740 OFFCURVE",
"458 1704 OFFCURVE",
"371 1631 CURVE SMOOTH",
"197 1486 OFFCURVE",
"100 1207 OFFCURVE",
"100 848 CURVE SMOOTH",
"100 672 LINE SMOOTH",
"100 312 OFFCURVE",
"208 98 OFFCURVE",
"433 -10 CURVE",
"489 129 LINE",
"438 157 OFFCURVE",
"397 193 OFFCURVE",
"366 236 CURVE SMOOTH",
"305 323 OFFCURVE",
"278 429 OFFCURVE",
"278 640 CURVE SMOOTH",
"278 734 LINE",
"286 873 OFFCURVE",
"422 980 OFFCURVE",
"598 980 CURVE SMOOTH",
"817 980 OFFCURVE",
"940 828 OFFCURVE",
"940 560 CURVE SMOOTH",
"940 334 OFFCURVE",
"873 192 OFFCURVE",
"738 135 CURVE",
"738 -1 LINE",
"754 0 LINE",
"769 0 LINE SMOOTH",
"965 0 OFFCURVE",
"1081 -98 OFFCURVE",
"1081 -255 CURVE SMOOTH",
"1081 -337 OFFCURVE",
"1062 -407 OFFCURVE",
"1023 -465 CURVE",
"1144 -562 LINE"
);
},
{
closed = 1;
nodes = (
"804 -600 OFFCURVE",
"966 -496 OFFCURVE",
"966 -364 CURVE SMOOTH",
"966 -322 OFFCURVE",
"950 -283 OFFCURVE",
"919 -247 CURVE SMOOTH",
"856 -175 OFFCURVE",
"737 -130 OFFCURVE",
"608 -130 CURVE SMOOTH",
"409 -130 OFFCURVE",
"250 -232 OFFCURVE",
"250 -364 CURVE SMOOTH",
"250 -496 OFFCURVE",
"412 -600 OFFCURVE",
"608 -600 CURVE SMOOTH"
);
},
{
closed = 1;
nodes = (
"487 -480 OFFCURVE",
"400 -430 OFFCURVE",
"400 -363 CURVE SMOOTH",
"400 -298 OFFCURVE",
"481 -250 OFFCURVE",
"604 -250 CURVE SMOOTH",
"729 -250 OFFCURVE",
"816 -298 OFFCURVE",
"816 -363 CURVE SMOOTH",
"816 -430 OFFCURVE",
"723 -480 OFFCURVE",
"604 -480 CURVE SMOOTH"
);
}
);
width = 1224;
}
);
note = uni19AB;
unicode = 19AB;
},
{
glyphname = uni19B0;
lastChange = "2016-11-10 14:23:34 +0000";
layers = (
{
layerId = "24EFEC18-4C8B-448A-94CC-E79C5CDE5BAA";
paths = (
{
closed = 1;
nodes = (
"429 605 OFFCURVE",
"486 615 OFFCURVE",
"533 635 CURVE",
"471 751 LINE",
"444 739 OFFCURVE",
"413 733 OFFCURVE",
"378 733 CURVE SMOOTH",
"311 733 OFFCURVE",
"265 781 OFFCURVE",
"265 860 CURVE SMOOTH",
"265 943 OFFCURVE",
"317 990 OFFCURVE",
"394 990 CURVE SMOOTH",
"473 990 OFFCURVE",
"535 943 OFFCURVE",
"659 798 CURVE SMOOTH",
"770 666 OFFCURVE",
"866 605 OFFCURVE",
"979 605 CURVE SMOOTH",
"1035 605 OFFCURVE",
"1084 618 OFFCURVE",
"1127 643 CURVE SMOOTH",
"1211 694 OFFCURVE",
"1263 785 OFFCURVE",
"1263 865 CURVE SMOOTH",
"1263 940 OFFCURVE",
"1229 1007 OFFCURVE",
"1172 1052 CURVE",
"1063 961 LINE",
"1092 934 OFFCURVE",
"1113 886 OFFCURVE",
"1113 850 CURVE SMOOTH",
"1113 779 OFFCURVE",
"1059 733 OFFCURVE",
"984 733 CURVE SMOOTH",
"950 733 OFFCURVE",
"917 746 OFFCURVE",
"885 771 CURVE SMOOTH",
"852 796 OFFCURVE",
"804 847 OFFCURVE",
"739 926 CURVE SMOOTH",
"631 1057 OFFCURVE",
"526 1118 OFFCURVE",
"403 1118 CURVE SMOOTH",
"346 1118 OFFCURVE",
"295 1105 OFFCURVE",
"249 1080 CURVE SMOOTH",
"157 1029 OFFCURVE",
"100 937 OFFCURVE",
"100 849 CURVE SMOOTH",
"100 803 OFFCURVE",
"112 761 OFFCURVE",
"136 724 CURVE SMOOTH",
"183 649 OFFCURVE",
"270 605 OFFCURVE",
"361 605 CURVE SMOOTH"
);
},
{
closed = 1;
nodes = (
"429 -20 OFFCURVE",
"486 -10 OFFCURVE",
"533 10 CURVE",
"471 126 LINE",
"444 114 OFFCURVE",
"413 108 OFFCURVE",
"378 108 CURVE SMOOTH",
"311 108 OFFCURVE",
"265 156 OFFCURVE",
"265 235 CURVE SMOOTH",
"265 318 OFFCURVE",
"317 365 OFFCURVE",
"394 365 CURVE SMOOTH",
"473 365 OFFCURVE",
"535 318 OFFCURVE",
"659 173 CURVE SMOOTH",
"770 41 OFFCURVE",
"866 -20 OFFCURVE",
"979 -20 CURVE SMOOTH",
"1035 -20 OFFCURVE",
"1084 -7 OFFCURVE",
"1127 18 CURVE SMOOTH",
"1211 69 OFFCURVE",
"1263 160 OFFCURVE",
"1263 240 CURVE SMOOTH",
"1263 315 OFFCURVE",
"1229 382 OFFCURVE",
"1172 427 CURVE",
"1063 336 LINE",
"1092 309 OFFCURVE",
"1113 261 OFFCURVE",
"1113 225 CURVE SMOOTH",
"1113 154 OFFCURVE",
"1059 108 OFFCURVE",
"984 108 CURVE SMOOTH",
"950 108 OFFCURVE",
"917 121 OFFCURVE",
"885 146 CURVE SMOOTH",
"852 171 OFFCURVE",
"804 222 OFFCURVE",
"739 301 CURVE SMOOTH",
"631 432 OFFCURVE",
"526 493 OFFCURVE",
"403 493 CURVE SMOOTH",
"346 493 OFFCURVE",
"295 480 OFFCURVE",
"249 455 CURVE SMOOTH",
"157 404 OFFCURVE",
"100 312 OFFCURVE",
"100 224 CURVE SMOOTH",
"100 178 OFFCURVE",
"112 136 OFFCURVE",
"136 99 CURVE SMOOTH",
"183 24 OFFCURVE",
"270 -20 OFFCURVE",
"361 -20 CURVE SMOOTH"
);
}
);
width = 1363;
}
);
note = uni19B0;
unicode = 19B0;
},
{
glyphname = uni19B1;
lastChange = "2016-11-10 14:23:34 +0000";
layers = (
{
layerId = "24EFEC18-4C8B-448A-94CC-E79C5CDE5BAA";
paths = (
{
closed = 1;
nodes = (
"604 -20 OFFCURVE",
"690 4 OFFCURVE",
"767 51 CURVE SMOOTH",
"921 145 OFFCURVE",
"1012 322 OFFCURVE",
"1012 553 CURVE SMOOTH",
"1012 674 OFFCURVE",
"992 776 OFFCURVE",
"952 861 CURVE SMOOTH",
"871 1030 OFFCURVE",
"719 1118 OFFCURVE",
"518 1118 CURVE SMOOTH",
"363 1118 OFFCURVE",
"214 1046 OFFCURVE",
"118 915 CURVE",
"249 839 LINE",
"304 926 OFFCURVE",
"405 980 OFFCURVE",
"509 980 CURVE SMOOTH",
"709 980 OFFCURVE",
"828 828 OFFCURVE",
"828 555 CURVE SMOOTH",
"828 292 OFFCURVE",
"707 118 OFFCURVE",
"520 118 CURVE SMOOTH",
"391 118 OFFCURVE",
"257 212 OFFCURVE",
"212 313 CURVE",
"80 238 LINE",
"181 69 OFFCURVE",
"331 -20 OFFCURVE",
"511 -20 CURVE SMOOTH"
);
}
);
width = 1112;
}
);
note = uni19B1;
unicode = 19B1;
},
{
glyphname = uni19B2;
lastChange = "2016-11-10 14:23:34 +0000";
layers = (
{
layerId = "24EFEC18-4C8B-448A-94CC-E79C5CDE5BAA";
paths = (
{
closed = 1;
nodes = (
"949 -20 OFFCURVE",
"1136 301 OFFCURVE",
"1136 840 CURVE SMOOTH",
"1136 1429 OFFCURVE",
"957 1740 OFFCURVE",
"616 1740 CURVE SMOOTH",
"279 1740 OFFCURVE",
"100 1428 OFFCURVE",
"100 840 CURVE SMOOTH",
"100 304 OFFCURVE",
"288 -20 OFFCURVE",
"616 -20 CURVE SMOOTH"
);
},
{
closed = 1;
nodes = (
"411 118 OFFCURVE",
"303 308 OFFCURVE",
"286 707 CURVE",
"355 808 OFFCURVE",
"480 870 OFFCURVE",
"605 870 CURVE SMOOTH",
"756 870 OFFCURVE",
"881 805 OFFCURVE",
"948 696 CURVE",
"931 296 OFFCURVE",
"823 118 OFFCURVE",
"616 118 CURVE SMOOTH"
);
},
{
closed = 1;
nodes = (
"851 969 OFFCURVE",
"737 1008 OFFCURVE",
"610 1008 CURVE SMOOTH",
"493 1008 OFFCURVE",
"376 967 OFFCURVE",
"284 898 CURVE",
"287 1149 OFFCURVE",
"314 1330 OFFCURVE",
"366 1439 CURVE SMOOTH",
"418 1548 OFFCURVE",
"501 1602 OFFCURVE",
"616 1602 CURVE SMOOTH",
"729 1602 OFFCURVE",
"813 1546 OFFCURVE",
"867 1433 CURVE SMOOTH",
"921 1320 OFFCURVE",
"949 1139 OFFCURVE",
"952 890 CURVE"
);
}
);
width = 1236;
}
);
note = uni19B2;
unicode = 19B2;
},
{
glyphname = uni19B3;
lastChange = "2016-11-10 14:23:34 +0000";
layers = (
{
layerId = "24EFEC18-4C8B-448A-94CC-E79C5CDE5BAA";
paths = (
{
closed = 1;
nodes = (
"748 -570 OFFCURVE",
"883 -507 OFFCURVE",
"972 -394 CURVE",
"870 -296 LINE",
"802 -380 OFFCURVE",
"695 -432 OFFCURVE",
"595 -432 CURVE SMOOTH",
"383 -432 OFFCURVE",
"295 -306 OFFCURVE",
"272 42 CURVE",
"345 1 OFFCURVE",
"424 -20 OFFCURVE",
"511 -20 CURVE SMOOTH",
"604 -20 OFFCURVE",
"690 4 OFFCURVE",
"767 51 CURVE SMOOTH",
"921 145 OFFCURVE",
"1012 322 OFFCURVE",
"1012 553 CURVE SMOOTH",
"1012 674 OFFCURVE",
"992 776 OFFCURVE",
"952 861 CURVE SMOOTH",
"871 1030 OFFCURVE",
"719 1118 OFFCURVE",
"518 1118 CURVE SMOOTH",
"363 1118 OFFCURVE",
"214 1046 OFFCURVE",
"118 915 CURVE",
"249 839 LINE",
"304 926 OFFCURVE",
"405 980 OFFCURVE",
"509 980 CURVE SMOOTH",
"709 980 OFFCURVE",
"828 828 OFFCURVE",
"828 555 CURVE SMOOTH",
"828 292 OFFCURVE",
"707 118 OFFCURVE",
"520 118 CURVE SMOOTH",
"391 118 OFFCURVE",
"257 212 OFFCURVE",
"212 313 CURVE",
"80 238 LINE",
"80 224 LINE SMOOTH",
"80 -323 OFFCURVE",
"240 -570 OFFCURVE",
"592 -570 CURVE SMOOTH"
);
}
);
width = 1112;
}
);
note = uni19B3;
unicode = 19B3;
},
{
glyphname = uni19B4;
lastChange = "2016-11-10 14:23:34 +0000";
layers = (
{
layerId = "24EFEC18-4C8B-448A-94CC-E79C5CDE5BAA";
paths = (
{
closed = 1;
nodes = (
"1292 -572 OFFCURVE",
"1334 -563 OFFCURVE",
"1383 -546 CURVE",
"1316 -419 LINE",
"1287 -429 OFFCURVE",
"1262 -434 OFFCURVE",
"1241 -434 CURVE SMOOTH",
"1136 -434 OFFCURVE",
"1083 -349 OFFCURVE",
"1058 -155 CURVE SMOOTH",
"1045 -58 OFFCURVE",
"1039 84 OFFCURVE",
"1039 271 CURVE SMOOTH",
"1039 1098 LINE",
"861 1099 LINE",
"861 482 LINE SMOOTH",
"861 243 OFFCURVE",
"759 118 OFFCURVE",
"587 118 CURVE SMOOTH",
"533 118 OFFCURVE",
"490 129 OFFCURVE",
"458 150 CURVE SMOOTH",
"393 193 OFFCURVE",
"363 264 OFFCURVE",
"363 416 CURVE SMOOTH",
"363 763 LINE SMOOTH",
"363 834 OFFCURVE",
"352 896 OFFCURVE",
"331 950 CURVE SMOOTH",
"288 1058 OFFCURVE",
"212 1118 OFFCURVE",
"128 1118 CURVE SMOOTH",
"86 1118 OFFCURVE",
"50 1113 OFFCURVE",
"20 1103 CURVE",
"34 971 LINE",
"55 977 OFFCURVE",
"77 980 OFFCURVE",
"101 980 CURVE SMOOTH",
"156 980 OFFCURVE",
"185 942 OFFCURVE",
"185 875 CURVE SMOOTH",
"185 412 LINE SMOOTH",
"185 340 OFFCURVE",
"203 270 OFFCURVE",
"240 202 CURVE SMOOTH",
"312 66 OFFCURVE",
"440 -20 OFFCURVE",
"580 -20 CURVE SMOOTH",
"683 -20 OFFCURVE",
"778 29 OFFCURVE",
"863 128 CURVE",
"884 -293 OFFCURVE",
"1036 -572 OFFCURVE",
"1255 -572 CURVE SMOOTH"
);
}
);
width = 1223;
}
);
note = uni19B4;
unicode = 19B4;
},
{
glyphname = uni19B5;
lastChange = "2016-11-10 14:23:34 +0000";
layers = (
{
layerId = "24EFEC18-4C8B-448A-94CC-E79C5CDE5BAA";
paths = (
{
closed = 1;
nodes = (
"1222 -20 OFFCURVE",
"1273 -10 OFFCURVE",
"1333 10 CURVE",
"1273 131 LINE",
"1244 122 OFFCURVE",
"1215 118 OFFCURVE",
"1186 118 CURVE SMOOTH",
"1133 118 OFFCURVE",
"1107 153 OFFCURVE",
"1107 223 CURVE SMOOTH",
"1107 260 OFFCURVE",
"1115 315 OFFCURVE",
"1131 390 CURVE SMOOTH",
"1147 465 OFFCURVE",
"1155 529 OFFCURVE",
"1155 582 CURVE SMOOTH",
"1155 678 OFFCURVE",
"1131 769 OFFCURVE",
"1083 856 CURVE SMOOTH",
"986 1029 OFFCURVE",
"823 1118 OFFCURVE",
"626 1118 CURVE SMOOTH",
"527 1118 OFFCURVE",
"438 1093 OFFCURVE",
"358 1043 CURVE SMOOTH",
"197 942 OFFCURVE",
"100 755 OFFCURVE",
"100 538 CURVE SMOOTH",
"100 299 OFFCURVE",
"220 103 OFFCURVE",
"431 -10 CURVE",
"487 124 LINE",
"362 177 OFFCURVE",
"284 319 OFFCURVE",
"284 560 CURVE SMOOTH",
"284 831 OFFCURVE",
"405 980 OFFCURVE",
"626 980 CURVE SMOOTH",
"697 980 OFFCURVE",
"758 965 OFFCURVE",
"810 934 CURVE SMOOTH",
"913 873 OFFCURVE",
"971 737 OFFCURVE",
"971 570 CURVE SMOOTH",
"971 486 OFFCURVE",
"966 411 OFFCURVE",
"955 345 CURVE SMOOTH",
"944 279 OFFCURVE",
"938 234 OFFCURVE",
"938 210 CURVE SMOOTH",
"938 69 OFFCURVE",
"1028 -20 OFFCURVE",
"1180 -20 CURVE SMOOTH"
);
}
);
width = 1439;
}
);
note = uni19B5;
unicode = 19B5;
},
{
glyphname = uni19B6;
lastChange = "2016-11-10 14:23:34 +0000";
layers = (
{
layerId = "24EFEC18-4C8B-448A-94CC-E79C5CDE5BAA";
paths = (
{
closed = 1;
nodes = (
"2452 -20 OFFCURVE",
"2503 -10 OFFCURVE",
"2563 10 CURVE",
"2503 131 LINE",
"2474 122 OFFCURVE",
"2445 118 OFFCURVE",
"2416 118 CURVE SMOOTH",
"2363 118 OFFCURVE",
"2337 153 OFFCURVE",
"2337 223 CURVE SMOOTH",
"2337 260 OFFCURVE",
"2345 315 OFFCURVE",
"2361 390 CURVE SMOOTH",
"2377 465 OFFCURVE",
"2385 529 OFFCURVE",
"2385 582 CURVE SMOOTH",
"2385 678 OFFCURVE",
"2361 769 OFFCURVE",
"2313 856 CURVE SMOOTH",
"2216 1029 OFFCURVE",
"2053 1118 OFFCURVE",
"1856 1118 CURVE SMOOTH",
"1757 1118 OFFCURVE",
"1668 1093 OFFCURVE",
"1588 1043 CURVE SMOOTH",
"1427 942 OFFCURVE",
"1330 755 OFFCURVE",
"1330 538 CURVE SMOOTH",
"1330 299 OFFCURVE",
"1450 103 OFFCURVE",
"1661 -10 CURVE",
"1717 124 LINE",
"1592 177 OFFCURVE",
"1514 319 OFFCURVE",
"1514 560 CURVE SMOOTH",
"1514 831 OFFCURVE",
"1635 980 OFFCURVE",
"1856 980 CURVE SMOOTH",
"1927 980 OFFCURVE",
"1988 965 OFFCURVE",
"2040 934 CURVE SMOOTH",
"2143 873 OFFCURVE",
"2201 737 OFFCURVE",
"2201 570 CURVE SMOOTH",
"2201 486 OFFCURVE",
"2196 411 OFFCURVE",
"2185 345 CURVE SMOOTH",
"2174 279 OFFCURVE",
"2168 234 OFFCURVE",
"2168 210 CURVE SMOOTH",
"2168 69 OFFCURVE",
"2258 -20 OFFCURVE",
"2410 -20 CURVE SMOOTH"
);
},
{
closed = 1;
nodes = (
"1222 -20 OFFCURVE",
"1273 -10 OFFCURVE",
"1333 10 CURVE",
"1273 131 LINE",
"1244 122 OFFCURVE",
"1215 118 OFFCURVE",
"1186 118 CURVE SMOOTH",
"1133 118 OFFCURVE",
"1107 153 OFFCURVE",
"1107 223 CURVE SMOOTH",
"1107 260 OFFCURVE",
"1115 315 OFFCURVE",
"1131 390 CURVE SMOOTH",
"1147 465 OFFCURVE",
"1155 529 OFFCURVE",
"1155 582 CURVE SMOOTH",
"1155 678 OFFCURVE",
"1131 769 OFFCURVE",
"1083 856 CURVE SMOOTH",
"986 1029 OFFCURVE",
"823 1118 OFFCURVE",
"626 1118 CURVE SMOOTH",
"527 1118 OFFCURVE",
"438 1093 OFFCURVE",
"358 1043 CURVE SMOOTH",
"197 942 OFFCURVE",
"100 755 OFFCURVE",
"100 538 CURVE SMOOTH",
"100 299 OFFCURVE",
"220 103 OFFCURVE",
"431 -10 CURVE",
"487 124 LINE",
"362 177 OFFCURVE",
"284 319 OFFCURVE",
"284 560 CURVE SMOOTH",
"284 831 OFFCURVE",
"405 980 OFFCURVE",
"626 980 CURVE SMOOTH",
"697 980 OFFCURVE",
"758 965 OFFCURVE",
"810 934 CURVE SMOOTH",
"913 873 OFFCURVE",
"971 737 OFFCURVE",
"971 570 CURVE SMOOTH",
"971 486 OFFCURVE",
"966 411 OFFCURVE",
"955 345 CURVE SMOOTH",
"944 279 OFFCURVE",
"938 234 OFFCURVE",
"938 210 CURVE SMOOTH",
"938 69 OFFCURVE",
"1028 -20 OFFCURVE",
"1180 -20 CURVE SMOOTH"
);
}
);
width = 2663;
}
);
note = uni19B6;
unicode = 19B6;
},
{
glyphname = uni19B7;
lastChange = "2016-11-10 14:23:34 +0000";
layers = (
{
layerId = "24EFEC18-4C8B-448A-94CC-E79C5CDE5BAA";
paths = (
{
closed = 1;
nodes = (
"780 -20 OFFCURVE",
"909 50 OFFCURVE",
"1002 193 CURVE",
"879 270 LINE",
"815 169 OFFCURVE",
"728 118 OFFCURVE",
"592 118 CURVE SMOOTH",
"399 118 OFFCURVE",
"284 250 OFFCURVE",
"284 465 CURVE SMOOTH",
"284 674 OFFCURVE",
"400 784 OFFCURVE",
"620 787 CURVE",
"620 919 LINE",
"556 919 LINE SMOOTH",
"385 919 OFFCURVE",
"283 994 OFFCURVE",
"283 1122 CURVE SMOOTH",
"283 1254 OFFCURVE",
"380 1326 OFFCURVE",
"555 1326 CURVE SMOOTH",
"668 1326 OFFCURVE",
"775 1286 OFFCURVE",
"839 1222 CURVE",
"947 1335 LINE",
"860 1415 OFFCURVE",
"724 1464 OFFCURVE",
"571 1464 CURVE SMOOTH",
"482 1464 OFFCURVE",
"402 1450 OFFCURVE",
"332 1421 CURVE SMOOTH",
"191 1363 OFFCURVE",
"100 1237 OFFCURVE",
"100 1108 CURVE SMOOTH",
"100 983 OFFCURVE",
"182 876 OFFCURVE",
"311 828 CURVE",
"179 743 OFFCURVE",
"100 615 OFFCURVE",
"100 463 CURVE SMOOTH",
"100 372 OFFCURVE",
"120 289 OFFCURVE",
"161 215 CURVE SMOOTH",
"242 67 OFFCURVE",
"398 -20 OFFCURVE",
"579 -20 CURVE SMOOTH"
);
}
);
width = 1082;
}
);
note = uni19B7;
unicode = 19B7;
},
{
glyphname = uni19B8;
lastChange = "2016-11-10 14:23:34 +0000";
layers = (
{
layerId = "24EFEC18-4C8B-448A-94CC-E79C5CDE5BAA";
paths = (
{
closed = 1;
nodes = (
"206 -20 OFFCURVE",
"345 34 OFFCURVE",
"485 142 CURVE",
"609 34 OFFCURVE",
"737 -20 OFFCURVE",
"868 -20 CURVE SMOOTH",
"943 -20 OFFCURVE",
"1034 -1 OFFCURVE",
"1103 42 CURVE",
"1035 162 LINE",
"999 138 OFFCURVE",
"925 118 OFFCURVE",
"873 118 CURVE SMOOTH",
"774 118 OFFCURVE",
"681 158 OFFCURVE",
"593 237 CURVE",
"750 396 OFFCURVE",
"845 593 OFFCURVE",
"845 749 CURVE SMOOTH",
"845 827 OFFCURVE",
"830 893 OFFCURVE",
"801 948 CURVE SMOOTH",
"742 1057 OFFCURVE",
"638 1118 OFFCURVE",
"511 1118 CURVE SMOOTH",
"452 1118 OFFCURVE",
"398 1102 OFFCURVE",
"348 1071 CURVE SMOOTH",
"247 1008 OFFCURVE",
"184 894 OFFCURVE",
"184 763 CURVE SMOOTH",
"184 581 OFFCURVE",
"251 409 OFFCURVE",
"384 247 CURVE",
"279 166 OFFCURVE",
"159 118 OFFCURVE",
"55 118 CURVE SMOOTH",
"37 118 OFFCURVE",
"16 120 OFFCURVE",
"-8 124 CURVE",
"-40 -11 LINE",
"-5 -17 OFFCURVE",
"31 -20 OFFCURVE",
"68 -20 CURVE SMOOTH"
);
},
{
closed = 1;
nodes = (
"410 475 OFFCURVE",
"368 613 OFFCURVE",
"368 763 CURVE SMOOTH",
"368 915 OFFCURVE",
"415 980 OFFCURVE",
"511 980 CURVE SMOOTH",
"619 980 OFFCURVE",
"661 909 OFFCURVE",
"661 745 CURVE SMOOTH",
"661 598 OFFCURVE",
"594 461 OFFCURVE",
"495 350 CURVE"
);
}
);
width = 1063;
}
);
note = uni19B8;
unicode = 19B8;
},
{
glyphname = uni19B9;
lastChange = "2016-11-10 14:23:34 +0000";
layers = (
{
layerId = "24EFEC18-4C8B-448A-94CC-E79C5CDE5BAA";
paths = (
{
closed = 1;
nodes = (
"949 -20 OFFCURVE",
"1136 301 OFFCURVE",
"1136 840 CURVE SMOOTH",
"1136 1429 OFFCURVE",
"957 1740 OFFCURVE",
"616 1740 CURVE SMOOTH",
"279 1740 OFFCURVE",
"100 1428 OFFCURVE",
"100 840 CURVE SMOOTH",
"100 304 OFFCURVE",
"288 -20 OFFCURVE",
"616 -20 CURVE SMOOTH"
);
},
{
closed = 1;
nodes = (
"411 118 OFFCURVE",
"303 308 OFFCURVE",
"286 707 CURVE",
"355 808 OFFCURVE",
"480 870 OFFCURVE",
"605 870 CURVE SMOOTH",
"756 870 OFFCURVE",
"881 805 OFFCURVE",
"948 696 CURVE",
"931 296 OFFCURVE",
"823 118 OFFCURVE",
"616 118 CURVE SMOOTH"
);
},
{
closed = 1;
nodes = (
"287 1123 OFFCURVE",
"308 1290 OFFCURVE",
"348 1397 CURVE SMOOTH",
"388 1504 OFFCURVE",
"450 1568 OFFCURVE",
"534 1591 CURVE",
"534 1002 LINE",
"441 989 OFFCURVE",
"357 954 OFFCURVE",
"284 898 CURVE"
);
},
{
closed = 1;
nodes = (
"879 947 OFFCURVE",
"795 984 OFFCURVE",
"702 1000 CURVE",
"702 1590 LINE",
"786 1565 OFFCURVE",
"848 1496 OFFCURVE",
"888 1385 CURVE SMOOTH",
"928 1273 OFFCURVE",
"949 1108 OFFCURVE",
"952 890 CURVE"
);
}
);
width = 1236;
}
);
note = uni19B9;
unicode = 19B9;
},
{
glyphname = uni19BA;
lastChange = "2016-11-10 14:23:34 +0000";
layers = (
{
layerId = "24EFEC18-4C8B-448A-94CC-E79C5CDE5BAA";
paths = (
{
closed = 1;
nodes = (
"782 -20 OFFCURVE",
"931 70 OFFCURVE",
"1032 238 CURVE",
"900 313 LINE",
"849 206 OFFCURVE",
"719 118 OFFCURVE",
"592 118 CURVE SMOOTH",
"405 118 OFFCURVE",
"284 292 OFFCURVE",
"284 555 CURVE SMOOTH",
"284 830 OFFCURVE",
"403 980 OFFCURVE",
"603 980 CURVE SMOOTH",
"703 980 OFFCURVE",
"802 930 OFFCURVE",
"863 839 CURVE",
"1013 915 LINE",
"1013 956 LINE SMOOTH",
"1013 1443 OFFCURVE",
"861 1740 OFFCURVE",
"589 1740 CURVE SMOOTH",
"532 1740 OFFCURVE",
"466 1723 OFFCURVE",
"390 1689 CURVE",
"470 1567 LINE",
"518 1590 OFFCURVE",
"566 1602 OFFCURVE",
"615 1602 CURVE SMOOTH",
"723 1602 OFFCURVE",
"779 1542 OFFCURVE",
"807 1401 CURVE SMOOTH",
"821 1330 OFFCURVE",
"830 1215 OFFCURVE",
"833 1056 CURVE",
"758 1097 OFFCURVE",
"679 1118 OFFCURVE",
"594 1118 CURVE SMOOTH",
"493 1118 OFFCURVE",
"406 1096 OFFCURVE",
"332 1053 CURVE SMOOTH",
"184 966 OFFCURVE",
"100 793 OFFCURVE",
"100 553 CURVE SMOOTH",
"100 438 OFFCURVE",
"122 337 OFFCURVE",
"165 251 CURVE SMOOTH",
"252 78 OFFCURVE",
"414 -20 OFFCURVE",
"601 -20 CURVE SMOOTH"
);
}
);
width = 1152;
}
);
note = uni19BA;
unicode = 19BA;
},
{
glyphname = uni19BB;
lastChange = "2016-11-10 14:23:34 +0000";
layers = (
{
layerId = "24EFEC18-4C8B-448A-94CC-E79C5CDE5BAA";
paths = (
{
closed = 1;
nodes = (
"1378 -570 OFFCURVE",
"1513 -360 OFFCURVE",
"1513 -71 CURVE SMOOTH",
"1513 1098 LINE",
"1335 1098 LINE",
"1335 -74 LINE SMOOTH",
"1335 -170 OFFCURVE",
"1330 -242 OFFCURVE",
"1320 -289 CURVE SMOOTH",
"1299 -384 OFFCURVE",
"1254 -432 OFFCURVE",
"1174 -432 CURVE SMOOTH",
"1094 -432 OFFCURVE",
"1049 -384 OFFCURVE",
"1028 -291 CURVE SMOOTH",
"1017 -245 OFFCURVE",
"1012 -173 OFFCURVE",
"1012 -74 CURVE SMOOTH",
"1012 553 LINE SMOOTH",
"1012 674 OFFCURVE",
"992 776 OFFCURVE",
"952 861 CURVE SMOOTH",
"871 1030 OFFCURVE",
"719 1118 OFFCURVE",
"518 1118 CURVE SMOOTH",
"363 1118 OFFCURVE",
"214 1046 OFFCURVE",
"118 915 CURVE",
"249 839 LINE",
"304 926 OFFCURVE",
"405 980 OFFCURVE",
"509 980 CURVE SMOOTH",
"709 980 OFFCURVE",
"828 828 OFFCURVE",
"828 555 CURVE SMOOTH",
"828 292 OFFCURVE",
"707 118 OFFCURVE",
"520 118 CURVE SMOOTH",
"391 118 OFFCURVE",
"257 212 OFFCURVE",
"212 313 CURVE",
"80 238 LINE",
"181 69 OFFCURVE",
"331 -20 OFFCURVE",
"511 -20 CURVE SMOOTH",
"636 -20 OFFCURVE",
"743 20 OFFCURVE",
"834 100 CURVE",
"834 -83 LINE SMOOTH",
"834 -171 OFFCURVE",
"849 -253 OFFCURVE",
"878 -330 CURVE SMOOTH",
"936 -483 OFFCURVE",
"1043 -570 OFFCURVE",
"1174 -570 CURVE SMOOTH"
);
}
);
width = 1653;
}
);
note = uni19BB;
unicode = 19BB;
},
{
glyphname = uni19BC;
lastChange = "2016-11-10 14:23:34 +0000";
layers = (
{
layerId = "24EFEC18-4C8B-448A-94CC-E79C5CDE5BAA";
paths = (
{
closed = 1;
nodes = (
"1405 -570 OFFCURVE",
"1540 -360 OFFCURVE",
"1540 -71 CURVE SMOOTH",
"1540 1098 LINE",
"1362 1098 LINE",
"1362 -74 LINE SMOOTH",
"1362 -170 OFFCURVE",
"1357 -242 OFFCURVE",
"1347 -289 CURVE SMOOTH",
"1326 -384 OFFCURVE",
"1281 -432 OFFCURVE",
"1201 -432 CURVE SMOOTH",
"1121 -432 OFFCURVE",
"1076 -384 OFFCURVE",
"1055 -291 CURVE SMOOTH",
"1044 -245 OFFCURVE",
"1039 -173 OFFCURVE",
"1039 -74 CURVE SMOOTH",
"1039 1098 LINE",
"861 1098 LINE",
"861 464 LINE SMOOTH",
"861 244 OFFCURVE",
"756 118 OFFCURVE",
"587 118 CURVE SMOOTH",
"533 118 OFFCURVE",
"490 129 OFFCURVE",
"458 150 CURVE SMOOTH",
"393 193 OFFCURVE",
"363 264 OFFCURVE",
"363 416 CURVE SMOOTH",
"363 763 LINE SMOOTH",
"363 834 OFFCURVE",
"352 896 OFFCURVE",
"331 950 CURVE SMOOTH",
"288 1058 OFFCURVE",
"212 1118 OFFCURVE",
"128 1118 CURVE SMOOTH",
"86 1118 OFFCURVE",
"50 1113 OFFCURVE",
"20 1103 CURVE",
"34 971 LINE",
"55 977 OFFCURVE",
"77 980 OFFCURVE",
"101 980 CURVE SMOOTH",
"156 980 OFFCURVE",
"185 942 OFFCURVE",
"185 875 CURVE SMOOTH",
"185 412 LINE SMOOTH",
"185 340 OFFCURVE",
"203 270 OFFCURVE",
"240 202 CURVE SMOOTH",
"312 66 OFFCURVE",
"440 -20 OFFCURVE",
"580 -20 CURVE SMOOTH",
"683 -20 OFFCURVE",
"777 29 OFFCURVE",
"861 126 CURVE",
"861 -83 LINE SMOOTH",
"861 -171 OFFCURVE",
"876 -253 OFFCURVE",
"905 -330 CURVE SMOOTH",
"963 -483 OFFCURVE",
"1070 -570 OFFCURVE",
"1201 -570 CURVE SMOOTH"
);
}
);
width = 1680;
}
);
note = uni19BC;
unicode = 19BC;
},
{
glyphname = uni19BD;
lastChange = "2016-11-10 14:23:34 +0000";
layers = (
{
layerId = "24EFEC18-4C8B-448A-94CC-E79C5CDE5BAA";
paths = (
{
closed = 1;
nodes = (
"1401 -570 OFFCURVE",
"1536 -360 OFFCURVE",
"1536 -71 CURVE SMOOTH",
"1536 1098 LINE",
"1358 1098 LINE",
"1358 -74 LINE SMOOTH",
"1358 -170 OFFCURVE",
"1353 -242 OFFCURVE",
"1343 -289 CURVE SMOOTH",
"1322 -384 OFFCURVE",
"1277 -432 OFFCURVE",
"1197 -432 CURVE SMOOTH",
"1117 -432 OFFCURVE",
"1072 -384 OFFCURVE",
"1051 -291 CURVE SMOOTH",
"1040 -245 OFFCURVE",
"1035 -173 OFFCURVE",
"1035 -74 CURVE SMOOTH",
"1035 551 LINE SMOOTH",
"1035 660 OFFCURVE",
"1016 758 OFFCURVE",
"978 845 CURVE SMOOTH",
"901 1018 OFFCURVE",
"754 1118 OFFCURVE",
"570 1118 CURVE SMOOTH",
"477 1118 OFFCURVE",
"395 1094 OFFCURVE",
"324 1047 CURVE SMOOTH",
"181 952 OFFCURVE",
"100 770 OFFCURVE",
"100 551 CURVE SMOOTH",
"100 445 OFFCURVE",
"120 348 OFFCURVE",
"160 260 CURVE SMOOTH",
"239 84 OFFCURVE",
"390 -20 OFFCURVE",
"563 -20 CURVE SMOOTH",
"680 -20 OFFCURVE",
"778 15 OFFCURVE",
"857 84 CURVE",
"857 -83 LINE SMOOTH",
"857 -171 OFFCURVE",
"872 -253 OFFCURVE",
"901 -330 CURVE SMOOTH",
"959 -483 OFFCURVE",
"1066 -570 OFFCURVE",
"1197 -570 CURVE SMOOTH"
);
},
{
closed = 1;
nodes = (
"389 118 OFFCURVE",
"284 283 OFFCURVE",
"284 551 CURVE SMOOTH",
"284 822 OFFCURVE",
"388 980 OFFCURVE",
"565 980 CURVE SMOOTH",
"749 980 OFFCURVE",
"851 826 OFFCURVE",
"851 551 CURVE SMOOTH",
"851 279 OFFCURVE",
"751 118 OFFCURVE",
"568 118 CURVE SMOOTH"
);
}
);
width = 1676;
}
);
note = uni19BD;
unicode = 19BD;
},
{
glyphname = uni19BE;
lastChange = "2016-11-10 14:23:34 +0000";
layers = (
{
layerId = "24EFEC18-4C8B-448A-94CC-E79C5CDE5BAA";
paths = (
{
closed = 1;
nodes = (
"206 -20 OFFCURVE",
"345 34 OFFCURVE",
"485 142 CURVE",
"609 34 OFFCURVE",
"737 -20 OFFCURVE",
"868 -20 CURVE SMOOTH",
"963 -20 OFFCURVE",
"1046 14 OFFCURVE",
"1117 82 CURVE SMOOTH",
"1257 217 OFFCURVE",
"1338 492 OFFCURVE",
"1338 821 CURVE SMOOTH",
"1338 865 LINE SMOOTH",
"1338 1068 OFFCURVE",
"1344 1219 OFFCURVE",
"1355 1319 CURVE SMOOTH",
"1378 1518 OFFCURVE",
"1427 1602 OFFCURVE",
"1523 1602 CURVE SMOOTH",
"1556 1602 OFFCURVE",
"1586 1597 OFFCURVE",
"1615 1587 CURVE",
"1682 1714 LINE",
"1633 1731 OFFCURVE",
"1591 1740 OFFCURVE",
"1554 1740 CURVE SMOOTH",
"1477 1740 OFFCURVE",
"1409 1707 OFFCURVE",
"1350 1642 CURVE SMOOTH",
"1231 1511 OFFCURVE",
"1160 1251 OFFCURVE",
"1160 951 CURVE SMOOTH",
"1160 745 LINE SMOOTH",
"1160 530 OFFCURVE",
"1137 372 OFFCURVE",
"1090 271 CURVE SMOOTH",
"1043 170 OFFCURVE",
"971 120 OFFCURVE",
"873 120 CURVE SMOOTH",
"769 120 OFFCURVE",
"690 148 OFFCURVE",
"593 237 CURVE",
"750 396 OFFCURVE",
"845 593 OFFCURVE",
"845 749 CURVE SMOOTH",
"845 820 OFFCURVE",
"831 882 OFFCURVE",
"804 937 CURVE SMOOTH",
"748 1045 OFFCURVE",
"631 1118 OFFCURVE",
"511 1118 CURVE SMOOTH",
"458 1118 OFFCURVE",
"407 1102 OFFCURVE",
"356 1071 CURVE SMOOTH",
"254 1007 OFFCURVE",
"184 891 OFFCURVE",
"184 763 CURVE SMOOTH",
"184 581 OFFCURVE",
"251 409 OFFCURVE",
"384 247 CURVE",
"279 166 OFFCURVE",
"159 118 OFFCURVE",
"55 118 CURVE SMOOTH",
"37 118 OFFCURVE",
"16 120 OFFCURVE",
"-8 124 CURVE",
"-40 -11 LINE",
"-5 -17 OFFCURVE",
"31 -20 OFFCURVE",
"68 -20 CURVE SMOOTH"
);
},
{
closed = 1;
nodes = (
"410 475 OFFCURVE",
"368 613 OFFCURVE",
"368 763 CURVE SMOOTH",
"368 915 OFFCURVE",
"415 980 OFFCURVE",
"511 980 CURVE SMOOTH",
"619 980 OFFCURVE",
"661 909 OFFCURVE",
"661 745 CURVE SMOOTH",
"661 598 OFFCURVE",
"594 461 OFFCURVE",
"495 350 CURVE"
);
}
);
width = 1482;
}
);
note = uni19BE;
unicode = 19BE;
},
{
glyphname = uni19BF;
lastChange = "2016-11-10 14:23:34 +0000";
layers = (
{
layerId = "24EFEC18-4C8B-448A-94CC-E79C5CDE5BAA";
paths = (
{
closed = 1;
nodes = (
"1363 -570 OFFCURVE",
"1422 -549 OFFCURVE",
"1473 -507 CURVE SMOOTH",
"1576 -423 OFFCURVE",
"1637 -256 OFFCURVE",
"1637 -83 CURVE SMOOTH",
"1637 1098 LINE",
"1459 1098 LINE",
"1459 -74 LINE SMOOTH",
"1459 -172 OFFCURVE",
"1454 -244 OFFCURVE",
"1443 -291 CURVE SMOOTH",
"1422 -384 OFFCURVE",
"1377 -432 OFFCURVE",
"1297 -432 CURVE SMOOTH",
"1218 -432 OFFCURVE",
"1173 -384 OFFCURVE",
"1152 -291 CURVE SMOOTH",
"1141 -245 OFFCURVE",
"1136 -173 OFFCURVE",
"1136 -74 CURVE SMOOTH",
"1136 840 LINE SMOOTH",
"1136 1429 OFFCURVE",
"957 1740 OFFCURVE",
"616 1740 CURVE SMOOTH",
"279 1740 OFFCURVE",
"100 1428 OFFCURVE",
"100 840 CURVE SMOOTH",
"100 304 OFFCURVE",
"288 -20 OFFCURVE",
"616 -20 CURVE SMOOTH",
"751 -20 OFFCURVE",
"865 49 OFFCURVE",
"958 186 CURVE",
"958 -71 LINE SMOOTH",
"958 -371 OFFCURVE",
"1093 -570 OFFCURVE",
"1297 -570 CURVE SMOOTH"
);
},
{
closed = 1;
nodes = (
"411 118 OFFCURVE",
"303 308 OFFCURVE",
"286 707 CURVE",
"355 808 OFFCURVE",
"480 870 OFFCURVE",
"605 870 CURVE SMOOTH",
"756 870 OFFCURVE",
"881 805 OFFCURVE",
"948 696 CURVE",
"931 296 OFFCURVE",
"823 118 OFFCURVE",
"616 118 CURVE SMOOTH"
);
},
{
closed = 1;
nodes = (
"287 1123 OFFCURVE",
"308 1290 OFFCURVE",
"348 1397 CURVE SMOOTH",
"388 1504 OFFCURVE",
"450 1568 OFFCURVE",
"534 1591 CURVE",
"534 1002 LINE",
"441 989 OFFCURVE",
"357 954 OFFCURVE",
"284 898 CURVE"
);
},
{
closed = 1;
nodes = (
"879 947 OFFCURVE",
"795 984 OFFCURVE",
"702 1000 CURVE",
"702 1590 LINE",
"786 1565 OFFCURVE",
"848 1496 OFFCURVE",
"888 1385 CURVE SMOOTH",
"928 1273 OFFCURVE",
"949 1108 OFFCURVE",
"952 890 CURVE"
);
}
);
width = 1777;
}
);
note = uni19BF;
unicode = 19BF;
},
{
glyphname = uni19C0;
lastChange = "2016-11-10 14:23:34 +0000";
layers = (
{
layerId = "24EFEC18-4C8B-448A-94CC-E79C5CDE5BAA";
paths = (
{
closed = 1;
nodes = (
"1363 -570 OFFCURVE",
"1422 -549 OFFCURVE",
"1473 -507 CURVE SMOOTH",
"1576 -423 OFFCURVE",
"1637 -256 OFFCURVE",
"1637 -83 CURVE SMOOTH",
"1637 1098 LINE",
"1459 1098 LINE",
"1459 -74 LINE SMOOTH",
"1459 -172 OFFCURVE",
"1454 -244 OFFCURVE",
"1443 -291 CURVE SMOOTH",
"1422 -384 OFFCURVE",
"1377 -432 OFFCURVE",
"1297 -432 CURVE SMOOTH",
"1218 -432 OFFCURVE",
"1173 -384 OFFCURVE",
"1152 -291 CURVE SMOOTH",
"1141 -245 OFFCURVE",
"1136 -173 OFFCURVE",
"1136 -74 CURVE SMOOTH",
"1136 840 LINE SMOOTH",
"1136 1429 OFFCURVE",
"957 1740 OFFCURVE",
"616 1740 CURVE SMOOTH",
"279 1740 OFFCURVE",
"100 1428 OFFCURVE",
"100 840 CURVE SMOOTH",
"100 304 OFFCURVE",
"288 -20 OFFCURVE",
"616 -20 CURVE SMOOTH",
"751 -20 OFFCURVE",
"865 49 OFFCURVE",
"958 187 CURVE",
"958 -71 LINE SMOOTH",
"958 -371 OFFCURVE",
"1093 -570 OFFCURVE",
"1297 -570 CURVE SMOOTH"
);
},
{
closed = 1;
nodes = (
"411 118 OFFCURVE",
"303 308 OFFCURVE",
"286 707 CURVE",
"355 808 OFFCURVE",
"480 870 OFFCURVE",
"605 870 CURVE SMOOTH",
"756 870 OFFCURVE",
"881 805 OFFCURVE",
"948 696 CURVE",
"931 296 OFFCURVE",
"823 118 OFFCURVE",
"616 118 CURVE SMOOTH"
);
},
{
closed = 1;
nodes = (
"851 969 OFFCURVE",
"737 1008 OFFCURVE",
"610 1008 CURVE SMOOTH",
"493 1008 OFFCURVE",
"376 967 OFFCURVE",
"284 898 CURVE",
"287 1149 OFFCURVE",
"314 1330 OFFCURVE",
"366 1439 CURVE SMOOTH",
"418 1548 OFFCURVE",
"501 1602 OFFCURVE",
"616 1602 CURVE SMOOTH",
"729 1602 OFFCURVE",
"813 1546 OFFCURVE",
"867 1433 CURVE SMOOTH",
"921 1320 OFFCURVE",
"949 1139 OFFCURVE",
"952 890 CURVE"
);
}
);
width = 1777;
}
);
note = uni19C0;
unicode = 19C0;
},
{
glyphname = uni19C2;
lastChange = "2016-11-10 14:23:34 +0000";
layers = (
{
layerId = "24EFEC18-4C8B-448A-94CC-E79C5CDE5BAA";
paths = (
{
closed = 1;
nodes = (
"793 -600 OFFCURVE",
"876 -556 OFFCURVE",
"955 -468 CURVE SMOOTH",
"1113 -293 OFFCURVE",
"1225 37 OFFCURVE",
"1225 332 CURVE SMOOTH",
"1225 817 OFFCURVE",
"1007 1118 OFFCURVE",
"643 1118 CURVE SMOOTH",
"544 1118 OFFCURVE",
"453 1092 OFFCURVE",
"369 1040 CURVE SMOOTH",
"201 935 OFFCURVE",
"100 737 OFFCURVE",
"100 493 CURVE SMOOTH",
"100 158 OFFCURVE",
"187 -20 OFFCURVE",
"354 -20 CURVE SMOOTH",
"423 -20 OFFCURVE",
"468 10 OFFCURVE",
"501 50 CURVE SMOOTH",
"533 89 OFFCURVE",
"552 139 OFFCURVE",
"569 179 CURVE SMOOTH",
"585 218 OFFCURVE",
"601 248 OFFCURVE",
"625 248 CURVE SMOOTH",
"639 248 OFFCURVE",
"652 235 OFFCURVE",
"664 209 CURVE SMOOTH",
"676 182 OFFCURVE",
"682 141 OFFCURVE",
"682 85 CURVE",
"679 0 LINE",
"829 68 LINE",
"832 137 LINE",
"832 292 OFFCURVE",
"766 386 OFFCURVE",
"646 386 CURVE SMOOTH",
"583 386 OFFCURVE",
"528 341 OFFCURVE",
"481 252 CURVE SMOOTH",
"454 201 OFFCURVE",
"432 166 OFFCURVE",
"417 147 CURVE SMOOTH",
"401 128 OFFCURVE",
"385 118 OFFCURVE",
"369 118 CURVE SMOOTH",
"340 118 OFFCURVE",
"318 149 OFFCURVE",
"305 212 CURVE SMOOTH",
"291 274 OFFCURVE",
"284 376 OFFCURVE",
"284 517 CURVE SMOOTH",
"284 804 OFFCURVE",
"415 980 OFFCURVE",
"639 980 CURVE SMOOTH",
"906 980 OFFCURVE",
"1040 766 OFFCURVE",
"1040 339 CURVE SMOOTH",
"1040 28 OFFCURVE",
"1000 -184 OFFCURVE",
"925 -343 CURVE",
"909 -242 OFFCURVE",
"817 -170 OFFCURVE",
"712 -170 CURVE SMOOTH",
"569 -170 OFFCURVE",
"474 -256 OFFCURVE",
"474 -377 CURVE SMOOTH",
"474 -512 OFFCURVE",
"570 -600 OFFCURVE",
"706 -600 CURVE SMOOTH"
);
},
{
closed = 1;
nodes = (
"653 -480 OFFCURVE",
"611 -440 OFFCURVE",
"611 -383 CURVE SMOOTH",
"611 -323 OFFCURVE",
"653 -282 OFFCURVE",
"708 -282 CURVE SMOOTH",
"760 -282 OFFCURVE",
"802 -326 OFFCURVE",
"802 -383 CURVE SMOOTH",
"802 -438 OFFCURVE",
"761 -480 OFFCURVE",
"708 -480 CURVE SMOOTH"
);
}
);
width = 1325;
}
);
note = uni19C2;
unicode = 19C2;
},
{
glyphname = uni19C3;
lastChange = "2016-11-10 14:23:34 +0000";
layers = (
{
layerId = "24EFEC18-4C8B-448A-94CC-E79C5CDE5BAA";
paths = (
{
closed = 1;
nodes = (
"659 -600 OFFCURVE",
"743 -579 OFFCURVE",
"828 -538 CURVE SMOOTH",
"999 -456 OFFCURVE",
"1097 -317 OFFCURVE",
"1097 -165 CURVE SMOOTH",
"1097 22 OFFCURVE",
"921 158 OFFCURVE",
"686 158 CURVE SMOOTH",
"641 158 OFFCURVE",
"595 153 OFFCURVE",
"546 143 CURVE SMOOTH",
"497 133 OFFCURVE",
"458 128 OFFCURVE",
"428 128 CURVE SMOOTH",
"385 128 OFFCURVE",
"350 166 OFFCURVE",
"324 243 CURVE SMOOTH",
"297 320 OFFCURVE",
"284 420 OFFCURVE",
"284 545 CURVE SMOOTH",
"284 842 OFFCURVE",
"385 980 OFFCURVE",
"609 980 CURVE SMOOTH",
"718 980 OFFCURVE",
"802 933 OFFCURVE",
"861 839 CURVE",
"994 942 LINE",
"893 1058 OFFCURVE",
"773 1118 OFFCURVE",
"609 1118 CURVE SMOOTH",
"516 1118 OFFCURVE",
"430 1092 OFFCURVE",
"352 1039 CURVE SMOOTH",
"195 934 OFFCURVE",
"100 741 OFFCURVE",
"100 533 CURVE SMOOTH",
"100 430 OFFCURVE",
"113 337 OFFCURVE",
"140 254 CURVE SMOOTH",
"193 88 OFFCURVE",
"292 -10 OFFCURVE",
"400 -10 CURVE SMOOTH",
"446 -10 OFFCURVE",
"496 -5 OFFCURVE",
"549 5 CURVE SMOOTH",
"602 15 OFFCURVE",
"642 20 OFFCURVE",
"669 20 CURVE SMOOTH",
"820 20 OFFCURVE",
"907 -60 OFFCURVE",
"907 -187 CURVE SMOOTH",
"907 -322 OFFCURVE",
"841 -416 OFFCURVE",
"733 -460 CURVE",
"737 -441 OFFCURVE",
"739 -419 OFFCURVE",
"739 -392 CURVE SMOOTH",
"739 -260 OFFCURVE",
"646 -170 OFFCURVE",
"517 -170 CURVE SMOOTH",
"381 -170 OFFCURVE",
"285 -259 OFFCURVE",
"285 -382 CURVE SMOOTH",
"285 -522 OFFCURVE",
"393 -600 OFFCURVE",
"577 -600 CURVE SMOOTH"
);
},
{
closed = 1;
nodes = (
"464 -480 OFFCURVE",
"422 -440 OFFCURVE",
"422 -383 CURVE SMOOTH",
"422 -323 OFFCURVE",
"464 -282 OFFCURVE",
"519 -282 CURVE SMOOTH",
"571 -282 OFFCURVE",
"613 -326 OFFCURVE",
"613 -383 CURVE SMOOTH",
"613 -438 OFFCURVE",
"572 -480 OFFCURVE",
"519 -480 CURVE SMOOTH"
);
}
);
width = 1197;
}
);
note = uni19C3;
unicode = 19C3;
},
{
glyphname = uni19C4;
lastChange = "2016-11-10 14:23:34 +0000";
layers = (
{
layerId = "24EFEC18-4C8B-448A-94CC-E79C5CDE5BAA";
paths = (
{
closed = 1;
nodes = (
"702 -600 OFFCURVE",
"789 -576 OFFCURVE",
"870 -528 CURVE SMOOTH",
"1031 -432 OFFCURVE",
"1130 -251 OFFCURVE",
"1130 -20 CURVE SMOOTH",
"1130 69 OFFCURVE",
"1112 152 OFFCURVE",
"1075 229 CURVE",
"1126 319 OFFCURVE",
"1152 426 OFFCURVE",
"1152 550 CURVE SMOOTH",
"1152 793 OFFCURVE",
"1029 997 OFFCURVE",
"821 1108 CURVE",
"765 969 LINE",
"890 916 OFFCURVE",
"968 778 OFFCURVE",
"968 538 CURVE SMOOTH",
"968 483 OFFCURVE",
"963 434 OFFCURVE",
"953 390 CURVE",
"865 469 OFFCURVE",
"759 508 OFFCURVE",
"636 508 CURVE SMOOTH",
"521 508 OFFCURVE",
"400 469 OFFCURVE",
"301 378 CURVE",
"290 427 OFFCURVE",
"284 481 OFFCURVE",
"284 538 CURVE SMOOTH",
"284 778 OFFCURVE",
"362 916 OFFCURVE",
"487 969 CURVE",
"431 1108 LINE",
"224 997 OFFCURVE",
"100 793 OFFCURVE",
"100 550 CURVE SMOOTH",
"100 435 OFFCURVE",
"122 334 OFFCURVE",
"166 249 CURVE SMOOTH",
"253 77 OFFCURVE",
"422 -20 OFFCURVE",
"626 -20 CURVE SMOOTH",
"747 -20 OFFCURVE",
"851 12 OFFCURVE",
"938 75 CURVE",
"943 44 OFFCURVE",
"946 11 OFFCURVE",
"946 -25 CURVE SMOOTH",
"946 -224 OFFCURVE",
"873 -404 OFFCURVE",
"764 -460 CURVE",
"768 -441 OFFCURVE",
"770 -418 OFFCURVE",
"770 -391 CURVE SMOOTH",
"770 -259 OFFCURVE",
"673 -170 OFFCURVE",
"548 -170 CURVE SMOOTH",
"409 -170 OFFCURVE",
"315 -263 OFFCURVE",
"315 -382 CURVE SMOOTH",
"315 -522 OFFCURVE",
"423 -600 OFFCURVE",
"607 -600 CURVE SMOOTH"
);
},
{
closed = 1;
nodes = (
"494 -480 OFFCURVE",
"452 -440 OFFCURVE",
"452 -383 CURVE SMOOTH",
"452 -323 OFFCURVE",
"494 -282 OFFCURVE",
"549 -282 CURVE SMOOTH",
"601 -282 OFFCURVE",
"643 -326 OFFCURVE",
"643 -383 CURVE SMOOTH",
"643 -438 OFFCURVE",
"602 -480 OFFCURVE",
"549 -480 CURVE SMOOTH"
);
},
{
closed = 1;
nodes = (
"513 118 OFFCURVE",
"427 156 OFFCURVE",
"368 231 CURVE",
"425 316 OFFCURVE",
"526 370 OFFCURVE",
"627 370 CURVE SMOOTH",
"741 370 OFFCURVE",
"826 324 OFFCURVE",
"883 233 CURVE",
"824 156 OFFCURVE",
"738 118 OFFCURVE",
"626 118 CURVE SMOOTH"
);
}
);
width = 1252;
}
);
note = uni19C4;
unicode = 19C4;
},
{
glyphname = uni19C6;
lastChange = "2016-11-10 14:23:34 +0000";
layers = (
{
layerId = "24EFEC18-4C8B-448A-94CC-E79C5CDE5BAA";
paths = (
{
closed = 1;
nodes = (
"582 -600 OFFCURVE",
"664 -579 OFFCURVE",
"745 -536 CURVE SMOOTH",
"905 -452 OFFCURVE",
"994 -315 OFFCURVE",
"994 -162 CURVE SMOOTH",
"994 -46 OFFCURVE",
"918 55 OFFCURVE",
"809 95 CURVE",
"934 187 OFFCURVE",
"1012 349 OFFCURVE",
"1012 553 CURVE SMOOTH",
"1012 670 OFFCURVE",
"992 772 OFFCURVE",
"952 857 CURVE SMOOTH",
"872 1027 OFFCURVE",
"721 1118 OFFCURVE",
"530 1118 CURVE SMOOTH",
"366 1118 OFFCURVE",
"221 1048 OFFCURVE",
"118 916 CURVE",
"249 839 LINE",
"312 933 OFFCURVE",
"399 980 OFFCURVE",
"509 980 CURVE SMOOTH",
"706 980 OFFCURVE",
"828 824 OFFCURVE",
"828 559 CURVE SMOOTH",
"828 303 OFFCURVE",
"722 148 OFFCURVE",
"547 148 CURVE SMOOTH",
"528 148 LINE",
"508 147 LINE",
"508 9 LINE",
"524 10 LINE",
"539 10 LINE SMOOTH",
"715 10 OFFCURVE",
"811 -64 OFFCURVE",
"811 -193 CURVE SMOOTH",
"811 -326 OFFCURVE",
"763 -408 OFFCURVE",
"652 -460 CURVE",
"657 -391 LINE",
"657 -259 OFFCURVE",
"565 -170 OFFCURVE",
"437 -170 CURVE SMOOTH",
"304 -170 OFFCURVE",
"205 -261 OFFCURVE",
"205 -382 CURVE SMOOTH",
"205 -525 OFFCURVE",
"306 -600 OFFCURVE",
"497 -600 CURVE SMOOTH"
);
},
{
closed = 1;
nodes = (
"384 -480 OFFCURVE",
"342 -440 OFFCURVE",
"342 -383 CURVE SMOOTH",
"342 -323 OFFCURVE",
"384 -282 OFFCURVE",
"439 -282 CURVE SMOOTH",
"491 -282 OFFCURVE",
"533 -326 OFFCURVE",
"533 -383 CURVE SMOOTH",
"533 -438 OFFCURVE",
"492 -480 OFFCURVE",
"439 -480 CURVE SMOOTH"
);
}
);
width = 1112;
}
);
note = uni19C6;
unicode = 19C6;
},
{
glyphname = uni19C8;
lastChange = "2016-11-10 14:23:34 +0000";
layers = (
{
layerId = "24EFEC18-4C8B-448A-94CC-E79C5CDE5BAA";
paths = (
{
closed = 1;
nodes = (
"643 -20 OFFCURVE",
"707 -5 OFFCURVE",
"765 26 CURVE SMOOTH",
"880 87 OFFCURVE",
"948 200 OFFCURVE",
"948 313 CURVE SMOOTH",
"948 372 OFFCURVE",
"932 425 OFFCURVE",
"899 471 CURVE SMOOTH",
"834 563 OFFCURVE",
"710 618 OFFCURVE",
"578 618 CURVE SMOOTH",
"474 618 OFFCURVE",
"376 583 OFFCURVE",
"285 512 CURVE",
"284 532 LINE",
"284 552 LINE SMOOTH",
"284 843 OFFCURVE",
"403 980 OFFCURVE",
"603 980 CURVE SMOOTH",
"681 980 OFFCURVE",
"754 951 OFFCURVE",
"821 892 CURVE",
"925 990 LINE",
"829 1075 OFFCURVE",
"719 1118 OFFCURVE",
"594 1118 CURVE SMOOTH",
"503 1118 OFFCURVE",
"419 1094 OFFCURVE",
"343 1045 CURVE SMOOTH",
"191 947 OFFCURVE",
"100 760 OFFCURVE",
"100 535 CURVE SMOOTH",
"100 428 OFFCURVE",
"121 332 OFFCURVE",
"163 248 CURVE SMOOTH",
"246 80 OFFCURVE",
"404 -20 OFFCURVE",
"573 -20 CURVE SMOOTH"
);
},
{
closed = 1;
nodes = (
"448 118 OFFCURVE",
"348 204 OFFCURVE",
"305 367 CURVE",
"371 442 OFFCURVE",
"455 480 OFFCURVE",
"556 480 CURVE SMOOTH",
"683 480 OFFCURVE",
"764 407 OFFCURVE",
"764 303 CURVE SMOOTH",
"764 190 OFFCURVE",
"691 118 OFFCURVE",
"572 118 CURVE SMOOTH"
);
}
);
width = 1048;
}
);
note = uni19C8;
unicode = 19C8;
},
{
glyphname = uni19C9;
lastChange = "2016-11-10 14:23:34 +0000";
layers = (
{
layerId = "24EFEC18-4C8B-448A-94CC-E79C5CDE5BAA";
paths = (
{
closed = 1;
nodes = (
"742 -20 OFFCURVE",
"860 35 OFFCURVE",
"969 151 CURVE",
"864 249 LINE",
"796 170 OFFCURVE",
"704 118 OFFCURVE",
"603 118 CURVE SMOOTH",
"403 118 OFFCURVE",
"284 255 OFFCURVE",
"284 546 CURVE SMOOTH",
"284 566 LINE",
"374 495 OFFCURVE",
"472 460 OFFCURVE",
"578 460 CURVE SMOOTH",
"636 460 OFFCURVE",
"694 476 OFFCURVE",
"753 508 CURVE SMOOTH",
"870 571 OFFCURVE",
"948 682 OFFCURVE",
"948 801 CURVE SMOOTH",
"948 859 OFFCURVE",
"933 913 OFFCURVE",
"902 962 CURVE SMOOTH",
"841 1060 OFFCURVE",
"721 1118 OFFCURVE",
"573 1118 CURVE SMOOTH",
"490 1118 OFFCURVE",
"411 1094 OFFCURVE",
"338 1046 CURVE SMOOTH",
"190 949 OFFCURVE",
"100 769 OFFCURVE",
"100 553 CURVE SMOOTH",
"100 441 OFFCURVE",
"122 341 OFFCURVE",
"165 254 CURVE SMOOTH",
"251 78 OFFCURVE",
"409 -20 OFFCURVE",
"594 -20 CURVE SMOOTH"
);
},
{
closed = 1;
nodes = (
"463 598 OFFCURVE",
"370 635 OFFCURVE",
"302 715 CURVE",
"341 884 OFFCURVE",
"440 980 OFFCURVE",
"572 980 CURVE SMOOTH",
"689 980 OFFCURVE",
"764 908 OFFCURVE",
"764 795 CURVE SMOOTH",
"764 684 OFFCURVE",
"676 598 OFFCURVE",
"556 598 CURVE SMOOTH"
);
}
);
width = 1069;
}
);
note = uni19C9;
unicode = 19C9;
},
{
glyphname = uni19D0;
lastChange = "2016-11-10 14:23:34 +0000";
layers = (
{
layerId = "24EFEC18-4C8B-448A-94CC-E79C5CDE5BAA";
paths = (
{
closed = 1;
nodes = (
"851 -20 OFFCURVE",
"1035 206 OFFCURVE",
"1035 551 CURVE SMOOTH",
"1035 660 OFFCURVE",
"1016 758 OFFCURVE",
"978 845 CURVE SMOOTH",
"901 1018 OFFCURVE",
"754 1118 OFFCURVE",
"570 1118 CURVE SMOOTH",
"477 1118 OFFCURVE",
"395 1094 OFFCURVE",
"324 1047 CURVE SMOOTH",
"181 952 OFFCURVE",
"100 770 OFFCURVE",
"100 551 CURVE SMOOTH",
"100 445 OFFCURVE",
"120 348 OFFCURVE",
"160 260 CURVE SMOOTH",
"239 84 OFFCURVE",
"390 -20 OFFCURVE",
"563 -20 CURVE SMOOTH"
);
},
{
closed = 1;
nodes = (
"389 118 OFFCURVE",
"284 283 OFFCURVE",
"284 551 CURVE SMOOTH",
"284 822 OFFCURVE",
"388 980 OFFCURVE",
"565 980 CURVE SMOOTH",
"749 980 OFFCURVE",
"851 826 OFFCURVE",
"851 551 CURVE SMOOTH",
"851 279 OFFCURVE",
"751 118 OFFCURVE",
"568 118 CURVE SMOOTH"
);
}
);
width = 1135;
}
);
note = uni19D0;
unicode = 19D0;
},
{
glyphname = uni19D1;
lastChange = "2016-11-10 14:23:34 +0000";
layers = (
{
layerId = "24EFEC18-4C8B-448A-94CC-E79C5CDE5BAA";
paths = (
{
closed = 1;
nodes = (
"604 -20 OFFCURVE",
"690 4 OFFCURVE",
"767 51 CURVE SMOOTH",
"921 145 OFFCURVE",
"1012 322 OFFCURVE",
"1012 553 CURVE SMOOTH",
"1012 674 OFFCURVE",
"992 776 OFFCURVE",
"952 861 CURVE SMOOTH",
"871 1030 OFFCURVE",
"719 1118 OFFCURVE",
"518 1118 CURVE SMOOTH",
"363 1118 OFFCURVE",
"214 1046 OFFCURVE",
"118 915 CURVE",
"249 839 LINE",
"304 926 OFFCURVE",
"405 980 OFFCURVE",
"509 980 CURVE SMOOTH",
"709 980 OFFCURVE",
"828 828 OFFCURVE",
"828 555 CURVE SMOOTH",
"828 292 OFFCURVE",
"707 118 OFFCURVE",
"520 118 CURVE SMOOTH",
"391 118 OFFCURVE",
"257 212 OFFCURVE",
"212 313 CURVE",
"80 238 LINE",
"181 69 OFFCURVE",
"331 -20 OFFCURVE",
"511 -20 CURVE SMOOTH"
);
}
);
width = 1112;
}
);
note = uni19D1;
unicode = 19D1;
},
{
glyphname = uni19D2;
lastChange = "2016-11-10 14:23:34 +0000";
layers = (
{
layerId = "24EFEC18-4C8B-448A-94CC-E79C5CDE5BAA";
paths = (
{
closed = 1;
nodes = (
"115 -570 OFFCURVE",
"222 -534 OFFCURVE",
"312 -462 CURVE SMOOTH",
"492 -319 OFFCURVE",
"596 -32 OFFCURVE",
"596 347 CURVE SMOOTH",
"596 763 LINE SMOOTH",
"596 834 OFFCURVE",
"585 896 OFFCURVE",
"564 950 CURVE SMOOTH",
"521 1058 OFFCURVE",
"445 1118 OFFCURVE",
"361 1118 CURVE SMOOTH",
"319 1118 OFFCURVE",
"283 1113 OFFCURVE",
"253 1103 CURVE",
"267 971 LINE",
"288 977 OFFCURVE",
"310 980 OFFCURVE",
"334 980 CURVE SMOOTH",
"389 980 OFFCURVE",
"418 942 OFFCURVE",
"418 875 CURVE SMOOTH",
"418 347 LINE SMOOTH",
"418 148 OFFCURVE",
"403 -6 OFFCURVE",
"374 -115 CURVE SMOOTH",
"314 -333 OFFCURVE",
"191 -432 OFFCURVE",
"7 -432 CURVE SMOOTH",
"-37 -432 OFFCURVE",
"-84 -420 OFFCURVE",
"-133 -397 CURVE",
"-200 -530 LINE",
"-137 -557 OFFCURVE",
"-73 -570 OFFCURVE",
"-8 -570 CURVE SMOOTH"
);
}
);
width = 736;
}
);
note = uni19D2;
unicode = 19D2;
},
{
glyphname = uni19D3;
lastChange = "2016-11-10 14:23:34 +0000";
layers = (
{
layerId = "24EFEC18-4C8B-448A-94CC-E79C5CDE5BAA";
paths = (
{
closed = 1;
nodes = (
"856 -450 OFFCURVE",
"896 -444 OFFCURVE",
"931 -432 CURVE",
"906 -297 LINE",
"873 -307 OFFCURVE",
"837 -312 OFFCURVE",
"798 -312 CURVE SMOOTH",
"623 -312 OFFCURVE",
"488 -211 OFFCURVE",
"344 14 CURVE",
"399 -9 OFFCURVE",
"451 -20 OFFCURVE",
"500 -20 CURVE SMOOTH",
"593 -20 OFFCURVE",
"679 4 OFFCURVE",
"756 51 CURVE SMOOTH",
"910 145 OFFCURVE",
"1001 322 OFFCURVE",
"1001 553 CURVE SMOOTH",
"1001 674 OFFCURVE",
"981 776 OFFCURVE",
"941 861 CURVE SMOOTH",
"860 1030 OFFCURVE",
"708 1118 OFFCURVE",
"507 1118 CURVE SMOOTH",
"352 1118 OFFCURVE",
"203 1046 OFFCURVE",
"107 915 CURVE",
"238 839 LINE",
"293 926 OFFCURVE",
"394 980 OFFCURVE",
"498 980 CURVE SMOOTH",
"698 980 OFFCURVE",
"817 828 OFFCURVE",
"817 555 CURVE SMOOTH",
"817 292 OFFCURVE",
"696 118 OFFCURVE",
"509 118 CURVE SMOOTH",
"378 118 OFFCURVE",
"291 163 OFFCURVE",
"212 291 CURVE",
"80 223 LINE",
"130 88 OFFCURVE",
"194 -32 OFFCURVE",
"273 -137 CURVE SMOOTH",
"429 -347 OFFCURVE",
"614 -450 OFFCURVE",
"809 -450 CURVE SMOOTH"
);
}
);
width = 1101;
}
);
note = uni19D3;
unicode = 19D3;
},
{
glyphname = uni19D4;
lastChange = "2016-11-10 14:23:34 +0000";
layers = (
{
layerId = "24EFEC18-4C8B-448A-94CC-E79C5CDE5BAA";
paths = (
{
closed = 1;
nodes = (
"389 -450 OFFCURVE",
"483 -424 OFFCURVE",
"574 -373 CURVE SMOOTH",
"754 -270 OFFCURVE",
"920 -51 OFFCURVE",
"1021 220 CURVE",
"889 291 LINE",
"809 162 OFFCURVE",
"721 118 OFFCURVE",
"592 118 CURVE SMOOTH",
"405 118 OFFCURVE",
"284 292 OFFCURVE",
"284 555 CURVE SMOOTH",
"284 830 OFFCURVE",
"403 980 OFFCURVE",
"603 980 CURVE SMOOTH",
"703 980 OFFCURVE",
"802 930 OFFCURVE",
"863 839 CURVE",
"994 915 LINE",
"898 1046 OFFCURVE",
"750 1118 OFFCURVE",
"594 1118 CURVE SMOOTH",
"493 1118 OFFCURVE",
"406 1096 OFFCURVE",
"332 1053 CURVE SMOOTH",
"184 966 OFFCURVE",
"100 793 OFFCURVE",
"100 553 CURVE SMOOTH",
"100 438 OFFCURVE",
"122 337 OFFCURVE",
"165 251 CURVE SMOOTH",
"252 78 OFFCURVE",
"414 -20 OFFCURVE",
"601 -20 CURVE SMOOTH",
"650 -20 OFFCURVE",
"702 -9 OFFCURVE",
"757 14 CURVE",
"612 -213 OFFCURVE",
"476 -312 OFFCURVE",
"303 -312 CURVE SMOOTH",
"264 -312 OFFCURVE",
"228 -307 OFFCURVE",
"195 -297 CURVE",
"170 -432 LINE",
"205 -444 OFFCURVE",
"245 -450 OFFCURVE",
"292 -450 CURVE SMOOTH"
);
}
);
width = 1101;
}
);
note = uni19D4;
unicode = 19D4;
},
{
glyphname = uni19D5;
lastChange = "2016-11-10 14:23:34 +0000";
layers = (
{
layerId = "24EFEC18-4C8B-448A-94CC-E79C5CDE5BAA";
paths = (
{
closed = 1;
nodes = (
"1093 -570 OFFCURVE",
"1180 -523 OFFCURVE",
"1255 -428 CURVE SMOOTH",
"1403 -239 OFFCURVE",
"1490 137 OFFCURVE",
"1490 582 CURVE SMOOTH",
"1490 906 OFFCURVE",
"1340 1118 OFFCURVE",
"1081 1118 CURVE SMOOTH",
"966 1118 OFFCURVE",
"851 1037 OFFCURVE",
"795 896 CURVE",
"742 1032 OFFCURVE",
"626 1118 OFFCURVE",
"509 1118 CURVE SMOOTH",
"250 1118 OFFCURVE",
"100 907 OFFCURVE",
"100 582 CURVE SMOOTH",
"100 318 OFFCURVE",
"217 110 OFFCURVE",
"436 -10 CURVE",
"492 124 LINE",
"361 175 OFFCURVE",
"284 341 OFFCURVE",
"284 581 CURVE SMOOTH",
"284 845 OFFCURVE",
"359 980 OFFCURVE",
"502 980 CURVE SMOOTH",
"627 980 OFFCURVE",
"696 884 OFFCURVE",
"708 693 CURVE",
"882 693 LINE",
"894 884 OFFCURVE",
"963 980 OFFCURVE",
"1088 980 CURVE SMOOTH",
"1231 980 OFFCURVE",
"1306 846 OFFCURVE",
"1306 581 CURVE SMOOTH",
"1306 244 OFFCURVE",
"1282 -9 OFFCURVE",
"1233 -178 CURVE SMOOTH",
"1184 -347 OFFCURVE",
"1113 -432 OFFCURVE",
"1019 -432 CURVE SMOOTH",
"970 -432 OFFCURVE",
"922 -420 OFFCURVE",
"874 -397 CURVE",
"800 -519 LINE",
"876 -553 OFFCURVE",
"940 -570 OFFCURVE",
"993 -570 CURVE SMOOTH"
);
}
);
width = 1590;
}
);
note = uni19D5;
unicode = 19D5;
},
{
glyphname = uni19D6;
lastChange = "2016-11-10 14:23:34 +0000";
layers = (
{
layerId = "24EFEC18-4C8B-448A-94CC-E79C5CDE5BAA";
paths = (
{
closed = 1;
nodes = (
"843 -20 OFFCURVE",
"916 -6 OFFCURVE",
"980 22 CURVE SMOOTH",
"1108 78 OFFCURVE",
"1186 181 OFFCURVE",
"1186 292 CURVE SMOOTH",
"1186 371 OFFCURVE",
"1150 437 OFFCURVE",
"1081 500 CURVE SMOOTH",
"1046 531 OFFCURVE",
"972 581 OFFCURVE",
"859 650 CURVE SMOOTH",
"758 711 OFFCURVE",
"707 767 OFFCURVE",
"707 827 CURVE SMOOTH",
"707 918 OFFCURVE",
"770 980 OFFCURVE",
"877 980 CURVE SMOOTH",
"960 980 OFFCURVE",
"1019 958 OFFCURVE",
"1087 901 CURVE",
"1181 1011 LINE",
"1101 1082 OFFCURVE",
"998 1118 OFFCURVE",
"871 1118 CURVE SMOOTH",
"806 1118 OFFCURVE",
"747 1105 OFFCURVE",
"694 1080 CURVE SMOOTH",
"588 1028 OFFCURVE",
"523 935 OFFCURVE",
"523 838 CURVE SMOOTH",
"523 801 OFFCURVE",
"531 767 OFFCURVE",
"548 736 CURVE SMOOTH",
"580 675 OFFCURVE",
"628 627 OFFCURVE",
"763 546 CURVE SMOOTH",
"840 499 OFFCURVE",
"892 465 OFFCURVE",
"919 443 CURVE SMOOTH",
"971 399 OFFCURVE",
"1002 352 OFFCURVE",
"1002 295 CURVE SMOOTH",
"1002 179 OFFCURVE",
"913 118 OFFCURVE",
"756 118 CURVE SMOOTH",
"453 118 OFFCURVE",
"284 360 OFFCURVE",
"284 791 CURVE SMOOTH",
"284 1363 OFFCURVE",
"406 1602 OFFCURVE",
"689 1602 CURVE SMOOTH",
"793 1602 OFFCURVE",
"902 1546 OFFCURVE",
"949 1461 CURVE",
"1082 1564 LINE",
"989 1681 OFFCURVE",
"867 1740 OFFCURVE",
"715 1740 CURVE SMOOTH",
"598 1740 OFFCURVE",
"492 1701 OFFCURVE",
"397 1624 CURVE SMOOTH",
"207 1468 OFFCURVE",
"100 1179 OFFCURVE",
"100 823 CURVE SMOOTH",
"100 656 OFFCURVE",
"127 509 OFFCURVE",
"181 382 CURVE SMOOTH",
"288 126 OFFCURVE",
"499 -20 OFFCURVE",
"760 -20 CURVE SMOOTH"
);
}
);
width = 1286;
}
);
note = uni19D6;
unicode = 19D6;
},
{
glyphname = uni19D7;
lastChange = "2016-11-10 14:23:34 +0000";
layers = (
{
layerId = "24EFEC18-4C8B-448A-94CC-E79C5CDE5BAA";
paths = (
{
closed = 1;
nodes = (
"1549 -570 OFFCURVE",
"1646 -544 OFFCURVE",
"1690 -519 CURVE",
"1623 -401 LINE",
"1595 -409 LINE",
"1552 -424 OFFCURVE",
"1515 -432 OFFCURVE",
"1486 -432 CURVE SMOOTH",
"1411 -432 OFFCURVE",
"1382 -394 OFFCURVE",
"1382 -326 CURVE SMOOTH",
"1382 -299 OFFCURVE",
"1391 -230 OFFCURVE",
"1410 -119 CURVE SMOOTH",
"1475 270 OFFCURVE",
"1490 433 OFFCURVE",
"1490 582 CURVE SMOOTH",
"1490 906 OFFCURVE",
"1340 1118 OFFCURVE",
"1081 1118 CURVE SMOOTH",
"966 1118 OFFCURVE",
"851 1037 OFFCURVE",
"795 896 CURVE",
"742 1032 OFFCURVE",
"626 1118 OFFCURVE",
"509 1118 CURVE SMOOTH",
"250 1118 OFFCURVE",
"100 907 OFFCURVE",
"100 582 CURVE SMOOTH",
"100 318 OFFCURVE",
"217 110 OFFCURVE",
"436 -10 CURVE",
"492 124 LINE",
"361 175 OFFCURVE",
"284 341 OFFCURVE",
"284 581 CURVE SMOOTH",
"284 845 OFFCURVE",
"359 980 OFFCURVE",
"502 980 CURVE SMOOTH",
"627 980 OFFCURVE",
"696 884 OFFCURVE",
"708 693 CURVE",
"882 693 LINE",
"894 884 OFFCURVE",
"963 980 OFFCURVE",
"1088 980 CURVE SMOOTH",
"1231 980 OFFCURVE",
"1306 846 OFFCURVE",
"1306 581 CURVE SMOOTH",
"1306 356 OFFCURVE",
"1296 163 OFFCURVE",
"1277 1 CURVE SMOOTH",
"1258 -161 OFFCURVE",
"1248 -264 OFFCURVE",
"1248 -307 CURVE SMOOTH",
"1248 -349 OFFCURVE",
"1260 -390 OFFCURVE",
"1284 -431 CURVE SMOOTH",
"1331 -513 OFFCURVE",
"1416 -570 OFFCURVE",
"1504 -570 CURVE SMOOTH"
);
}
);
width = 1590;
}
);
note = uni19D7;
unicode = 19D7;
},
{
glyphname = uni19D8;
lastChange = "2016-11-10 14:23:34 +0000";
layers = (
{
layerId = "24EFEC18-4C8B-448A-94CC-E79C5CDE5BAA";
paths = (
{
closed = 1;
nodes = (
"221 0 LINE",
"384 277 OFFCURVE",
"520 624 OFFCURVE",
"575 876 CURVE",
"630 621 OFFCURVE",
"769 272 OFFCURVE",
"929 0 CURVE",
"1119 0 LINE",
"908 329 OFFCURVE",
"742 739 OFFCURVE",
"663 1098 CURVE",
"490 1098 LINE",
"413 739 OFFCURVE",
"241 331 OFFCURVE",
"30 0 CURVE"
);
}
);
width = 1149;
}
);
note = uni19D8;
unicode = 19D8;
},
{
glyphname = uni19D9;
lastChange = "2016-11-10 14:23:34 +0000";
layers = (
{
layerId = "24EFEC18-4C8B-448A-94CC-E79C5CDE5BAA";
paths = (
{
closed = 1;
nodes = (
"886 -570 OFFCURVE",
"1025 -510 OFFCURVE",
"1124 -390 CURVE",
"1019 -300 LINE",
"952 -388 OFFCURVE",
"849 -432 OFFCURVE",
"710 -432 CURVE SMOOTH",
"423 -432 OFFCURVE",
"284 -206 OFFCURVE",
"284 309 CURVE SMOOTH",
"284 746 OFFCURVE",
"423 980 OFFCURVE",
"695 980 CURVE SMOOTH",
"860 980 OFFCURVE",
"940 875 OFFCURVE",
"940 702 CURVE SMOOTH",
"940 566 OFFCURVE",
"869 468 OFFCURVE",
"768 468 CURVE SMOOTH",
"688 468 OFFCURVE",
"639 517 OFFCURVE",
"639 598 CURVE SMOOTH",
"639 619 OFFCURVE",
"641 636 OFFCURVE",
"646 649 CURVE",
"493 723 LINE",
"474 688 OFFCURVE",
"464 650 OFFCURVE",
"464 609 CURVE SMOOTH",
"464 565 OFFCURVE",
"477 522 OFFCURVE",
"504 480 CURVE SMOOTH",
"556 395 OFFCURVE",
"652 340 OFFCURVE",
"767 340 CURVE SMOOTH",
"832 340 OFFCURVE",
"893 356 OFFCURVE",
"948 389 CURVE SMOOTH",
"1058 454 OFFCURVE",
"1124 577 OFFCURVE",
"1124 708 CURVE SMOOTH",
"1124 786 OFFCURVE",
"1107 857 OFFCURVE",
"1072 920 CURVE SMOOTH",
"1002 1046 OFFCURVE",
"868 1118 OFFCURVE",
"691 1118 CURVE SMOOTH",
"578 1118 OFFCURVE",
"476 1083 OFFCURVE",
"386 1014 CURVE SMOOTH",
"206 875 OFFCURVE",
"100 606 OFFCURVE",
"100 305 CURVE SMOOTH",
"100 139 OFFCURVE",
"125 -12 OFFCURVE",
"176 -149 CURVE SMOOTH",
"277 -423 OFFCURVE",
"466 -570 OFFCURVE",
"709 -570 CURVE SMOOTH"
);
}
);
width = 1224;
}
);
note = uni19D9;
unicode = 19D9;
},
{
glyphname = uni19DA;
lastChange = "2016-11-10 14:23:34 +0000";
layers = (
{
layerId = "24EFEC18-4C8B-448A-94CC-E79C5CDE5BAA";
paths = (
{
closed = 1;
nodes = (
"782 -20 OFFCURVE",
"931 70 OFFCURVE",
"1032 238 CURVE",
"900 313 LINE",
"849 206 OFFCURVE",
"719 118 OFFCURVE",
"592 118 CURVE SMOOTH",
"405 118 OFFCURVE",
"284 292 OFFCURVE",
"284 555 CURVE SMOOTH",
"284 830 OFFCURVE",
"403 980 OFFCURVE",
"603 980 CURVE SMOOTH",
"748 980 OFFCURVE",
"859 894 OFFCURVE",
"884 754 CURVE",
"1052 770 LINE",
"1054 771 LINE",
"1093 834 OFFCURVE",
"1127 908 OFFCURVE",
"1158 994 CURVE SMOOTH",
"1219 1166 OFFCURVE",
"1261 1399 OFFCURVE",
"1266 1556 CURVE",
"1084 1586 LINE",
"1084 1301 OFFCURVE",
"1056 1056 OFFCURVE",
"1005 912 CURVE",
"930 1041 OFFCURVE",
"782 1118 OFFCURVE",
"610 1118 CURVE SMOOTH",
"511 1118 OFFCURVE",
"422 1096 OFFCURVE",
"345 1051 CURVE SMOOTH",
"190 961 OFFCURVE",
"100 785 OFFCURVE",
"100 553 CURVE SMOOTH",
"100 438 OFFCURVE",
"122 337 OFFCURVE",
"165 251 CURVE SMOOTH",
"252 78 OFFCURVE",
"414 -20 OFFCURVE",
"601 -20 CURVE SMOOTH"
);
}
);
width = 1264;
}
);
note = uni19DA;
unicode = 19DA;
},
{
glyphname = uni19DE;
lastChange = "2016-11-10 14:23:34 +0000";
layers = (
{
layerId = "24EFEC18-4C8B-448A-94CC-E79C5CDE5BAA";
paths = (
{
closed = 1;
nodes = (
"631 -20 OFFCURVE",
"702 3 OFFCURVE",
"765 59 CURVE",
"678 165 LINE",
"639 134 OFFCURVE",
"591 118 OFFCURVE",
"534 118 CURVE SMOOTH",
"378 118 OFFCURVE",
"284 288 OFFCURVE",
"284 569 CURVE SMOOTH",
"284 822 OFFCURVE",
"369 980 OFFCURVE",
"509 980 CURVE SMOOTH",
"610 980 OFFCURVE",
"681 922 OFFCURVE",
"726 809 CURVE SMOOTH",
"748 752 OFFCURVE",
"773 643 OFFCURVE",
"801 480 CURVE SMOOTH",
"865 109 OFFCURVE",
"976 -20 OFFCURVE",
"1189 -20 CURVE SMOOTH",
"1400 -20 OFFCURVE",
"1538 174 OFFCURVE",
"1538 470 CURVE SMOOTH",
"1538 571 OFFCURVE",
"1522 682 OFFCURVE",
"1507 798 CURVE SMOOTH",
"1491 914 OFFCURVE",
"1475 1035 OFFCURVE",
"1475 1159 CURVE SMOOTH",
"1475 1316 OFFCURVE",
"1492 1429 OFFCURVE",
"1525 1498 CURVE SMOOTH",
"1558 1567 OFFCURVE",
"1612 1602 OFFCURVE",
"1688 1602 CURVE SMOOTH",
"1737 1602 OFFCURVE",
"1785 1590 OFFCURVE",
"1833 1567 CURVE",
"1913 1689 LINE",
"1837 1723 OFFCURVE",
"1771 1740 OFFCURVE",
"1714 1740 CURVE SMOOTH",
"1639 1740 OFFCURVE",
"1571 1714 OFFCURVE",
"1508 1663 CURVE SMOOTH",
"1383 1560 OFFCURVE",
"1291 1343 OFFCURVE",
"1291 1168 CURVE SMOOTH",
"1291 1032 OFFCURVE",
"1307 912 OFFCURVE",
"1323 790 CURVE SMOOTH",
"1338 668 OFFCURVE",
"1354 545 OFFCURVE",
"1354 406 CURVE SMOOTH",
"1354 209 OFFCURVE",
"1304 118 OFFCURVE",
"1189 118 CURVE SMOOTH",
"1144 118 OFFCURVE",
"1107 132 OFFCURVE",
"1080 161 CURVE SMOOTH",
"1025 218 OFFCURVE",
"993 315 OFFCURVE",
"971 435 CURVE SMOOTH",
"960 494 OFFCURVE",
"948 555 OFFCURVE",
"935 618 CURVE SMOOTH",
"910 743 OFFCURVE",
"877 868 OFFCURVE",
"814 962 CURVE SMOOTH",
"750 1056 OFFCURVE",
"656 1118 OFFCURVE",
"508 1118 CURVE SMOOTH",
"433 1118 OFFCURVE",
"364 1094 OFFCURVE",
"301 1046 CURVE SMOOTH",
"173 949 OFFCURVE",
"100 774 OFFCURVE",
"100 571 CURVE SMOOTH",
"100 464 OFFCURVE",
"120 365 OFFCURVE",
"159 274 CURVE SMOOTH",
"238 90 OFFCURVE",
"380 -20 OFFCURVE",
"531 -20 CURVE SMOOTH"
);
}
);
width = 1713;
}
);
note = uni19DE;
unicode = 19DE;
},
{
glyphname = finalconsmk;
lastChange = "2016-11-10 14:23:38 +0000";
layers = (
{
layerId = "24EFEC18-4C8B-448A-94CC-E79C5CDE5BAA";
paths = (
{
closed = 1;
nodes = (
"414 -600 OFFCURVE",
"502 -550 OFFCURVE",
"583 -450 CURVE SMOOTH",
"745 -250 OFFCURVE",
"860 159 OFFCURVE",
"860 532 CURVE",
"664 283 LINE",
"659 46 OFFCURVE",
"610 -198 OFFCURVE",
"538 -346 CURVE",
"522 -243 OFFCURVE",
"430 -170 OFFCURVE",
"325 -170 CURVE SMOOTH",
"184 -170 OFFCURVE",
"87 -257 OFFCURVE",
"87 -382 CURVE SMOOTH",
"87 -509 OFFCURVE",
"180 -600 OFFCURVE",
"320 -600 CURVE SMOOTH"
);
},
{
closed = 1;
nodes = (
"266 -480 OFFCURVE",
"224 -440 OFFCURVE",
"224 -383 CURVE SMOOTH",
"224 -323 OFFCURVE",
"266 -282 OFFCURVE",
"321 -282 CURVE SMOOTH",
"373 -282 OFFCURVE",
"415 -326 OFFCURVE",
"415 -383 CURVE SMOOTH",
"415 -438 OFFCURVE",
"374 -480 OFFCURVE",
"321 -480 CURVE SMOOTH"
);
}
);
width = 912;
}
);
note = finalconsmk;
},
{
glyphname = belowmk1;
lastChange = "2016-11-10 14:23:38 +0000";
layers = (
{
layerId = "24EFEC18-4C8B-448A-94CC-E79C5CDE5BAA";
paths = (
{
closed = 1;
nodes = (
"843 -600 OFFCURVE",
"1016 -510 OFFCURVE",
"1016 -367 CURVE SMOOTH",
"1016 -223 OFFCURVE",
"842 -130 OFFCURVE",
"558 -130 CURVE SMOOTH",
"273 -130 OFFCURVE",
"100 -224 OFFCURVE",
"100 -367 CURVE SMOOTH",
"100 -510 OFFCURVE",
"274 -600 OFFCURVE",
"558 -600 CURVE SMOOTH"
);
},
{
closed = 1;
nodes = (
"459 -480 OFFCURVE",
"385 -470 OFFCURVE",
"331 -449 CURVE SMOOTH",
"277 -429 OFFCURVE",
"250 -401 OFFCURVE",
"250 -366 CURVE SMOOTH",
"250 -329 OFFCURVE",
"277 -301 OFFCURVE",
"330 -280 CURVE SMOOTH",
"383 -260 OFFCURVE",
"458 -250 OFFCURVE",
"554 -250 CURVE SMOOTH",
"652 -250 OFFCURVE",
"729 -260 OFFCURVE",
"784 -281 CURVE SMOOTH",
"839 -302 OFFCURVE",
"866 -330 OFFCURVE",
"866 -366 CURVE SMOOTH",
"866 -401 OFFCURVE",
"838 -429 OFFCURVE",
"783 -449 CURVE SMOOTH",
"728 -470 OFFCURVE",
"651 -480 OFFCURVE",
"554 -480 CURVE SMOOTH"
);
}
);
width = 1116;
}
);
note = belowmk1;
},
{
glyphname = belowmk2;
lastChange = "2016-11-10 14:23:38 +0000";
layers = (
{
layerId = "24EFEC18-4C8B-448A-94CC-E79C5CDE5BAA";
paths = (
{
closed = 1;
nodes = (
"708 -600 OFFCURVE",
"876 -505 OFFCURVE",
"876 -365 CURVE SMOOTH",
"876 -226 OFFCURVE",
"709 -130 OFFCURVE",
"488 -130 CURVE SMOOTH",
"268 -130 OFFCURVE",
"100 -225 OFFCURVE",
"100 -365 CURVE SMOOTH",
"100 -504 OFFCURVE",
"267 -600 OFFCURVE",
"488 -600 CURVE SMOOTH"
);
},
{
closed = 1;
nodes = (
"405 -477 OFFCURVE",
"347 -466 OFFCURVE",
"308 -445 CURVE SMOOTH",
"269 -424 OFFCURVE",
"250 -397 OFFCURVE",
"250 -364 CURVE SMOOTH",
"250 -330 OFFCURVE",
"269 -302 OFFCURVE",
"308 -281 CURVE SMOOTH",
"347 -260 OFFCURVE",
"405 -250 OFFCURVE",
"484 -250 CURVE SMOOTH",
"563 -250 OFFCURVE",
"624 -260 OFFCURVE",
"665 -281 CURVE SMOOTH",
"706 -302 OFFCURVE",
"726 -330 OFFCURVE",
"726 -364 CURVE SMOOTH",
"726 -397 OFFCURVE",
"706 -424 OFFCURVE",
"665 -445 CURVE SMOOTH",
"624 -466 OFFCURVE",
"563 -477 OFFCURVE",
"484 -477 CURVE SMOOTH"
);
}
);
width = 976;
}
);
note = belowmk2;
},
{
glyphname = abovemk1;
lastChange = "2016-11-10 14:23:38 +0000";
layers = (
{
layerId = "24EFEC18-4C8B-448A-94CC-E79C5CDE5BAA";
paths = (
{
closed = 1;
nodes = (
"253 1240 LINE",
"302 1293 OFFCURVE",
"351 1365 OFFCURVE",
"402 1458 CURVE",
"446 1377 OFFCURVE",
"521 1269 OFFCURVE",
"550 1240 CURVE",
"724 1240 LINE",
"651 1291 OFFCURVE",
"519 1448 OFFCURVE",
"455 1560 CURVE",
"360 1560 LINE",
"280 1433 OFFCURVE",
"187 1326 OFFCURVE",
"80 1240 CURVE"
);
}
);
width = 804;
}
);
note = abovemk1;
},
